M48
INCH,TZ
T1C0.010
T2C0.012
T3C0.026
T4C0.035
T5C0.039
%
G90
G05
T1
X0.6048Y0.1938
X0.6048Y0.1662
T2
X0.2399Y0.2966
X0.27Y0.5646
X0.394Y0.517
X0.4151Y0.2916
X0.4154Y0.2331
X0.53Y0.38
X0.6555Y0.442
X0.675Y0.287
X0.68Y0.355
X0.685Y0.475
X0.817Y0.35
X0.849Y0.298
X0.865Y0.405
X0.874Y0.272
X0.937Y0.225
X1.005Y0.285
X1.105Y0.1605
X1.145Y0.537
X1.18Y0.539
X1.259Y0.186
X1.335Y0.325
X1.382Y0.451
X1.5Y0.049
X1.513Y0.18
X1.602Y0.041
X1.605Y0.154
X1.68Y0.225
X1.701Y0.037
X1.7275Y0.507
T3
X0.1681Y0.4705
X0.1681Y0.2795
T4
X1.3754Y0.5299
X1.4148Y0.2425
T5
X0.05Y0.675
X0.05Y0.4823
X0.05Y0.2677
X0.05Y0.075
X0.15Y0.675
X0.15Y0.075
X0.25Y0.675
X0.25Y0.075
X0.35Y0.675
X0.35Y0.075
X0.45Y0.675
X0.45Y0.075
X0.55Y0.675
X0.55Y0.075
X0.65Y0.675
X0.65Y0.075
X0.75Y0.675
X0.75Y0.075
X0.85Y0.675
X0.85Y0.075
X0.95Y0.675
X0.95Y0.075
X1.05Y0.675
X1.05Y0.075
X1.15Y0.675
X1.15Y0.075
X1.25Y0.675
X1.25Y0.075
X1.35Y0.675
X1.35Y0.075
X1.45Y0.675
X1.45Y0.075
X1.55Y0.675
X1.55Y0.075
X1.65Y0.675
X1.65Y0.075
X1.75Y0.675
X1.75Y0.075
T0
M30
