G04 #@! TF.FileFunction,Soldermask,Top*
%FSLAX46Y46*%
G04 Gerber Fmt 4.6, Leading zero omitted, Abs format (unit mm)*
G04 Created by KiCad (PCBNEW 4.0.0-stable) date 31/12/2015 20:29:45*
%MOMM*%
G01*
G04 APERTURE LIST*
%ADD10C,0.150000*%
%ADD11C,0.101600*%
G04 APERTURE END LIST*
D10*
D11*
X635000Y0D02*
X45085000Y0D01*
X635000Y19050000D02*
X45085000Y19050000D01*
X45720000Y635000D02*
X45085000Y0D01*
X45720000Y18415000D02*
X45720000Y635000D01*
X45085000Y19050000D02*
X45720000Y18415000D01*
X0Y18415000D02*
X635000Y19050000D01*
X0Y635000D02*
X0Y18415000D01*
X635000Y0D02*
X0Y635000D01*
D10*
G36*
X24219279Y2754436D02*
X24382570Y2720917D01*
X24536236Y2656322D01*
X24674433Y2563108D01*
X24791893Y2444824D01*
X24884140Y2305982D01*
X24947661Y2151868D01*
X24979971Y1988691D01*
X24979971Y1988681D01*
X24980037Y1988347D01*
X24977378Y1797951D01*
X24977302Y1797617D01*
X24977302Y1797605D01*
X24940451Y1635401D01*
X24872649Y1483117D01*
X24776562Y1346905D01*
X24655843Y1231946D01*
X24515102Y1142630D01*
X24359688Y1082347D01*
X24195529Y1053402D01*
X24028872Y1056893D01*
X23866062Y1092689D01*
X23713315Y1159423D01*
X23576429Y1254561D01*
X23460634Y1374470D01*
X23370337Y1514583D01*
X23308972Y1669572D01*
X23278880Y1833533D01*
X23281208Y2000209D01*
X23315864Y2163256D01*
X23381534Y2316473D01*
X23475710Y2454014D01*
X23594810Y2570646D01*
X23734292Y2661921D01*
X23888848Y2724365D01*
X24052586Y2755600D01*
X24219279Y2754436D01*
X24219279Y2754436D01*
G37*
G36*
X44539279Y2754436D02*
X44702570Y2720917D01*
X44856236Y2656322D01*
X44994433Y2563108D01*
X45111893Y2444824D01*
X45204140Y2305982D01*
X45267661Y2151868D01*
X45299971Y1988691D01*
X45299971Y1988681D01*
X45300037Y1988347D01*
X45297378Y1797951D01*
X45297302Y1797617D01*
X45297302Y1797605D01*
X45260451Y1635401D01*
X45192649Y1483117D01*
X45096562Y1346905D01*
X44975843Y1231946D01*
X44835102Y1142630D01*
X44679688Y1082347D01*
X44515529Y1053402D01*
X44348872Y1056893D01*
X44186062Y1092689D01*
X44033315Y1159423D01*
X43896429Y1254561D01*
X43780634Y1374470D01*
X43690337Y1514583D01*
X43628972Y1669572D01*
X43598880Y1833533D01*
X43601208Y2000209D01*
X43635864Y2163256D01*
X43701534Y2316473D01*
X43795710Y2454014D01*
X43914810Y2570646D01*
X44054292Y2661921D01*
X44208848Y2724365D01*
X44372586Y2755600D01*
X44539279Y2754436D01*
X44539279Y2754436D01*
G37*
G36*
X3899279Y2754436D02*
X4062570Y2720917D01*
X4216236Y2656322D01*
X4354433Y2563108D01*
X4471893Y2444824D01*
X4564140Y2305982D01*
X4627661Y2151868D01*
X4659971Y1988691D01*
X4659971Y1988681D01*
X4660037Y1988347D01*
X4657378Y1797951D01*
X4657302Y1797617D01*
X4657302Y1797605D01*
X4620451Y1635401D01*
X4552649Y1483117D01*
X4456562Y1346905D01*
X4335843Y1231946D01*
X4195102Y1142630D01*
X4039688Y1082347D01*
X3875529Y1053402D01*
X3708872Y1056893D01*
X3546062Y1092689D01*
X3393315Y1159423D01*
X3256429Y1254561D01*
X3140634Y1374470D01*
X3050337Y1514583D01*
X2988972Y1669572D01*
X2958880Y1833533D01*
X2961208Y2000209D01*
X2995864Y2163256D01*
X3061534Y2316473D01*
X3155710Y2454014D01*
X3274810Y2570646D01*
X3414292Y2661921D01*
X3568848Y2724365D01*
X3732586Y2755600D01*
X3899279Y2754436D01*
X3899279Y2754436D01*
G37*
G36*
X41999279Y2754436D02*
X42162570Y2720917D01*
X42316236Y2656322D01*
X42454433Y2563108D01*
X42571893Y2444824D01*
X42664140Y2305982D01*
X42727661Y2151868D01*
X42759971Y1988691D01*
X42759971Y1988681D01*
X42760037Y1988347D01*
X42757378Y1797951D01*
X42757302Y1797617D01*
X42757302Y1797605D01*
X42720451Y1635401D01*
X42652649Y1483117D01*
X42556562Y1346905D01*
X42435843Y1231946D01*
X42295102Y1142630D01*
X42139688Y1082347D01*
X41975529Y1053402D01*
X41808872Y1056893D01*
X41646062Y1092689D01*
X41493315Y1159423D01*
X41356429Y1254561D01*
X41240634Y1374470D01*
X41150337Y1514583D01*
X41088972Y1669572D01*
X41058880Y1833533D01*
X41061208Y2000209D01*
X41095864Y2163256D01*
X41161534Y2316473D01*
X41255710Y2454014D01*
X41374810Y2570646D01*
X41514292Y2661921D01*
X41668848Y2724365D01*
X41832586Y2755600D01*
X41999279Y2754436D01*
X41999279Y2754436D01*
G37*
G36*
X39459279Y2754436D02*
X39622570Y2720917D01*
X39776236Y2656322D01*
X39914433Y2563108D01*
X40031893Y2444824D01*
X40124140Y2305982D01*
X40187661Y2151868D01*
X40219971Y1988691D01*
X40219971Y1988681D01*
X40220037Y1988347D01*
X40217378Y1797951D01*
X40217302Y1797617D01*
X40217302Y1797605D01*
X40180451Y1635401D01*
X40112649Y1483117D01*
X40016562Y1346905D01*
X39895843Y1231946D01*
X39755102Y1142630D01*
X39599688Y1082347D01*
X39435529Y1053402D01*
X39268872Y1056893D01*
X39106062Y1092689D01*
X38953315Y1159423D01*
X38816429Y1254561D01*
X38700634Y1374470D01*
X38610337Y1514583D01*
X38548972Y1669572D01*
X38518880Y1833533D01*
X38521208Y2000209D01*
X38555864Y2163256D01*
X38621534Y2316473D01*
X38715710Y2454014D01*
X38834810Y2570646D01*
X38974292Y2661921D01*
X39128848Y2724365D01*
X39292586Y2755600D01*
X39459279Y2754436D01*
X39459279Y2754436D01*
G37*
G36*
X36919279Y2754436D02*
X37082570Y2720917D01*
X37236236Y2656322D01*
X37374433Y2563108D01*
X37491893Y2444824D01*
X37584140Y2305982D01*
X37647661Y2151868D01*
X37679971Y1988691D01*
X37679971Y1988681D01*
X37680037Y1988347D01*
X37677378Y1797951D01*
X37677302Y1797617D01*
X37677302Y1797605D01*
X37640451Y1635401D01*
X37572649Y1483117D01*
X37476562Y1346905D01*
X37355843Y1231946D01*
X37215102Y1142630D01*
X37059688Y1082347D01*
X36895529Y1053402D01*
X36728872Y1056893D01*
X36566062Y1092689D01*
X36413315Y1159423D01*
X36276429Y1254561D01*
X36160634Y1374470D01*
X36070337Y1514583D01*
X36008972Y1669572D01*
X35978880Y1833533D01*
X35981208Y2000209D01*
X36015864Y2163256D01*
X36081534Y2316473D01*
X36175710Y2454014D01*
X36294810Y2570646D01*
X36434292Y2661921D01*
X36588848Y2724365D01*
X36752586Y2755600D01*
X36919279Y2754436D01*
X36919279Y2754436D01*
G37*
G36*
X34379279Y2754436D02*
X34542570Y2720917D01*
X34696236Y2656322D01*
X34834433Y2563108D01*
X34951893Y2444824D01*
X35044140Y2305982D01*
X35107661Y2151868D01*
X35139971Y1988691D01*
X35139971Y1988681D01*
X35140037Y1988347D01*
X35137378Y1797951D01*
X35137302Y1797617D01*
X35137302Y1797605D01*
X35100451Y1635401D01*
X35032649Y1483117D01*
X34936562Y1346905D01*
X34815843Y1231946D01*
X34675102Y1142630D01*
X34519688Y1082347D01*
X34355529Y1053402D01*
X34188872Y1056893D01*
X34026062Y1092689D01*
X33873315Y1159423D01*
X33736429Y1254561D01*
X33620634Y1374470D01*
X33530337Y1514583D01*
X33468972Y1669572D01*
X33438880Y1833533D01*
X33441208Y2000209D01*
X33475864Y2163256D01*
X33541534Y2316473D01*
X33635710Y2454014D01*
X33754810Y2570646D01*
X33894292Y2661921D01*
X34048848Y2724365D01*
X34212586Y2755600D01*
X34379279Y2754436D01*
X34379279Y2754436D01*
G37*
G36*
X31839278Y2754436D02*
X32002569Y2720917D01*
X32156235Y2656322D01*
X32294432Y2563108D01*
X32411892Y2444824D01*
X32504139Y2305982D01*
X32567660Y2151868D01*
X32599970Y1988691D01*
X32599970Y1988681D01*
X32600036Y1988347D01*
X32597377Y1797951D01*
X32597301Y1797617D01*
X32597301Y1797605D01*
X32560450Y1635401D01*
X32492648Y1483117D01*
X32396561Y1346905D01*
X32275842Y1231946D01*
X32135101Y1142630D01*
X31979687Y1082347D01*
X31815528Y1053402D01*
X31648871Y1056893D01*
X31486061Y1092689D01*
X31333314Y1159423D01*
X31196428Y1254561D01*
X31080633Y1374470D01*
X30990336Y1514583D01*
X30928971Y1669572D01*
X30898879Y1833533D01*
X30901207Y2000209D01*
X30935863Y2163256D01*
X31001533Y2316473D01*
X31095709Y2454014D01*
X31214809Y2570646D01*
X31354291Y2661921D01*
X31508847Y2724365D01*
X31672585Y2755600D01*
X31839278Y2754436D01*
X31839278Y2754436D01*
G37*
G36*
X29299279Y2754436D02*
X29462570Y2720917D01*
X29616236Y2656322D01*
X29754433Y2563108D01*
X29871893Y2444824D01*
X29964140Y2305982D01*
X30027661Y2151868D01*
X30059971Y1988691D01*
X30059971Y1988681D01*
X30060037Y1988347D01*
X30057378Y1797951D01*
X30057302Y1797617D01*
X30057302Y1797605D01*
X30020451Y1635401D01*
X29952649Y1483117D01*
X29856562Y1346905D01*
X29735843Y1231946D01*
X29595102Y1142630D01*
X29439688Y1082347D01*
X29275529Y1053402D01*
X29108872Y1056893D01*
X28946062Y1092689D01*
X28793315Y1159423D01*
X28656429Y1254561D01*
X28540634Y1374470D01*
X28450337Y1514583D01*
X28388972Y1669572D01*
X28358880Y1833533D01*
X28361208Y2000209D01*
X28395864Y2163256D01*
X28461534Y2316473D01*
X28555710Y2454014D01*
X28674810Y2570646D01*
X28814292Y2661921D01*
X28968848Y2724365D01*
X29132586Y2755600D01*
X29299279Y2754436D01*
X29299279Y2754436D01*
G37*
G36*
X21679279Y2754436D02*
X21842570Y2720917D01*
X21996236Y2656322D01*
X22134433Y2563108D01*
X22251893Y2444824D01*
X22344140Y2305982D01*
X22407661Y2151868D01*
X22439971Y1988691D01*
X22439971Y1988681D01*
X22440037Y1988347D01*
X22437378Y1797951D01*
X22437302Y1797617D01*
X22437302Y1797605D01*
X22400451Y1635401D01*
X22332649Y1483117D01*
X22236562Y1346905D01*
X22115843Y1231946D01*
X21975102Y1142630D01*
X21819688Y1082347D01*
X21655529Y1053402D01*
X21488872Y1056893D01*
X21326062Y1092689D01*
X21173315Y1159423D01*
X21036429Y1254561D01*
X20920634Y1374470D01*
X20830337Y1514583D01*
X20768972Y1669572D01*
X20738880Y1833533D01*
X20741208Y2000209D01*
X20775864Y2163256D01*
X20841534Y2316473D01*
X20935710Y2454014D01*
X21054810Y2570646D01*
X21194292Y2661921D01*
X21348848Y2724365D01*
X21512586Y2755600D01*
X21679279Y2754436D01*
X21679279Y2754436D01*
G37*
G36*
X26759279Y2754436D02*
X26922570Y2720917D01*
X27076236Y2656322D01*
X27214433Y2563108D01*
X27331893Y2444824D01*
X27424140Y2305982D01*
X27487661Y2151868D01*
X27519971Y1988691D01*
X27519971Y1988681D01*
X27520037Y1988347D01*
X27517378Y1797951D01*
X27517302Y1797617D01*
X27517302Y1797605D01*
X27480451Y1635401D01*
X27412649Y1483117D01*
X27316562Y1346905D01*
X27195843Y1231946D01*
X27055102Y1142630D01*
X26899688Y1082347D01*
X26735529Y1053402D01*
X26568872Y1056893D01*
X26406062Y1092689D01*
X26253315Y1159423D01*
X26116429Y1254561D01*
X26000634Y1374470D01*
X25910337Y1514583D01*
X25848972Y1669572D01*
X25818880Y1833533D01*
X25821208Y2000209D01*
X25855864Y2163256D01*
X25921534Y2316473D01*
X26015710Y2454014D01*
X26134810Y2570646D01*
X26274292Y2661921D01*
X26428848Y2724365D01*
X26592586Y2755600D01*
X26759279Y2754436D01*
X26759279Y2754436D01*
G37*
G36*
X6439279Y2754436D02*
X6602570Y2720917D01*
X6756236Y2656322D01*
X6894433Y2563108D01*
X7011893Y2444824D01*
X7104140Y2305982D01*
X7167661Y2151868D01*
X7199971Y1988691D01*
X7199971Y1988681D01*
X7200037Y1988347D01*
X7197378Y1797951D01*
X7197302Y1797617D01*
X7197302Y1797605D01*
X7160451Y1635401D01*
X7092649Y1483117D01*
X6996562Y1346905D01*
X6875843Y1231946D01*
X6735102Y1142630D01*
X6579688Y1082347D01*
X6415529Y1053402D01*
X6248872Y1056893D01*
X6086062Y1092689D01*
X5933315Y1159423D01*
X5796429Y1254561D01*
X5680634Y1374470D01*
X5590337Y1514583D01*
X5528972Y1669572D01*
X5498880Y1833533D01*
X5501208Y2000209D01*
X5535864Y2163256D01*
X5601534Y2316473D01*
X5695710Y2454014D01*
X5814810Y2570646D01*
X5954292Y2661921D01*
X6108848Y2724365D01*
X6272586Y2755600D01*
X6439279Y2754436D01*
X6439279Y2754436D01*
G37*
G36*
X8979279Y2754436D02*
X9142570Y2720917D01*
X9296236Y2656322D01*
X9434433Y2563108D01*
X9551893Y2444824D01*
X9644140Y2305982D01*
X9707661Y2151868D01*
X9739971Y1988691D01*
X9739971Y1988681D01*
X9740037Y1988347D01*
X9737378Y1797951D01*
X9737302Y1797617D01*
X9737302Y1797605D01*
X9700451Y1635401D01*
X9632649Y1483117D01*
X9536562Y1346905D01*
X9415843Y1231946D01*
X9275102Y1142630D01*
X9119688Y1082347D01*
X8955529Y1053402D01*
X8788872Y1056893D01*
X8626062Y1092689D01*
X8473315Y1159423D01*
X8336429Y1254561D01*
X8220634Y1374470D01*
X8130337Y1514583D01*
X8068972Y1669572D01*
X8038880Y1833533D01*
X8041208Y2000209D01*
X8075864Y2163256D01*
X8141534Y2316473D01*
X8235710Y2454014D01*
X8354810Y2570646D01*
X8494292Y2661921D01*
X8648848Y2724365D01*
X8812586Y2755600D01*
X8979279Y2754436D01*
X8979279Y2754436D01*
G37*
G36*
X11519279Y2754436D02*
X11682570Y2720917D01*
X11836236Y2656322D01*
X11974433Y2563108D01*
X12091893Y2444824D01*
X12184140Y2305982D01*
X12247661Y2151868D01*
X12279971Y1988691D01*
X12279971Y1988681D01*
X12280037Y1988347D01*
X12277378Y1797951D01*
X12277302Y1797617D01*
X12277302Y1797605D01*
X12240451Y1635401D01*
X12172649Y1483117D01*
X12076562Y1346905D01*
X11955843Y1231946D01*
X11815102Y1142630D01*
X11659688Y1082347D01*
X11495529Y1053402D01*
X11328872Y1056893D01*
X11166062Y1092689D01*
X11013315Y1159423D01*
X10876429Y1254561D01*
X10760634Y1374470D01*
X10670337Y1514583D01*
X10608972Y1669572D01*
X10578880Y1833533D01*
X10581208Y2000209D01*
X10615864Y2163256D01*
X10681534Y2316473D01*
X10775710Y2454014D01*
X10894810Y2570646D01*
X11034292Y2661921D01*
X11188848Y2724365D01*
X11352586Y2755600D01*
X11519279Y2754436D01*
X11519279Y2754436D01*
G37*
G36*
X14059280Y2754436D02*
X14222571Y2720917D01*
X14376237Y2656322D01*
X14514434Y2563108D01*
X14631894Y2444824D01*
X14724141Y2305982D01*
X14787662Y2151868D01*
X14819972Y1988691D01*
X14819972Y1988681D01*
X14820038Y1988347D01*
X14817379Y1797951D01*
X14817303Y1797617D01*
X14817303Y1797605D01*
X14780452Y1635401D01*
X14712650Y1483117D01*
X14616563Y1346905D01*
X14495844Y1231946D01*
X14355103Y1142630D01*
X14199689Y1082347D01*
X14035530Y1053402D01*
X13868873Y1056893D01*
X13706063Y1092689D01*
X13553316Y1159423D01*
X13416430Y1254561D01*
X13300635Y1374470D01*
X13210338Y1514583D01*
X13148973Y1669572D01*
X13118881Y1833533D01*
X13121209Y2000209D01*
X13155865Y2163256D01*
X13221535Y2316473D01*
X13315711Y2454014D01*
X13434811Y2570646D01*
X13574293Y2661921D01*
X13728849Y2724365D01*
X13892587Y2755600D01*
X14059280Y2754436D01*
X14059280Y2754436D01*
G37*
G36*
X16599279Y2754436D02*
X16762570Y2720917D01*
X16916236Y2656322D01*
X17054433Y2563108D01*
X17171893Y2444824D01*
X17264140Y2305982D01*
X17327661Y2151868D01*
X17359971Y1988691D01*
X17359971Y1988681D01*
X17360037Y1988347D01*
X17357378Y1797951D01*
X17357302Y1797617D01*
X17357302Y1797605D01*
X17320451Y1635401D01*
X17252649Y1483117D01*
X17156562Y1346905D01*
X17035843Y1231946D01*
X16895102Y1142630D01*
X16739688Y1082347D01*
X16575529Y1053402D01*
X16408872Y1056893D01*
X16246062Y1092689D01*
X16093315Y1159423D01*
X15956429Y1254561D01*
X15840634Y1374470D01*
X15750337Y1514583D01*
X15688972Y1669572D01*
X15658880Y1833533D01*
X15661208Y2000209D01*
X15695864Y2163256D01*
X15761534Y2316473D01*
X15855710Y2454014D01*
X15974810Y2570646D01*
X16114292Y2661921D01*
X16268848Y2724365D01*
X16432586Y2755600D01*
X16599279Y2754436D01*
X16599279Y2754436D01*
G37*
G36*
X19139279Y2754436D02*
X19302570Y2720917D01*
X19456236Y2656322D01*
X19594433Y2563108D01*
X19711893Y2444824D01*
X19804140Y2305982D01*
X19867661Y2151868D01*
X19899971Y1988691D01*
X19899971Y1988681D01*
X19900037Y1988347D01*
X19897378Y1797951D01*
X19897302Y1797617D01*
X19897302Y1797605D01*
X19860451Y1635401D01*
X19792649Y1483117D01*
X19696562Y1346905D01*
X19575843Y1231946D01*
X19435102Y1142630D01*
X19279688Y1082347D01*
X19115529Y1053402D01*
X18948872Y1056893D01*
X18786062Y1092689D01*
X18633315Y1159423D01*
X18496429Y1254561D01*
X18380634Y1374470D01*
X18290337Y1514583D01*
X18228972Y1669572D01*
X18198880Y1833533D01*
X18201208Y2000209D01*
X18235864Y2163256D01*
X18301534Y2316473D01*
X18395710Y2454014D01*
X18514810Y2570646D01*
X18654292Y2661921D01*
X18808848Y2724365D01*
X18972586Y2755600D01*
X19139279Y2754436D01*
X19139279Y2754436D01*
G37*
G36*
X2120000Y1055000D02*
X420000Y1055000D01*
X420000Y2755000D01*
X2120000Y2755000D01*
X2120000Y1055000D01*
X2120000Y1055000D01*
G37*
G36*
X15940327Y5139552D02*
X15940336Y5139549D01*
X15940377Y5139545D01*
X16005630Y5119346D01*
X16065718Y5086857D01*
X16118350Y5043316D01*
X16161522Y4990381D01*
X16193591Y4930069D01*
X16213334Y4864676D01*
X16220000Y4796694D01*
X16220000Y4793306D01*
X16219966Y4788419D01*
X16212352Y4720537D01*
X16191697Y4655426D01*
X16158790Y4595568D01*
X16114882Y4543241D01*
X16061647Y4500438D01*
X16040053Y4489149D01*
X16028769Y4481044D01*
X16020080Y4469978D01*
X16014819Y4456929D01*
X16013401Y4442931D01*
X16015940Y4429092D01*
X16022233Y4416508D01*
X16031783Y4406176D01*
X16039350Y4401114D01*
X16065718Y4386857D01*
X16118350Y4343316D01*
X16161522Y4290381D01*
X16193591Y4230069D01*
X16213334Y4164676D01*
X16220000Y4096694D01*
X16220000Y4093306D01*
X16219966Y4088419D01*
X16212352Y4020537D01*
X16191697Y3955426D01*
X16158790Y3895568D01*
X16114882Y3843241D01*
X16061647Y3800438D01*
X16001112Y3768792D01*
X15935583Y3749505D01*
X15935546Y3749502D01*
X15935537Y3749499D01*
X15867559Y3743313D01*
X15799673Y3750448D01*
X15799664Y3750451D01*
X15799623Y3750455D01*
X15734370Y3770654D01*
X15674282Y3803143D01*
X15621650Y3846684D01*
X15578478Y3899619D01*
X15546409Y3959931D01*
X15526666Y4025324D01*
X15520000Y4093306D01*
X15520000Y4096694D01*
X15520034Y4101581D01*
X15527648Y4169463D01*
X15548303Y4234574D01*
X15581210Y4294432D01*
X15625118Y4346759D01*
X15678353Y4389562D01*
X15699947Y4400851D01*
X15711231Y4408956D01*
X15719920Y4420022D01*
X15725181Y4433071D01*
X15726599Y4447069D01*
X15724060Y4460908D01*
X15717767Y4473492D01*
X15708217Y4483824D01*
X15700650Y4488886D01*
X15674282Y4503143D01*
X15621650Y4546684D01*
X15578478Y4599619D01*
X15546409Y4659931D01*
X15526666Y4725324D01*
X15520000Y4793306D01*
X15520000Y4796694D01*
X15520034Y4801581D01*
X15527648Y4869463D01*
X15548303Y4934574D01*
X15581210Y4994432D01*
X15625118Y5046759D01*
X15678353Y5089562D01*
X15738888Y5121208D01*
X15804417Y5140495D01*
X15804454Y5140498D01*
X15804463Y5140501D01*
X15872441Y5146687D01*
X15940327Y5139552D01*
X15940327Y5139552D01*
G37*
G36*
X22657740Y4378020D02*
X16712260Y4378020D01*
X16712260Y6076620D01*
X22657740Y6076620D01*
X22657740Y4378020D01*
X22657740Y4378020D01*
G37*
G36*
X26960500Y4408500D02*
X26125500Y4408500D01*
X26125500Y5751500D01*
X26960500Y5751500D01*
X26960500Y4408500D01*
X26960500Y4408500D01*
G37*
G36*
X28484500Y4408500D02*
X27649500Y4408500D01*
X27649500Y5751500D01*
X28484500Y5751500D01*
X28484500Y4408500D01*
X28484500Y4408500D01*
G37*
G36*
X38160000Y4950000D02*
X37060000Y4950000D01*
X37060000Y6150000D01*
X38160000Y6150000D01*
X38160000Y4950000D01*
X38160000Y4950000D01*
G37*
G36*
X34060000Y4950000D02*
X32960000Y4950000D01*
X32960000Y6150000D01*
X34060000Y6150000D01*
X34060000Y4950000D01*
X34060000Y4950000D01*
G37*
G36*
X11720500Y5043500D02*
X10885500Y5043500D01*
X10885500Y6386500D01*
X11720500Y6386500D01*
X11720500Y5043500D01*
X11720500Y5043500D01*
G37*
G36*
X13244500Y5043500D02*
X12409500Y5043500D01*
X12409500Y6386500D01*
X13244500Y6386500D01*
X13244500Y5043500D01*
X13244500Y5043500D01*
G37*
G36*
X32421500Y5170500D02*
X31078500Y5170500D01*
X31078500Y6005500D01*
X32421500Y6005500D01*
X32421500Y5170500D01*
X32421500Y5170500D01*
G37*
G36*
X35992769Y6709635D02*
X36098428Y6687946D01*
X36197858Y6646150D01*
X36287283Y6585833D01*
X36363282Y6509300D01*
X36422975Y6419457D01*
X36464074Y6319741D01*
X36484958Y6214274D01*
X36484958Y6214259D01*
X36485023Y6213930D01*
X36483303Y6090733D01*
X36483227Y6090399D01*
X36483227Y6090388D01*
X36459409Y5985553D01*
X36415538Y5887017D01*
X36353365Y5798880D01*
X36275250Y5724493D01*
X36184184Y5666700D01*
X36083622Y5627694D01*
X35977402Y5608966D01*
X35869565Y5611224D01*
X35764216Y5634387D01*
X35665381Y5677567D01*
X35576806Y5739128D01*
X35501881Y5816715D01*
X35443452Y5907378D01*
X35403746Y6007663D01*
X35384274Y6113757D01*
X35385781Y6221606D01*
X35408205Y6327107D01*
X35450698Y6426248D01*
X35511636Y6515245D01*
X35588701Y6590713D01*
X35678953Y6649773D01*
X35778960Y6690178D01*
X35884907Y6710389D01*
X35992769Y6709635D01*
X35992769Y6709635D01*
G37*
G36*
X2170000Y6050000D02*
X370000Y6050000D01*
X370000Y7550000D01*
X2170000Y7550000D01*
X2170000Y6050000D01*
X2170000Y6050000D01*
G37*
G36*
X28484500Y6059500D02*
X27649500Y6059500D01*
X27649500Y7402500D01*
X28484500Y7402500D01*
X28484500Y6059500D01*
X28484500Y6059500D01*
G37*
G36*
X26960500Y6059500D02*
X26125500Y6059500D01*
X26125500Y7402500D01*
X26960500Y7402500D01*
X26960500Y6059500D01*
X26960500Y6059500D01*
G37*
G36*
X4894250Y6475490D02*
X3645230Y6475490D01*
X3645230Y7724510D01*
X4894250Y7724510D01*
X4894250Y6475490D01*
X4894250Y6475490D01*
G37*
G36*
X45028790Y6510350D02*
X42728210Y6510350D01*
X42728210Y7459650D01*
X45028790Y7459650D01*
X45028790Y6510350D01*
X45028790Y6510350D01*
G37*
G36*
X41282290Y6510350D02*
X38981710Y6510350D01*
X38981710Y7459650D01*
X41282290Y7459650D01*
X41282290Y6510350D01*
X41282290Y6510350D01*
G37*
G36*
X34060000Y6550000D02*
X32960000Y6550000D01*
X32960000Y7750000D01*
X34060000Y7750000D01*
X34060000Y6550000D01*
X34060000Y6550000D01*
G37*
G36*
X38160000Y6550000D02*
X37060000Y6550000D01*
X37060000Y7750000D01*
X38160000Y7750000D01*
X38160000Y6550000D01*
X38160000Y6550000D01*
G37*
G36*
X24831980Y6552260D02*
X23133380Y6552260D01*
X23133380Y12497740D01*
X24831980Y12497740D01*
X24831980Y6552260D01*
X24831980Y6552260D01*
G37*
G36*
X16236620Y6552260D02*
X14538020Y6552260D01*
X14538020Y12497740D01*
X16236620Y12497740D01*
X16236620Y6552260D01*
X16236620Y6552260D01*
G37*
G36*
X32421500Y6694500D02*
X31078500Y6694500D01*
X31078500Y7529500D01*
X32421500Y7529500D01*
X32421500Y6694500D01*
X32421500Y6694500D01*
G37*
G36*
X11720500Y6948500D02*
X10885500Y6948500D01*
X10885500Y8291500D01*
X11720500Y8291500D01*
X11720500Y6948500D01*
X11720500Y6948500D01*
G37*
G36*
X8799500Y6948500D02*
X7964500Y6948500D01*
X7964500Y8291500D01*
X8799500Y8291500D01*
X8799500Y6948500D01*
X8799500Y6948500D01*
G37*
G36*
X7275500Y6948500D02*
X6440500Y6948500D01*
X6440500Y8291500D01*
X7275500Y8291500D01*
X7275500Y6948500D01*
X7275500Y6948500D01*
G37*
G36*
X13244500Y6948500D02*
X12409500Y6948500D01*
X12409500Y8291500D01*
X13244500Y8291500D01*
X13244500Y6948500D01*
X13244500Y6948500D01*
G37*
G36*
X41282290Y7780350D02*
X38981710Y7780350D01*
X38981710Y8729650D01*
X41282290Y8729650D01*
X41282290Y7780350D01*
X41282290Y7780350D01*
G37*
G36*
X45028790Y7780350D02*
X42728210Y7780350D01*
X42728210Y8729650D01*
X45028790Y8729650D01*
X45028790Y7780350D01*
X45028790Y7780350D01*
G37*
G36*
X4894220Y7925130D02*
X2944220Y7925130D01*
X2944220Y11124870D01*
X4894220Y11124870D01*
X4894220Y7925130D01*
X4894220Y7925130D01*
G37*
G36*
X2319960Y7974660D02*
X220040Y7974660D01*
X220040Y11075340D01*
X2319960Y11075340D01*
X2319960Y7974660D01*
X2319960Y7974660D01*
G37*
G36*
X34580500Y8726500D02*
X33745500Y8726500D01*
X33745500Y10069500D01*
X34580500Y10069500D01*
X34580500Y8726500D01*
X34580500Y8726500D01*
G37*
G36*
X36104500Y8726500D02*
X35269500Y8726500D01*
X35269500Y10069500D01*
X36104500Y10069500D01*
X36104500Y8726500D01*
X36104500Y8726500D01*
G37*
G36*
X8799500Y8853500D02*
X7964500Y8853500D01*
X7964500Y10196500D01*
X8799500Y10196500D01*
X8799500Y8853500D01*
X8799500Y8853500D01*
G37*
G36*
X7275500Y8853500D02*
X6440500Y8853500D01*
X6440500Y10196500D01*
X7275500Y10196500D01*
X7275500Y8853500D01*
X7275500Y8853500D01*
G37*
G36*
X31118480Y8899220D02*
X30120920Y8899220D01*
X30120920Y9896780D01*
X31118480Y9896780D01*
X31118480Y8899220D01*
X31118480Y8899220D01*
G37*
G36*
X32617080Y8899220D02*
X31619520Y8899220D01*
X31619520Y9896780D01*
X32617080Y9896780D01*
X32617080Y8899220D01*
X32617080Y8899220D01*
G37*
G36*
X45028790Y9050350D02*
X42728210Y9050350D01*
X42728210Y9999650D01*
X45028790Y9999650D01*
X45028790Y9050350D01*
X45028790Y9050350D01*
G37*
G36*
X41282290Y9050350D02*
X38981710Y9050350D01*
X38981710Y9999650D01*
X41282290Y9999650D01*
X41282290Y9050350D01*
X41282290Y9050350D01*
G37*
G36*
X45028790Y10320350D02*
X42728210Y10320350D01*
X42728210Y11269650D01*
X45028790Y11269650D01*
X45028790Y10320350D01*
X45028790Y10320350D01*
G37*
G36*
X41282290Y10320350D02*
X38981710Y10320350D01*
X38981710Y11269650D01*
X41282290Y11269650D01*
X41282290Y10320350D01*
X41282290Y10320350D01*
G37*
G36*
X8799500Y10758500D02*
X7964500Y10758500D01*
X7964500Y12101500D01*
X8799500Y12101500D01*
X8799500Y10758500D01*
X8799500Y10758500D01*
G37*
G36*
X7275500Y10758500D02*
X6440500Y10758500D01*
X6440500Y12101500D01*
X7275500Y12101500D01*
X7275500Y10758500D01*
X7275500Y10758500D01*
G37*
G36*
X38160000Y11300000D02*
X37060000Y11300000D01*
X37060000Y12500000D01*
X38160000Y12500000D01*
X38160000Y11300000D01*
X38160000Y11300000D01*
G37*
G36*
X34060000Y11300000D02*
X32960000Y11300000D01*
X32960000Y12500000D01*
X34060000Y12500000D01*
X34060000Y11300000D01*
X34060000Y11300000D01*
G37*
G36*
X4894250Y11325490D02*
X3645230Y11325490D01*
X3645230Y12574510D01*
X4894250Y12574510D01*
X4894250Y11325490D01*
X4894250Y11325490D01*
G37*
G36*
X2170000Y11500000D02*
X370000Y11500000D01*
X370000Y13000000D01*
X2170000Y13000000D01*
X2170000Y11500000D01*
X2170000Y11500000D01*
G37*
G36*
X32421500Y11520500D02*
X31078500Y11520500D01*
X31078500Y12355500D01*
X32421500Y12355500D01*
X32421500Y11520500D01*
X32421500Y11520500D01*
G37*
G36*
X41282290Y11590350D02*
X38981710Y11590350D01*
X38981710Y12539650D01*
X41282290Y12539650D01*
X41282290Y11590350D01*
X41282290Y11590350D01*
G37*
G36*
X45028790Y11590350D02*
X42728210Y11590350D01*
X42728210Y12539650D01*
X45028790Y12539650D01*
X45028790Y11590350D01*
X45028790Y11590350D01*
G37*
G36*
X8799500Y12663500D02*
X7964500Y12663500D01*
X7964500Y14006500D01*
X8799500Y14006500D01*
X8799500Y12663500D01*
X8799500Y12663500D01*
G37*
G36*
X7275500Y12663500D02*
X6440500Y12663500D01*
X6440500Y14006500D01*
X7275500Y14006500D01*
X7275500Y12663500D01*
X7275500Y12663500D01*
G37*
G36*
X34060000Y12900000D02*
X32960000Y12900000D01*
X32960000Y14100000D01*
X34060000Y14100000D01*
X34060000Y12900000D01*
X34060000Y12900000D01*
G37*
G36*
X38160000Y12900000D02*
X37060000Y12900000D01*
X37060000Y14100000D01*
X38160000Y14100000D01*
X38160000Y12900000D01*
X38160000Y12900000D01*
G37*
G36*
X34992769Y14009635D02*
X35098428Y13987946D01*
X35197858Y13946150D01*
X35287283Y13885833D01*
X35363282Y13809300D01*
X35422975Y13719457D01*
X35464074Y13619741D01*
X35484958Y13514274D01*
X35484958Y13514259D01*
X35485023Y13513930D01*
X35483303Y13390733D01*
X35483227Y13390399D01*
X35483227Y13390388D01*
X35459409Y13285553D01*
X35415538Y13187017D01*
X35353365Y13098880D01*
X35275250Y13024493D01*
X35184184Y12966700D01*
X35083622Y12927694D01*
X34977402Y12908966D01*
X34869565Y12911224D01*
X34764216Y12934387D01*
X34665381Y12977567D01*
X34576806Y13039128D01*
X34501881Y13116715D01*
X34443452Y13207378D01*
X34403746Y13307663D01*
X34384274Y13413757D01*
X34385781Y13521606D01*
X34408205Y13627107D01*
X34450698Y13726248D01*
X34511636Y13815245D01*
X34588701Y13890713D01*
X34678953Y13949773D01*
X34778960Y13990178D01*
X34884907Y14010389D01*
X34992769Y14009635D01*
X34992769Y14009635D01*
G37*
G36*
X22657740Y12973380D02*
X16712260Y12973380D01*
X16712260Y14671980D01*
X22657740Y14671980D01*
X22657740Y12973380D01*
X22657740Y12973380D01*
G37*
G36*
X32421500Y13044500D02*
X31078500Y13044500D01*
X31078500Y13879500D01*
X32421500Y13879500D01*
X32421500Y13044500D01*
X32421500Y13044500D01*
G37*
G36*
X12280000Y13755000D02*
X10580000Y13755000D01*
X10580000Y15455000D01*
X12280000Y15455000D01*
X12280000Y13755000D01*
X12280000Y13755000D01*
G37*
G36*
X44539279Y17994436D02*
X44702570Y17960917D01*
X44856236Y17896322D01*
X44994433Y17803108D01*
X45111893Y17684824D01*
X45204140Y17545982D01*
X45267661Y17391868D01*
X45299971Y17228691D01*
X45299971Y17228681D01*
X45300037Y17228347D01*
X45297378Y17037951D01*
X45297302Y17037617D01*
X45297302Y17037605D01*
X45260451Y16875401D01*
X45192649Y16723117D01*
X45096562Y16586905D01*
X44975843Y16471946D01*
X44835102Y16382630D01*
X44679688Y16322347D01*
X44515529Y16293402D01*
X44348872Y16296893D01*
X44186062Y16332689D01*
X44033315Y16399423D01*
X43896429Y16494561D01*
X43780634Y16614470D01*
X43690337Y16754583D01*
X43628972Y16909572D01*
X43598880Y17073533D01*
X43601208Y17240209D01*
X43635864Y17403256D01*
X43701534Y17556473D01*
X43795710Y17694014D01*
X43914810Y17810646D01*
X44054292Y17901921D01*
X44208848Y17964365D01*
X44372586Y17995600D01*
X44539279Y17994436D01*
X44539279Y17994436D01*
G37*
G36*
X24219279Y17994436D02*
X24382570Y17960917D01*
X24536236Y17896322D01*
X24674433Y17803108D01*
X24791893Y17684824D01*
X24884140Y17545982D01*
X24947661Y17391868D01*
X24979971Y17228691D01*
X24979971Y17228681D01*
X24980037Y17228347D01*
X24977378Y17037951D01*
X24977302Y17037617D01*
X24977302Y17037605D01*
X24940451Y16875401D01*
X24872649Y16723117D01*
X24776562Y16586905D01*
X24655843Y16471946D01*
X24515102Y16382630D01*
X24359688Y16322347D01*
X24195529Y16293402D01*
X24028872Y16296893D01*
X23866062Y16332689D01*
X23713315Y16399423D01*
X23576429Y16494561D01*
X23460634Y16614470D01*
X23370337Y16754583D01*
X23308972Y16909572D01*
X23278880Y17073533D01*
X23281208Y17240209D01*
X23315864Y17403256D01*
X23381534Y17556473D01*
X23475710Y17694014D01*
X23594810Y17810646D01*
X23734292Y17901921D01*
X23888848Y17964365D01*
X24052586Y17995600D01*
X24219279Y17994436D01*
X24219279Y17994436D01*
G37*
G36*
X11519279Y17994436D02*
X11682570Y17960917D01*
X11836236Y17896322D01*
X11974433Y17803108D01*
X12091893Y17684824D01*
X12184140Y17545982D01*
X12247661Y17391868D01*
X12279971Y17228691D01*
X12279971Y17228681D01*
X12280037Y17228347D01*
X12277378Y17037951D01*
X12277302Y17037617D01*
X12277302Y17037605D01*
X12240451Y16875401D01*
X12172649Y16723117D01*
X12076562Y16586905D01*
X11955843Y16471946D01*
X11815102Y16382630D01*
X11659688Y16322347D01*
X11495529Y16293402D01*
X11328872Y16296893D01*
X11166062Y16332689D01*
X11013315Y16399423D01*
X10876429Y16494561D01*
X10760634Y16614470D01*
X10670337Y16754583D01*
X10608972Y16909572D01*
X10578880Y17073533D01*
X10581208Y17240209D01*
X10615864Y17403256D01*
X10681534Y17556473D01*
X10775710Y17694014D01*
X10894810Y17810646D01*
X11034292Y17901921D01*
X11188848Y17964365D01*
X11352586Y17995600D01*
X11519279Y17994436D01*
X11519279Y17994436D01*
G37*
G36*
X39459279Y17994436D02*
X39622570Y17960917D01*
X39776236Y17896322D01*
X39914433Y17803108D01*
X40031893Y17684824D01*
X40124140Y17545982D01*
X40187661Y17391868D01*
X40219971Y17228691D01*
X40219971Y17228681D01*
X40220037Y17228347D01*
X40217378Y17037951D01*
X40217302Y17037617D01*
X40217302Y17037605D01*
X40180451Y16875401D01*
X40112649Y16723117D01*
X40016562Y16586905D01*
X39895843Y16471946D01*
X39755102Y16382630D01*
X39599688Y16322347D01*
X39435529Y16293402D01*
X39268872Y16296893D01*
X39106062Y16332689D01*
X38953315Y16399423D01*
X38816429Y16494561D01*
X38700634Y16614470D01*
X38610337Y16754583D01*
X38548972Y16909572D01*
X38518880Y17073533D01*
X38521208Y17240209D01*
X38555864Y17403256D01*
X38621534Y17556473D01*
X38715710Y17694014D01*
X38834810Y17810646D01*
X38974292Y17901921D01*
X39128848Y17964365D01*
X39292586Y17995600D01*
X39459279Y17994436D01*
X39459279Y17994436D01*
G37*
G36*
X36919279Y17994436D02*
X37082570Y17960917D01*
X37236236Y17896322D01*
X37374433Y17803108D01*
X37491893Y17684824D01*
X37584140Y17545982D01*
X37647661Y17391868D01*
X37679971Y17228691D01*
X37679971Y17228681D01*
X37680037Y17228347D01*
X37677378Y17037951D01*
X37677302Y17037617D01*
X37677302Y17037605D01*
X37640451Y16875401D01*
X37572649Y16723117D01*
X37476562Y16586905D01*
X37355843Y16471946D01*
X37215102Y16382630D01*
X37059688Y16322347D01*
X36895529Y16293402D01*
X36728872Y16296893D01*
X36566062Y16332689D01*
X36413315Y16399423D01*
X36276429Y16494561D01*
X36160634Y16614470D01*
X36070337Y16754583D01*
X36008972Y16909572D01*
X35978880Y17073533D01*
X35981208Y17240209D01*
X36015864Y17403256D01*
X36081534Y17556473D01*
X36175710Y17694014D01*
X36294810Y17810646D01*
X36434292Y17901921D01*
X36588848Y17964365D01*
X36752586Y17995600D01*
X36919279Y17994436D01*
X36919279Y17994436D01*
G37*
G36*
X34379279Y17994436D02*
X34542570Y17960917D01*
X34696236Y17896322D01*
X34834433Y17803108D01*
X34951893Y17684824D01*
X35044140Y17545982D01*
X35107661Y17391868D01*
X35139971Y17228691D01*
X35139971Y17228681D01*
X35140037Y17228347D01*
X35137378Y17037951D01*
X35137302Y17037617D01*
X35137302Y17037605D01*
X35100451Y16875401D01*
X35032649Y16723117D01*
X34936562Y16586905D01*
X34815843Y16471946D01*
X34675102Y16382630D01*
X34519688Y16322347D01*
X34355529Y16293402D01*
X34188872Y16296893D01*
X34026062Y16332689D01*
X33873315Y16399423D01*
X33736429Y16494561D01*
X33620634Y16614470D01*
X33530337Y16754583D01*
X33468972Y16909572D01*
X33438880Y17073533D01*
X33441208Y17240209D01*
X33475864Y17403256D01*
X33541534Y17556473D01*
X33635710Y17694014D01*
X33754810Y17810646D01*
X33894292Y17901921D01*
X34048848Y17964365D01*
X34212586Y17995600D01*
X34379279Y17994436D01*
X34379279Y17994436D01*
G37*
G36*
X31839278Y17994436D02*
X32002569Y17960917D01*
X32156235Y17896322D01*
X32294432Y17803108D01*
X32411892Y17684824D01*
X32504139Y17545982D01*
X32567660Y17391868D01*
X32599970Y17228691D01*
X32599970Y17228681D01*
X32600036Y17228347D01*
X32597377Y17037951D01*
X32597301Y17037617D01*
X32597301Y17037605D01*
X32560450Y16875401D01*
X32492648Y16723117D01*
X32396561Y16586905D01*
X32275842Y16471946D01*
X32135101Y16382630D01*
X31979687Y16322347D01*
X31815528Y16293402D01*
X31648871Y16296893D01*
X31486061Y16332689D01*
X31333314Y16399423D01*
X31196428Y16494561D01*
X31080633Y16614470D01*
X30990336Y16754583D01*
X30928971Y16909572D01*
X30898879Y17073533D01*
X30901207Y17240209D01*
X30935863Y17403256D01*
X31001533Y17556473D01*
X31095709Y17694014D01*
X31214809Y17810646D01*
X31354291Y17901921D01*
X31508847Y17964365D01*
X31672585Y17995600D01*
X31839278Y17994436D01*
X31839278Y17994436D01*
G37*
G36*
X29299279Y17994436D02*
X29462570Y17960917D01*
X29616236Y17896322D01*
X29754433Y17803108D01*
X29871893Y17684824D01*
X29964140Y17545982D01*
X30027661Y17391868D01*
X30059971Y17228691D01*
X30059971Y17228681D01*
X30060037Y17228347D01*
X30057378Y17037951D01*
X30057302Y17037617D01*
X30057302Y17037605D01*
X30020451Y16875401D01*
X29952649Y16723117D01*
X29856562Y16586905D01*
X29735843Y16471946D01*
X29595102Y16382630D01*
X29439688Y16322347D01*
X29275529Y16293402D01*
X29108872Y16296893D01*
X28946062Y16332689D01*
X28793315Y16399423D01*
X28656429Y16494561D01*
X28540634Y16614470D01*
X28450337Y16754583D01*
X28388972Y16909572D01*
X28358880Y17073533D01*
X28361208Y17240209D01*
X28395864Y17403256D01*
X28461534Y17556473D01*
X28555710Y17694014D01*
X28674810Y17810646D01*
X28814292Y17901921D01*
X28968848Y17964365D01*
X29132586Y17995600D01*
X29299279Y17994436D01*
X29299279Y17994436D01*
G37*
G36*
X26759279Y17994436D02*
X26922570Y17960917D01*
X27076236Y17896322D01*
X27214433Y17803108D01*
X27331893Y17684824D01*
X27424140Y17545982D01*
X27487661Y17391868D01*
X27519971Y17228691D01*
X27519971Y17228681D01*
X27520037Y17228347D01*
X27517378Y17037951D01*
X27517302Y17037617D01*
X27517302Y17037605D01*
X27480451Y16875401D01*
X27412649Y16723117D01*
X27316562Y16586905D01*
X27195843Y16471946D01*
X27055102Y16382630D01*
X26899688Y16322347D01*
X26735529Y16293402D01*
X26568872Y16296893D01*
X26406062Y16332689D01*
X26253315Y16399423D01*
X26116429Y16494561D01*
X26000634Y16614470D01*
X25910337Y16754583D01*
X25848972Y16909572D01*
X25818880Y17073533D01*
X25821208Y17240209D01*
X25855864Y17403256D01*
X25921534Y17556473D01*
X26015710Y17694014D01*
X26134810Y17810646D01*
X26274292Y17901921D01*
X26428848Y17964365D01*
X26592586Y17995600D01*
X26759279Y17994436D01*
X26759279Y17994436D01*
G37*
G36*
X8979279Y17994436D02*
X9142570Y17960917D01*
X9296236Y17896322D01*
X9434433Y17803108D01*
X9551893Y17684824D01*
X9644140Y17545982D01*
X9707661Y17391868D01*
X9739971Y17228691D01*
X9739971Y17228681D01*
X9740037Y17228347D01*
X9737378Y17037951D01*
X9737302Y17037617D01*
X9737302Y17037605D01*
X9700451Y16875401D01*
X9632649Y16723117D01*
X9536562Y16586905D01*
X9415843Y16471946D01*
X9275102Y16382630D01*
X9119688Y16322347D01*
X8955529Y16293402D01*
X8788872Y16296893D01*
X8626062Y16332689D01*
X8473315Y16399423D01*
X8336429Y16494561D01*
X8220634Y16614470D01*
X8130337Y16754583D01*
X8068972Y16909572D01*
X8038880Y17073533D01*
X8041208Y17240209D01*
X8075864Y17403256D01*
X8141534Y17556473D01*
X8235710Y17694014D01*
X8354810Y17810646D01*
X8494292Y17901921D01*
X8648848Y17964365D01*
X8812586Y17995600D01*
X8979279Y17994436D01*
X8979279Y17994436D01*
G37*
G36*
X41999279Y17994436D02*
X42162570Y17960917D01*
X42316236Y17896322D01*
X42454433Y17803108D01*
X42571893Y17684824D01*
X42664140Y17545982D01*
X42727661Y17391868D01*
X42759971Y17228691D01*
X42759971Y17228681D01*
X42760037Y17228347D01*
X42757378Y17037951D01*
X42757302Y17037617D01*
X42757302Y17037605D01*
X42720451Y16875401D01*
X42652649Y16723117D01*
X42556562Y16586905D01*
X42435843Y16471946D01*
X42295102Y16382630D01*
X42139688Y16322347D01*
X41975529Y16293402D01*
X41808872Y16296893D01*
X41646062Y16332689D01*
X41493315Y16399423D01*
X41356429Y16494561D01*
X41240634Y16614470D01*
X41150337Y16754583D01*
X41088972Y16909572D01*
X41058880Y17073533D01*
X41061208Y17240209D01*
X41095864Y17403256D01*
X41161534Y17556473D01*
X41255710Y17694014D01*
X41374810Y17810646D01*
X41514292Y17901921D01*
X41668848Y17964365D01*
X41832586Y17995600D01*
X41999279Y17994436D01*
X41999279Y17994436D01*
G37*
G36*
X19139279Y17994436D02*
X19302570Y17960917D01*
X19456236Y17896322D01*
X19594433Y17803108D01*
X19711893Y17684824D01*
X19804140Y17545982D01*
X19867661Y17391868D01*
X19899971Y17228691D01*
X19899971Y17228681D01*
X19900037Y17228347D01*
X19897378Y17037951D01*
X19897302Y17037617D01*
X19897302Y17037605D01*
X19860451Y16875401D01*
X19792649Y16723117D01*
X19696562Y16586905D01*
X19575843Y16471946D01*
X19435102Y16382630D01*
X19279688Y16322347D01*
X19115529Y16293402D01*
X18948872Y16296893D01*
X18786062Y16332689D01*
X18633315Y16399423D01*
X18496429Y16494561D01*
X18380634Y16614470D01*
X18290337Y16754583D01*
X18228972Y16909572D01*
X18198880Y17073533D01*
X18201208Y17240209D01*
X18235864Y17403256D01*
X18301534Y17556473D01*
X18395710Y17694014D01*
X18514810Y17810646D01*
X18654292Y17901921D01*
X18808848Y17964365D01*
X18972586Y17995600D01*
X19139279Y17994436D01*
X19139279Y17994436D01*
G37*
G36*
X16599279Y17994436D02*
X16762570Y17960917D01*
X16916236Y17896322D01*
X17054433Y17803108D01*
X17171893Y17684824D01*
X17264140Y17545982D01*
X17327661Y17391868D01*
X17359971Y17228691D01*
X17359971Y17228681D01*
X17360037Y17228347D01*
X17357378Y17037951D01*
X17357302Y17037617D01*
X17357302Y17037605D01*
X17320451Y16875401D01*
X17252649Y16723117D01*
X17156562Y16586905D01*
X17035843Y16471946D01*
X16895102Y16382630D01*
X16739688Y16322347D01*
X16575529Y16293402D01*
X16408872Y16296893D01*
X16246062Y16332689D01*
X16093315Y16399423D01*
X15956429Y16494561D01*
X15840634Y16614470D01*
X15750337Y16754583D01*
X15688972Y16909572D01*
X15658880Y17073533D01*
X15661208Y17240209D01*
X15695864Y17403256D01*
X15761534Y17556473D01*
X15855710Y17694014D01*
X15974810Y17810646D01*
X16114292Y17901921D01*
X16268848Y17964365D01*
X16432586Y17995600D01*
X16599279Y17994436D01*
X16599279Y17994436D01*
G37*
G36*
X14059280Y17994436D02*
X14222571Y17960917D01*
X14376237Y17896322D01*
X14514434Y17803108D01*
X14631894Y17684824D01*
X14724141Y17545982D01*
X14787662Y17391868D01*
X14819972Y17228691D01*
X14819972Y17228681D01*
X14820038Y17228347D01*
X14817379Y17037951D01*
X14817303Y17037617D01*
X14817303Y17037605D01*
X14780452Y16875401D01*
X14712650Y16723117D01*
X14616563Y16586905D01*
X14495844Y16471946D01*
X14355103Y16382630D01*
X14199689Y16322347D01*
X14035530Y16293402D01*
X13868873Y16296893D01*
X13706063Y16332689D01*
X13553316Y16399423D01*
X13416430Y16494561D01*
X13300635Y16614470D01*
X13210338Y16754583D01*
X13148973Y16909572D01*
X13118881Y17073533D01*
X13121209Y17240209D01*
X13155865Y17403256D01*
X13221535Y17556473D01*
X13315711Y17694014D01*
X13434811Y17810646D01*
X13574293Y17901921D01*
X13728849Y17964365D01*
X13892587Y17995600D01*
X14059280Y17994436D01*
X14059280Y17994436D01*
G37*
G36*
X3899279Y17994436D02*
X4062570Y17960917D01*
X4216236Y17896322D01*
X4354433Y17803108D01*
X4471893Y17684824D01*
X4564140Y17545982D01*
X4627661Y17391868D01*
X4659971Y17228691D01*
X4659971Y17228681D01*
X4660037Y17228347D01*
X4657378Y17037951D01*
X4657302Y17037617D01*
X4657302Y17037605D01*
X4620451Y16875401D01*
X4552649Y16723117D01*
X4456562Y16586905D01*
X4335843Y16471946D01*
X4195102Y16382630D01*
X4039688Y16322347D01*
X3875529Y16293402D01*
X3708872Y16296893D01*
X3546062Y16332689D01*
X3393315Y16399423D01*
X3256429Y16494561D01*
X3140634Y16614470D01*
X3050337Y16754583D01*
X2988972Y16909572D01*
X2958880Y17073533D01*
X2961208Y17240209D01*
X2995864Y17403256D01*
X3061534Y17556473D01*
X3155710Y17694014D01*
X3274810Y17810646D01*
X3414292Y17901921D01*
X3568848Y17964365D01*
X3732586Y17995600D01*
X3899279Y17994436D01*
X3899279Y17994436D01*
G37*
G36*
X6439279Y17994436D02*
X6602570Y17960917D01*
X6756236Y17896322D01*
X6894433Y17803108D01*
X7011893Y17684824D01*
X7104140Y17545982D01*
X7167661Y17391868D01*
X7199971Y17228691D01*
X7199971Y17228681D01*
X7200037Y17228347D01*
X7197378Y17037951D01*
X7197302Y17037617D01*
X7197302Y17037605D01*
X7160451Y16875401D01*
X7092649Y16723117D01*
X6996562Y16586905D01*
X6875843Y16471946D01*
X6735102Y16382630D01*
X6579688Y16322347D01*
X6415529Y16293402D01*
X6248872Y16296893D01*
X6086062Y16332689D01*
X5933315Y16399423D01*
X5796429Y16494561D01*
X5680634Y16614470D01*
X5590337Y16754583D01*
X5528972Y16909572D01*
X5498880Y17073533D01*
X5501208Y17240209D01*
X5535864Y17403256D01*
X5601534Y17556473D01*
X5695710Y17694014D01*
X5814810Y17810646D01*
X5954292Y17901921D01*
X6108848Y17964365D01*
X6272586Y17995600D01*
X6439279Y17994436D01*
X6439279Y17994436D01*
G37*
G36*
X21679279Y17994436D02*
X21842570Y17960917D01*
X21996236Y17896322D01*
X22134433Y17803108D01*
X22251893Y17684824D01*
X22344140Y17545982D01*
X22407661Y17391868D01*
X22439971Y17228691D01*
X22439971Y17228681D01*
X22440037Y17228347D01*
X22437378Y17037951D01*
X22437302Y17037617D01*
X22437302Y17037605D01*
X22400451Y16875401D01*
X22332649Y16723117D01*
X22236562Y16586905D01*
X22115843Y16471946D01*
X21975102Y16382630D01*
X21819688Y16322347D01*
X21655529Y16293402D01*
X21488872Y16296893D01*
X21326062Y16332689D01*
X21173315Y16399423D01*
X21036429Y16494561D01*
X20920634Y16614470D01*
X20830337Y16754583D01*
X20768972Y16909572D01*
X20738880Y17073533D01*
X20741208Y17240209D01*
X20775864Y17403256D01*
X20841534Y17556473D01*
X20935710Y17694014D01*
X21054810Y17810646D01*
X21194292Y17901921D01*
X21348848Y17964365D01*
X21512586Y17995600D01*
X21679279Y17994436D01*
X21679279Y17994436D01*
G37*
G36*
X2120000Y16295000D02*
X420000Y16295000D01*
X420000Y17995000D01*
X2120000Y17995000D01*
X2120000Y16295000D01*
X2120000Y16295000D01*
G37*
M02*
