G04 #@! TF.FileFunction,Legend,Top*
%FSLAX46Y46*%
G04 Gerber Fmt 4.6, Leading zero omitted, Abs format (unit mm)*
G04 Created by KiCad (PCBNEW 4.0.0-stable) date 03/01/2016 13:37:16*
%MOMM*%
G01*
G04 APERTURE LIST*
%ADD10C,0.150000*%
%ADD11C,0.149860*%
%ADD12C,0.101600*%
%ADD13C,0.203200*%
%ADD14C,0.198120*%
%ADD15C,0.190500*%
%ADD16C,0.127000*%
%ADD17C,0.152400*%
G04 APERTURE END LIST*
D10*
D11*
X13020001Y4193333D02*
X13253334Y3493333D01*
X13486667Y4193333D01*
X14120001Y3493333D02*
X13886667Y3826667D01*
X13720001Y3493333D02*
X13720001Y4193333D01*
X13986667Y4193333D01*
X14053334Y4160000D01*
X14086667Y4126667D01*
X14120001Y4060000D01*
X14120001Y3960000D01*
X14086667Y3893333D01*
X14053334Y3860000D01*
X13986667Y3826667D01*
X13720001Y3826667D01*
X14420001Y3493333D02*
X14420001Y4193333D01*
X14420001Y3860000D02*
X14820001Y3860000D01*
X14820001Y3493333D02*
X14820001Y4193333D01*
X7442495Y1905000D02*
G75*
G03X7442495Y1905000I-1092495J0D01*
G01*
X-13333Y15623333D02*
X220000Y14923333D01*
X453333Y15623333D01*
X920000Y15290000D02*
X1020000Y15256667D01*
X1053333Y15223333D01*
X1086667Y15156667D01*
X1086667Y15056667D01*
X1053333Y14990000D01*
X1020000Y14956667D01*
X953333Y14923333D01*
X686667Y14923333D01*
X686667Y15623333D01*
X920000Y15623333D01*
X986667Y15590000D01*
X1020000Y15556667D01*
X1053333Y15490000D01*
X1053333Y15423333D01*
X1020000Y15356667D01*
X986667Y15323333D01*
X920000Y15290000D01*
X686667Y15290000D01*
X1386667Y15623333D02*
X1386667Y15056667D01*
X1420000Y14990000D01*
X1453333Y14956667D01*
X1520000Y14923333D01*
X1653333Y14923333D01*
X1720000Y14956667D01*
X1753333Y14990000D01*
X1786667Y15056667D01*
X1786667Y15623333D01*
X2086666Y14956667D02*
X2186666Y14923333D01*
X2353333Y14923333D01*
X2420000Y14956667D01*
X2453333Y14990000D01*
X2486666Y15056667D01*
X2486666Y15123333D01*
X2453333Y15190000D01*
X2420000Y15223333D01*
X2353333Y15256667D01*
X2220000Y15290000D01*
X2153333Y15323333D01*
X2120000Y15356667D01*
X2086666Y15423333D01*
X2086666Y15490000D01*
X2120000Y15556667D01*
X2153333Y15590000D01*
X2220000Y15623333D01*
X2386666Y15623333D01*
X2486666Y15590000D01*
X8290000Y3693333D02*
X8623334Y3693333D01*
X8223334Y3493333D02*
X8456667Y4193333D01*
X8690000Y3493333D01*
X8923334Y3760000D02*
X9456667Y3760000D01*
X9190000Y3493333D02*
X9190000Y4026667D01*
X4902495Y1905000D02*
G75*
G03X4902495Y1905000I-1092495J0D01*
G01*
X254000Y889000D02*
X254000Y2921000D01*
X2286000Y889000D02*
X254000Y889000D01*
X2286000Y2921000D02*
X2286000Y889000D01*
X254000Y2921000D02*
X2286000Y2921000D01*
X2491843Y17145000D02*
G75*
G03X2491843Y17145000I-1221843J0D01*
G01*
X3043334Y4193333D02*
X3276667Y3493333D01*
X3510000Y4193333D01*
X3743334Y3493333D02*
X3743334Y4193333D01*
X4076667Y3493333D02*
X4076667Y4193333D01*
X4476667Y3493333D01*
X4476667Y4193333D01*
D12*
X635000Y0D02*
X45085000Y0D01*
X635000Y19050000D02*
X45085000Y19050000D01*
X45720000Y635000D02*
X45085000Y0D01*
X45720000Y18415000D02*
X45720000Y635000D01*
X45085000Y19050000D02*
X45720000Y18415000D01*
X0Y18415000D02*
X635000Y19050000D01*
X0Y635000D02*
X0Y18415000D01*
X635000Y0D02*
X0Y635000D01*
D11*
X44066667Y3493333D02*
X43833333Y3826667D01*
X43666667Y3493333D02*
X43666667Y4193333D01*
X43933333Y4193333D01*
X44000000Y4160000D01*
X44033333Y4126667D01*
X44066667Y4060000D01*
X44066667Y3960000D01*
X44033333Y3893333D01*
X44000000Y3860000D01*
X43933333Y3826667D01*
X43666667Y3826667D01*
X44333333Y3526667D02*
X44433333Y3493333D01*
X44600000Y3493333D01*
X44666667Y3526667D01*
X44700000Y3560000D01*
X44733333Y3626667D01*
X44733333Y3693333D01*
X44700000Y3760000D01*
X44666667Y3793333D01*
X44600000Y3826667D01*
X44466667Y3860000D01*
X44400000Y3893333D01*
X44366667Y3926667D01*
X44333333Y3993333D01*
X44333333Y4060000D01*
X44366667Y4126667D01*
X44400000Y4160000D01*
X44466667Y4193333D01*
X44633333Y4193333D01*
X44733333Y4160000D01*
X44933334Y4193333D02*
X45333334Y4193333D01*
X45133334Y3493333D02*
X45133334Y4193333D01*
X5200001Y4193333D02*
X5433334Y3493333D01*
X5666667Y4193333D01*
X6133334Y3860000D02*
X6233334Y3826667D01*
X6266667Y3793333D01*
X6300001Y3726667D01*
X6300001Y3626667D01*
X6266667Y3560000D01*
X6233334Y3526667D01*
X6166667Y3493333D01*
X5900001Y3493333D01*
X5900001Y4193333D01*
X6133334Y4193333D01*
X6200001Y4160000D01*
X6233334Y4126667D01*
X6266667Y4060000D01*
X6266667Y3993333D01*
X6233334Y3926667D01*
X6200001Y3893333D01*
X6133334Y3860000D01*
X5900001Y3860000D01*
X6566667Y3693333D02*
X6900001Y3693333D01*
X6500001Y3493333D02*
X6733334Y4193333D01*
X6966667Y3493333D01*
X7100001Y4193333D02*
X7500001Y4193333D01*
X7300001Y3493333D02*
X7300001Y4193333D01*
X16010000Y3693333D02*
X16343334Y3693333D01*
X15943334Y3493333D02*
X16176667Y4193333D01*
X16410000Y3493333D01*
X16776667Y4193333D02*
X16843334Y4193333D01*
X16910000Y4160000D01*
X16943334Y4126667D01*
X16976667Y4060000D01*
X17010000Y3926667D01*
X17010000Y3760000D01*
X16976667Y3626667D01*
X16943334Y3560000D01*
X16910000Y3526667D01*
X16843334Y3493333D01*
X16776667Y3493333D01*
X16710000Y3526667D01*
X16676667Y3560000D01*
X16643334Y3626667D01*
X16610000Y3760000D01*
X16610000Y3926667D01*
X16643334Y4060000D01*
X16676667Y4126667D01*
X16710000Y4160000D01*
X16776667Y4193333D01*
X23630000Y3693333D02*
X23963334Y3693333D01*
X23563334Y3493333D02*
X23796667Y4193333D01*
X24030000Y3493333D01*
X24196667Y4193333D02*
X24630000Y4193333D01*
X24396667Y3926667D01*
X24496667Y3926667D01*
X24563334Y3893333D01*
X24596667Y3860000D01*
X24630000Y3793333D01*
X24630000Y3626667D01*
X24596667Y3560000D01*
X24563334Y3526667D01*
X24496667Y3493333D01*
X24296667Y3493333D01*
X24230000Y3526667D01*
X24196667Y3560000D01*
X736667Y4160000D02*
X670001Y4193333D01*
X570001Y4193333D01*
X470001Y4160000D01*
X403334Y4093333D01*
X370001Y4026667D01*
X336667Y3893333D01*
X336667Y3793333D01*
X370001Y3660000D01*
X403334Y3593333D01*
X470001Y3526667D01*
X570001Y3493333D01*
X636667Y3493333D01*
X736667Y3526667D01*
X770001Y3560000D01*
X770001Y3793333D01*
X636667Y3793333D01*
X1070001Y3493333D02*
X1070001Y4193333D01*
X1470001Y3493333D01*
X1470001Y4193333D01*
X1803334Y3493333D02*
X1803334Y4193333D01*
X1970000Y4193333D01*
X2070000Y4160000D01*
X2136667Y4093333D01*
X2170000Y4026667D01*
X2203334Y3893333D01*
X2203334Y3793333D01*
X2170000Y3660000D01*
X2136667Y3593333D01*
X2070000Y3526667D01*
X1970000Y3493333D01*
X1803334Y3493333D01*
X43416667Y15623333D02*
X43850000Y15623333D01*
X43616667Y15356667D01*
X43716667Y15356667D01*
X43783334Y15323333D01*
X43816667Y15290000D01*
X43850000Y15223333D01*
X43850000Y15056667D01*
X43816667Y14990000D01*
X43783334Y14956667D01*
X43716667Y14923333D01*
X43516667Y14923333D01*
X43450000Y14956667D01*
X43416667Y14990000D01*
X44150001Y14990000D02*
X44183334Y14956667D01*
X44150001Y14923333D01*
X44116667Y14956667D01*
X44150001Y14990000D01*
X44150001Y14923333D01*
X44416667Y15623333D02*
X44850000Y15623333D01*
X44616667Y15356667D01*
X44716667Y15356667D01*
X44783334Y15323333D01*
X44816667Y15290000D01*
X44850000Y15223333D01*
X44850000Y15056667D01*
X44816667Y14990000D01*
X44783334Y14956667D01*
X44716667Y14923333D01*
X44516667Y14923333D01*
X44450000Y14956667D01*
X44416667Y14990000D01*
X45050001Y15623333D02*
X45283334Y14923333D01*
X45516667Y15623333D01*
X34006667Y3860000D02*
X34106667Y3826667D01*
X34140000Y3793333D01*
X34173334Y3726667D01*
X34173334Y3626667D01*
X34140000Y3560000D01*
X34106667Y3526667D01*
X34040000Y3493333D01*
X33773334Y3493333D01*
X33773334Y4193333D01*
X34006667Y4193333D01*
X34073334Y4160000D01*
X34106667Y4126667D01*
X34140000Y4060000D01*
X34140000Y3993333D01*
X34106667Y3926667D01*
X34073334Y3893333D01*
X34006667Y3860000D01*
X33773334Y3860000D01*
X34440000Y4126667D02*
X34473334Y4160000D01*
X34540000Y4193333D01*
X34706667Y4193333D01*
X34773334Y4160000D01*
X34806667Y4126667D01*
X34840000Y4060000D01*
X34840000Y3993333D01*
X34806667Y3893333D01*
X34406667Y3493333D01*
X34840000Y3493333D01*
X10830000Y3693333D02*
X11163334Y3693333D01*
X10763334Y3493333D02*
X10996667Y4193333D01*
X11230000Y3493333D01*
X11463334Y3760000D02*
X11996667Y3760000D01*
X39253334Y14990000D02*
X39220000Y14956667D01*
X39120000Y14923333D01*
X39053334Y14923333D01*
X38953334Y14956667D01*
X38886667Y15023333D01*
X38853334Y15090000D01*
X38820000Y15223333D01*
X38820000Y15323333D01*
X38853334Y15456667D01*
X38886667Y15523333D01*
X38953334Y15590000D01*
X39053334Y15623333D01*
X39120000Y15623333D01*
X39220000Y15590000D01*
X39253334Y15556667D01*
X39920000Y14923333D02*
X39520000Y14923333D01*
X39720000Y14923333D02*
X39720000Y15623333D01*
X39653334Y15523333D01*
X39586667Y15456667D01*
X39520000Y15423333D01*
X41293333Y3860000D02*
X41393333Y3826667D01*
X41426666Y3793333D01*
X41460000Y3726667D01*
X41460000Y3626667D01*
X41426666Y3560000D01*
X41393333Y3526667D01*
X41326666Y3493333D01*
X41060000Y3493333D01*
X41060000Y4193333D01*
X41293333Y4193333D01*
X41360000Y4160000D01*
X41393333Y4126667D01*
X41426666Y4060000D01*
X41426666Y3993333D01*
X41393333Y3926667D01*
X41360000Y3893333D01*
X41293333Y3860000D01*
X41060000Y3860000D01*
X42126666Y3493333D02*
X41726666Y3493333D01*
X41926666Y3493333D02*
X41926666Y4193333D01*
X41860000Y4093333D01*
X41793333Y4026667D01*
X41726666Y3993333D01*
X42360000Y4193333D02*
X42826667Y4193333D01*
X42526667Y3493333D01*
X36713334Y14990000D02*
X36680000Y14956667D01*
X36580000Y14923333D01*
X36513334Y14923333D01*
X36413334Y14956667D01*
X36346667Y15023333D01*
X36313334Y15090000D01*
X36280000Y15223333D01*
X36280000Y15323333D01*
X36313334Y15456667D01*
X36346667Y15523333D01*
X36413334Y15590000D01*
X36513334Y15623333D01*
X36580000Y15623333D01*
X36680000Y15590000D01*
X36713334Y15556667D01*
X36980000Y15556667D02*
X37013334Y15590000D01*
X37080000Y15623333D01*
X37246667Y15623333D01*
X37313334Y15590000D01*
X37346667Y15556667D01*
X37380000Y15490000D01*
X37380000Y15423333D01*
X37346667Y15323333D01*
X36946667Y14923333D01*
X37380000Y14923333D01*
X34173334Y14990000D02*
X34140000Y14956667D01*
X34040000Y14923333D01*
X33973334Y14923333D01*
X33873334Y14956667D01*
X33806667Y15023333D01*
X33773334Y15090000D01*
X33740000Y15223333D01*
X33740000Y15323333D01*
X33773334Y15456667D01*
X33806667Y15523333D01*
X33873334Y15590000D01*
X33973334Y15623333D01*
X34040000Y15623333D01*
X34140000Y15590000D01*
X34173334Y15556667D01*
X34406667Y15623333D02*
X34840000Y15623333D01*
X34606667Y15356667D01*
X34706667Y15356667D01*
X34773334Y15323333D01*
X34806667Y15290000D01*
X34840000Y15223333D01*
X34840000Y15056667D01*
X34806667Y14990000D01*
X34773334Y14956667D01*
X34706667Y14923333D01*
X34506667Y14923333D01*
X34440000Y14956667D01*
X34406667Y14990000D01*
X21090000Y3693333D02*
X21423334Y3693333D01*
X21023334Y3493333D02*
X21256667Y4193333D01*
X21490000Y3493333D01*
X21690000Y4126667D02*
X21723334Y4160000D01*
X21790000Y4193333D01*
X21956667Y4193333D01*
X22023334Y4160000D01*
X22056667Y4126667D01*
X22090000Y4060000D01*
X22090000Y3993333D01*
X22056667Y3893333D01*
X21656667Y3493333D01*
X22090000Y3493333D01*
X41793334Y14990000D02*
X41760000Y14956667D01*
X41660000Y14923333D01*
X41593334Y14923333D01*
X41493334Y14956667D01*
X41426667Y15023333D01*
X41393334Y15090000D01*
X41360000Y15223333D01*
X41360000Y15323333D01*
X41393334Y15456667D01*
X41426667Y15523333D01*
X41493334Y15590000D01*
X41593334Y15623333D01*
X41660000Y15623333D01*
X41760000Y15590000D01*
X41793334Y15556667D01*
X42226667Y15623333D02*
X42293334Y15623333D01*
X42360000Y15590000D01*
X42393334Y15556667D01*
X42426667Y15490000D01*
X42460000Y15356667D01*
X42460000Y15190000D01*
X42426667Y15056667D01*
X42393334Y14990000D01*
X42360000Y14956667D01*
X42293334Y14923333D01*
X42226667Y14923333D01*
X42160000Y14956667D01*
X42126667Y14990000D01*
X42093334Y15056667D01*
X42060000Y15190000D01*
X42060000Y15356667D01*
X42093334Y15490000D01*
X42126667Y15556667D01*
X42160000Y15590000D01*
X42226667Y15623333D01*
X38753333Y3860000D02*
X38853333Y3826667D01*
X38886666Y3793333D01*
X38920000Y3726667D01*
X38920000Y3626667D01*
X38886666Y3560000D01*
X38853333Y3526667D01*
X38786666Y3493333D01*
X38520000Y3493333D01*
X38520000Y4193333D01*
X38753333Y4193333D01*
X38820000Y4160000D01*
X38853333Y4126667D01*
X38886666Y4060000D01*
X38886666Y3993333D01*
X38853333Y3926667D01*
X38820000Y3893333D01*
X38753333Y3860000D01*
X38520000Y3860000D01*
X39586666Y3493333D02*
X39186666Y3493333D01*
X39386666Y3493333D02*
X39386666Y4193333D01*
X39320000Y4093333D01*
X39253333Y4026667D01*
X39186666Y3993333D01*
X40186667Y4193333D02*
X40053333Y4193333D01*
X39986667Y4160000D01*
X39953333Y4126667D01*
X39886667Y4026667D01*
X39853333Y3893333D01*
X39853333Y3626667D01*
X39886667Y3560000D01*
X39920000Y3526667D01*
X39986667Y3493333D01*
X40120000Y3493333D01*
X40186667Y3526667D01*
X40220000Y3560000D01*
X40253333Y3626667D01*
X40253333Y3793333D01*
X40220000Y3860000D01*
X40186667Y3893333D01*
X40120000Y3926667D01*
X39986667Y3926667D01*
X39920000Y3893333D01*
X39886667Y3860000D01*
X39853333Y3793333D01*
X36546667Y3860000D02*
X36646667Y3826667D01*
X36680000Y3793333D01*
X36713334Y3726667D01*
X36713334Y3626667D01*
X36680000Y3560000D01*
X36646667Y3526667D01*
X36580000Y3493333D01*
X36313334Y3493333D01*
X36313334Y4193333D01*
X36546667Y4193333D01*
X36613334Y4160000D01*
X36646667Y4126667D01*
X36680000Y4060000D01*
X36680000Y3993333D01*
X36646667Y3926667D01*
X36613334Y3893333D01*
X36546667Y3860000D01*
X36313334Y3860000D01*
X36946667Y4193333D02*
X37380000Y4193333D01*
X37146667Y3926667D01*
X37246667Y3926667D01*
X37313334Y3893333D01*
X37346667Y3860000D01*
X37380000Y3793333D01*
X37380000Y3626667D01*
X37346667Y3560000D01*
X37313334Y3526667D01*
X37246667Y3493333D01*
X37046667Y3493333D01*
X36980000Y3526667D01*
X36946667Y3560000D01*
X31466667Y3860000D02*
X31566667Y3826667D01*
X31600000Y3793333D01*
X31633334Y3726667D01*
X31633334Y3626667D01*
X31600000Y3560000D01*
X31566667Y3526667D01*
X31500000Y3493333D01*
X31233334Y3493333D01*
X31233334Y4193333D01*
X31466667Y4193333D01*
X31533334Y4160000D01*
X31566667Y4126667D01*
X31600000Y4060000D01*
X31600000Y3993333D01*
X31566667Y3926667D01*
X31533334Y3893333D01*
X31466667Y3860000D01*
X31233334Y3860000D01*
X32300000Y3493333D02*
X31900000Y3493333D01*
X32100000Y3493333D02*
X32100000Y4193333D01*
X32033334Y4093333D01*
X31966667Y4026667D01*
X31900000Y3993333D01*
X28926667Y3860000D02*
X29026667Y3826667D01*
X29060000Y3793333D01*
X29093334Y3726667D01*
X29093334Y3626667D01*
X29060000Y3560000D01*
X29026667Y3526667D01*
X28960000Y3493333D01*
X28693334Y3493333D01*
X28693334Y4193333D01*
X28926667Y4193333D01*
X28993334Y4160000D01*
X29026667Y4126667D01*
X29060000Y4060000D01*
X29060000Y3993333D01*
X29026667Y3926667D01*
X28993334Y3893333D01*
X28926667Y3860000D01*
X28693334Y3860000D01*
X29526667Y4193333D02*
X29593334Y4193333D01*
X29660000Y4160000D01*
X29693334Y4126667D01*
X29726667Y4060000D01*
X29760000Y3926667D01*
X29760000Y3760000D01*
X29726667Y3626667D01*
X29693334Y3560000D01*
X29660000Y3526667D01*
X29593334Y3493333D01*
X29526667Y3493333D01*
X29460000Y3526667D01*
X29426667Y3560000D01*
X29393334Y3626667D01*
X29360000Y3760000D01*
X29360000Y3926667D01*
X29393334Y4060000D01*
X29426667Y4126667D01*
X29460000Y4160000D01*
X29526667Y4193333D01*
X26170000Y3693333D02*
X26503334Y3693333D01*
X26103334Y3493333D02*
X26336667Y4193333D01*
X26570000Y3493333D01*
X27103334Y3960000D02*
X27103334Y3493333D01*
X26936667Y4226667D02*
X26770000Y3726667D01*
X27203334Y3726667D01*
X18550000Y3693333D02*
X18883334Y3693333D01*
X18483334Y3493333D02*
X18716667Y4193333D01*
X18950000Y3493333D01*
X19550000Y3493333D02*
X19150000Y3493333D01*
X19350000Y3493333D02*
X19350000Y4193333D01*
X19283334Y4093333D01*
X19216667Y4026667D01*
X19150000Y3993333D01*
X31633334Y14990000D02*
X31600000Y14956667D01*
X31500000Y14923333D01*
X31433334Y14923333D01*
X31333334Y14956667D01*
X31266667Y15023333D01*
X31233334Y15090000D01*
X31200000Y15223333D01*
X31200000Y15323333D01*
X31233334Y15456667D01*
X31266667Y15523333D01*
X31333334Y15590000D01*
X31433334Y15623333D01*
X31500000Y15623333D01*
X31600000Y15590000D01*
X31633334Y15556667D01*
X32233334Y15390000D02*
X32233334Y14923333D01*
X32066667Y15656667D02*
X31900000Y15156667D01*
X32333334Y15156667D01*
X29093334Y14990000D02*
X29060000Y14956667D01*
X28960000Y14923333D01*
X28893334Y14923333D01*
X28793334Y14956667D01*
X28726667Y15023333D01*
X28693334Y15090000D01*
X28660000Y15223333D01*
X28660000Y15323333D01*
X28693334Y15456667D01*
X28726667Y15523333D01*
X28793334Y15590000D01*
X28893334Y15623333D01*
X28960000Y15623333D01*
X29060000Y15590000D01*
X29093334Y15556667D01*
X29726667Y15623333D02*
X29393334Y15623333D01*
X29360000Y15290000D01*
X29393334Y15323333D01*
X29460000Y15356667D01*
X29626667Y15356667D01*
X29693334Y15323333D01*
X29726667Y15290000D01*
X29760000Y15223333D01*
X29760000Y15056667D01*
X29726667Y14990000D01*
X29693334Y14956667D01*
X29626667Y14923333D01*
X29460000Y14923333D01*
X29393334Y14956667D01*
X29360000Y14990000D01*
X26553334Y14990000D02*
X26520000Y14956667D01*
X26420000Y14923333D01*
X26353334Y14923333D01*
X26253334Y14956667D01*
X26186667Y15023333D01*
X26153334Y15090000D01*
X26120000Y15223333D01*
X26120000Y15323333D01*
X26153334Y15456667D01*
X26186667Y15523333D01*
X26253334Y15590000D01*
X26353334Y15623333D01*
X26420000Y15623333D01*
X26520000Y15590000D01*
X26553334Y15556667D01*
X27153334Y15623333D02*
X27020000Y15623333D01*
X26953334Y15590000D01*
X26920000Y15556667D01*
X26853334Y15456667D01*
X26820000Y15323333D01*
X26820000Y15056667D01*
X26853334Y14990000D01*
X26886667Y14956667D01*
X26953334Y14923333D01*
X27086667Y14923333D01*
X27153334Y14956667D01*
X27186667Y14990000D01*
X27220000Y15056667D01*
X27220000Y15223333D01*
X27186667Y15290000D01*
X27153334Y15323333D01*
X27086667Y15356667D01*
X26953334Y15356667D01*
X26886667Y15323333D01*
X26853334Y15290000D01*
X26820000Y15223333D01*
X24013334Y14990000D02*
X23980000Y14956667D01*
X23880000Y14923333D01*
X23813334Y14923333D01*
X23713334Y14956667D01*
X23646667Y15023333D01*
X23613334Y15090000D01*
X23580000Y15223333D01*
X23580000Y15323333D01*
X23613334Y15456667D01*
X23646667Y15523333D01*
X23713334Y15590000D01*
X23813334Y15623333D01*
X23880000Y15623333D01*
X23980000Y15590000D01*
X24013334Y15556667D01*
X24246667Y15623333D02*
X24713334Y15623333D01*
X24413334Y14923333D01*
X21073334Y15050333D02*
X21073334Y15750333D01*
X21240000Y15750333D01*
X21340000Y15717000D01*
X21406667Y15650333D01*
X21440000Y15583667D01*
X21473334Y15450333D01*
X21473334Y15350333D01*
X21440000Y15217000D01*
X21406667Y15150333D01*
X21340000Y15083667D01*
X21240000Y15050333D01*
X21073334Y15050333D01*
X21906667Y15750333D02*
X21973334Y15750333D01*
X22040000Y15717000D01*
X22073334Y15683667D01*
X22106667Y15617000D01*
X22140000Y15483667D01*
X22140000Y15317000D01*
X22106667Y15183667D01*
X22073334Y15117000D01*
X22040000Y15083667D01*
X21973334Y15050333D01*
X21906667Y15050333D01*
X21840000Y15083667D01*
X21806667Y15117000D01*
X21773334Y15183667D01*
X21740000Y15317000D01*
X21740000Y15483667D01*
X21773334Y15617000D01*
X21806667Y15683667D01*
X21840000Y15717000D01*
X21906667Y15750333D01*
X18533334Y15050333D02*
X18533334Y15750333D01*
X18700000Y15750333D01*
X18800000Y15717000D01*
X18866667Y15650333D01*
X18900000Y15583667D01*
X18933334Y15450333D01*
X18933334Y15350333D01*
X18900000Y15217000D01*
X18866667Y15150333D01*
X18800000Y15083667D01*
X18700000Y15050333D01*
X18533334Y15050333D01*
X19600000Y15050333D02*
X19200000Y15050333D01*
X19400000Y15050333D02*
X19400000Y15750333D01*
X19333334Y15650333D01*
X19266667Y15583667D01*
X19200000Y15550333D01*
X15993334Y15050333D02*
X15993334Y15750333D01*
X16160000Y15750333D01*
X16260000Y15717000D01*
X16326667Y15650333D01*
X16360000Y15583667D01*
X16393334Y15450333D01*
X16393334Y15350333D01*
X16360000Y15217000D01*
X16326667Y15150333D01*
X16260000Y15083667D01*
X16160000Y15050333D01*
X15993334Y15050333D01*
X16660000Y15683667D02*
X16693334Y15717000D01*
X16760000Y15750333D01*
X16926667Y15750333D01*
X16993334Y15717000D01*
X17026667Y15683667D01*
X17060000Y15617000D01*
X17060000Y15550333D01*
X17026667Y15450333D01*
X16626667Y15050333D01*
X17060000Y15050333D01*
X13453334Y14923333D02*
X13453334Y15623333D01*
X13620000Y15623333D01*
X13720000Y15590000D01*
X13786667Y15523333D01*
X13820000Y15456667D01*
X13853334Y15323333D01*
X13853334Y15223333D01*
X13820000Y15090000D01*
X13786667Y15023333D01*
X13720000Y14956667D01*
X13620000Y14923333D01*
X13453334Y14923333D01*
X14086667Y15623333D02*
X14520000Y15623333D01*
X14286667Y15356667D01*
X14386667Y15356667D01*
X14453334Y15323333D01*
X14486667Y15290000D01*
X14520000Y15223333D01*
X14520000Y15056667D01*
X14486667Y14990000D01*
X14453334Y14956667D01*
X14386667Y14923333D01*
X14186667Y14923333D01*
X14120000Y14956667D01*
X14086667Y14990000D01*
X10913334Y14923333D02*
X10913334Y15623333D01*
X11080000Y15623333D01*
X11180000Y15590000D01*
X11246667Y15523333D01*
X11280000Y15456667D01*
X11313334Y15323333D01*
X11313334Y15223333D01*
X11280000Y15090000D01*
X11246667Y15023333D01*
X11180000Y14956667D01*
X11080000Y14923333D01*
X10913334Y14923333D01*
X11913334Y15390000D02*
X11913334Y14923333D01*
X11746667Y15656667D02*
X11580000Y15156667D01*
X12013334Y15156667D01*
X8373334Y14923333D02*
X8373334Y15623333D01*
X8540000Y15623333D01*
X8640000Y15590000D01*
X8706667Y15523333D01*
X8740000Y15456667D01*
X8773334Y15323333D01*
X8773334Y15223333D01*
X8740000Y15090000D01*
X8706667Y15023333D01*
X8640000Y14956667D01*
X8540000Y14923333D01*
X8373334Y14923333D01*
X9406667Y15623333D02*
X9073334Y15623333D01*
X9040000Y15290000D01*
X9073334Y15323333D01*
X9140000Y15356667D01*
X9306667Y15356667D01*
X9373334Y15323333D01*
X9406667Y15290000D01*
X9440000Y15223333D01*
X9440000Y15056667D01*
X9406667Y14990000D01*
X9373334Y14956667D01*
X9306667Y14923333D01*
X9140000Y14923333D01*
X9073334Y14956667D01*
X9040000Y14990000D01*
X5833334Y14923333D02*
X5833334Y15623333D01*
X6000000Y15623333D01*
X6100000Y15590000D01*
X6166667Y15523333D01*
X6200000Y15456667D01*
X6233334Y15323333D01*
X6233334Y15223333D01*
X6200000Y15090000D01*
X6166667Y15023333D01*
X6100000Y14956667D01*
X6000000Y14923333D01*
X5833334Y14923333D01*
X6833334Y15623333D02*
X6700000Y15623333D01*
X6633334Y15590000D01*
X6600000Y15556667D01*
X6533334Y15456667D01*
X6500000Y15323333D01*
X6500000Y15056667D01*
X6533334Y14990000D01*
X6566667Y14956667D01*
X6633334Y14923333D01*
X6766667Y14923333D01*
X6833334Y14956667D01*
X6866667Y14990000D01*
X6900000Y15056667D01*
X6900000Y15223333D01*
X6866667Y15290000D01*
X6833334Y15323333D01*
X6766667Y15356667D01*
X6633334Y15356667D01*
X6566667Y15323333D01*
X6533334Y15290000D01*
X6500000Y15223333D01*
X3293334Y14923333D02*
X3293334Y15623333D01*
X3460000Y15623333D01*
X3560000Y15590000D01*
X3626667Y15523333D01*
X3660000Y15456667D01*
X3693334Y15323333D01*
X3693334Y15223333D01*
X3660000Y15090000D01*
X3626667Y15023333D01*
X3560000Y14956667D01*
X3460000Y14923333D01*
X3293334Y14923333D01*
X3926667Y15623333D02*
X4393334Y15623333D01*
X4093334Y14923333D01*
X45620882Y17145000D02*
G75*
G03X45620882Y17145000I-1170882J0D01*
G01*
X27875774Y8163969D02*
X27918591Y8287068D01*
X27961409Y8324532D01*
X28047043Y8356645D01*
X28175494Y8340589D01*
X28261129Y8287067D01*
X28303946Y8238898D01*
X28346763Y8147912D01*
X28346763Y7805375D01*
X27447603Y7917770D01*
X27447603Y8217490D01*
X27490420Y8297772D01*
X27533237Y8335237D01*
X27618871Y8367350D01*
X27704506Y8356645D01*
X27790140Y8303124D01*
X27832957Y8254955D01*
X27875774Y8163969D01*
X27875774Y7864249D01*
X28261129Y9229044D02*
X28303946Y9180875D01*
X28346763Y9047072D01*
X28346763Y8961438D01*
X28303946Y8838338D01*
X28218311Y8763409D01*
X28132677Y8731296D01*
X27961409Y8709887D01*
X27832957Y8725944D01*
X27661689Y8790169D01*
X27576054Y8843691D01*
X27490420Y8940029D01*
X27447603Y9073833D01*
X27447603Y9159467D01*
X27490420Y9282566D01*
X27533237Y9320031D01*
X28346763Y10288769D02*
X27447603Y10401164D01*
X28346763Y10802574D02*
X27832957Y10481446D01*
X27447603Y10914969D02*
X27961409Y10336938D01*
X27533237Y11246803D02*
X27490420Y11294972D01*
X27447603Y11385958D01*
X27447603Y11600044D01*
X27490420Y11680326D01*
X27533237Y11717791D01*
X27618871Y11749904D01*
X27704506Y11739199D01*
X27832957Y11680326D01*
X28346763Y11102294D01*
X28346763Y11658917D01*
X27447603Y12327935D02*
X27447603Y12413570D01*
X27490420Y12493852D01*
X27533237Y12531317D01*
X27618871Y12563430D01*
X27790140Y12584838D01*
X28004226Y12558077D01*
X28175494Y12493852D01*
X28261129Y12440330D01*
X28303946Y12392161D01*
X28346763Y12301175D01*
X28346763Y12215540D01*
X28303946Y12135258D01*
X28261129Y12097793D01*
X28175494Y12065681D01*
X28004226Y12044272D01*
X27790140Y12071033D01*
X27618871Y12135259D01*
X27533237Y12188780D01*
X27490420Y12236949D01*
X27447603Y12327935D01*
X27747323Y13574984D02*
X28346763Y13714140D01*
X27747323Y14003156D01*
X27533237Y14329637D02*
X27490420Y14377806D01*
X27447603Y14468792D01*
X27447603Y14682878D01*
X27490420Y14763160D01*
X27533237Y14800625D01*
X27618871Y14832738D01*
X27704506Y14822033D01*
X27832957Y14763160D01*
X28346763Y14185128D01*
X28346763Y14741751D01*
X16586200Y6225540D02*
X16385540Y6426200D01*
X16385540Y6426200D02*
X16385540Y12623800D01*
X16385540Y12623800D02*
X16586200Y12824460D01*
X16586200Y12824460D02*
X22783800Y12824460D01*
X22783800Y12824460D02*
X22984460Y12623800D01*
X22783800Y6225540D02*
X16586200Y6225540D01*
X22984460Y12623800D02*
X22984460Y6426200D01*
X16586200Y6123940D02*
X16283940Y6426200D01*
X23086060Y6426200D02*
X22783800Y6123940D01*
X22783800Y12926060D02*
X23086060Y12623800D01*
X16586200Y12926060D02*
X16283940Y12623800D01*
D13*
X15491491Y13228320D02*
G75*
G03X15491491Y13228320I-104171J0D01*
G01*
D14*
X17427332Y11874500D02*
G75*
G03X17427332Y11874500I-140092J0D01*
G01*
D11*
X8890000Y6858000D02*
X6350000Y6858000D01*
X6350000Y6858000D02*
X6350000Y8382000D01*
X6350000Y8382000D02*
X8890000Y8382000D01*
X8890000Y8382000D02*
X8890000Y6858000D01*
X8890000Y12573000D02*
X6350000Y12573000D01*
X6350000Y12573000D02*
X6350000Y14097000D01*
X6350000Y14097000D02*
X8890000Y14097000D01*
X8890000Y14097000D02*
X8890000Y12573000D01*
X13335000Y6858000D02*
X10795000Y6858000D01*
X10795000Y6858000D02*
X10795000Y8382000D01*
X10795000Y8382000D02*
X13335000Y8382000D01*
X13335000Y8382000D02*
X13335000Y6858000D01*
X26035000Y5842000D02*
X28575000Y5842000D01*
X28575000Y5842000D02*
X28575000Y4318000D01*
X28575000Y4318000D02*
X26035000Y4318000D01*
X26035000Y4318000D02*
X26035000Y5842000D01*
X30988000Y5080000D02*
X30988000Y7620000D01*
X30988000Y7620000D02*
X32512000Y7620000D01*
X32512000Y7620000D02*
X32512000Y5080000D01*
X32512000Y5080000D02*
X30988000Y5080000D01*
X13335000Y4953000D02*
X10795000Y4953000D01*
X10795000Y4953000D02*
X10795000Y6477000D01*
X10795000Y6477000D02*
X13335000Y6477000D01*
X13335000Y6477000D02*
X13335000Y4953000D01*
D10*
X32469000Y9948000D02*
X30569000Y9948000D01*
X32469000Y8848000D02*
X30569000Y8848000D01*
X31569000Y9398000D02*
X31119000Y9398000D01*
X31619000Y9148000D02*
X31619000Y9648000D01*
X31619000Y9398000D02*
X31369000Y9148000D01*
X31369000Y9148000D02*
X31369000Y9648000D01*
X31369000Y9648000D02*
X31619000Y9398000D01*
D13*
X-180340Y12776200D02*
X-180340Y6273800D01*
X2519680Y5775960D02*
X4320540Y5775960D01*
X4320540Y5775960D02*
X4320540Y6474460D01*
X4320540Y10975340D02*
X4320540Y8125460D01*
X2570480Y13274040D02*
X4320540Y13274040D01*
X4320540Y13274040D02*
X4320540Y12674600D01*
X-878840Y5775960D02*
X-30480Y5775960D01*
X-878840Y5775960D02*
X-878840Y13274040D01*
X-878840Y13274040D02*
X-30480Y13274040D01*
D15*
X45275500Y5461000D02*
G75*
G03X45275500Y5461000I-317500J0D01*
G01*
D11*
X6350000Y10287000D02*
X8890000Y10287000D01*
X8890000Y10287000D02*
X8890000Y8763000D01*
X8890000Y8763000D02*
X6350000Y8763000D01*
X6350000Y8763000D02*
X6350000Y10287000D01*
X6350000Y12192000D02*
X8890000Y12192000D01*
X8890000Y12192000D02*
X8890000Y10668000D01*
X8890000Y10668000D02*
X6350000Y10668000D01*
X6350000Y10668000D02*
X6350000Y12192000D01*
X33655000Y10160000D02*
X36195000Y10160000D01*
X36195000Y10160000D02*
X36195000Y8636000D01*
X36195000Y8636000D02*
X33655000Y8636000D01*
X33655000Y8636000D02*
X33655000Y10160000D01*
X32512000Y13970000D02*
X32512000Y11430000D01*
X32512000Y11430000D02*
X30988000Y11430000D01*
X30988000Y11430000D02*
X30988000Y13970000D01*
X30988000Y13970000D02*
X32512000Y13970000D01*
X26035000Y7493000D02*
X28575000Y7493000D01*
X28575000Y7493000D02*
X28575000Y5969000D01*
X28575000Y5969000D02*
X26035000Y5969000D01*
X26035000Y5969000D02*
X26035000Y7493000D01*
D10*
X37660000Y4950000D02*
X37660000Y7750000D01*
X37660000Y7750000D02*
X33460000Y7750000D01*
X33460000Y7750000D02*
X33460000Y4950000D01*
X37660000Y4950000D02*
X33460000Y4950000D01*
X33460000Y14100000D02*
X33460000Y11300000D01*
X33460000Y11300000D02*
X37660000Y11300000D01*
X37660000Y11300000D02*
X37660000Y14100000D01*
X33460000Y14100000D02*
X37660000Y14100000D01*
D11*
X18999926Y10017397D02*
X18999926Y9289506D01*
X19042743Y9203871D01*
X19085560Y9161054D01*
X19171194Y9118237D01*
X19342463Y9118237D01*
X19428097Y9161054D01*
X19470914Y9203871D01*
X19513731Y9289506D01*
X19513731Y10017397D01*
X20412891Y9118237D02*
X19899086Y9118237D01*
X20155988Y9118237D02*
X20155988Y10017397D01*
X20070354Y9888946D01*
X19984720Y9803311D01*
X19899086Y9760494D01*
X9973129Y7470140D02*
X10015946Y7427323D01*
X10058763Y7298872D01*
X10058763Y7213238D01*
X10015946Y7084786D01*
X9930311Y6999152D01*
X9844677Y6956335D01*
X9673409Y6913518D01*
X9544957Y6913518D01*
X9373689Y6956335D01*
X9288054Y6999152D01*
X9202420Y7084786D01*
X9159603Y7213238D01*
X9159603Y7298872D01*
X9202420Y7427323D01*
X9245237Y7470140D01*
X10058763Y8326483D02*
X10058763Y7812678D01*
X10058763Y8069580D02*
X9159603Y8069580D01*
X9288054Y7983946D01*
X9373689Y7898312D01*
X9416506Y7812678D01*
X9973129Y13185140D02*
X10015946Y13142323D01*
X10058763Y13013872D01*
X10058763Y12928238D01*
X10015946Y12799786D01*
X9930311Y12714152D01*
X9844677Y12671335D01*
X9673409Y12628518D01*
X9544957Y12628518D01*
X9373689Y12671335D01*
X9288054Y12714152D01*
X9202420Y12799786D01*
X9159603Y12928238D01*
X9159603Y13013872D01*
X9202420Y13142323D01*
X9245237Y13185140D01*
X9159603Y13484860D02*
X9159603Y14041483D01*
X9502140Y13741763D01*
X9502140Y13870215D01*
X9544957Y13955849D01*
X9587774Y13998666D01*
X9673409Y14041483D01*
X9887494Y14041483D01*
X9973129Y13998666D01*
X10015946Y13955849D01*
X10058763Y13870215D01*
X10058763Y13613312D01*
X10015946Y13527678D01*
X9973129Y13484860D01*
X14291129Y7470140D02*
X14333946Y7427323D01*
X14376763Y7298872D01*
X14376763Y7213238D01*
X14333946Y7084786D01*
X14248311Y6999152D01*
X14162677Y6956335D01*
X13991409Y6913518D01*
X13862957Y6913518D01*
X13691689Y6956335D01*
X13606054Y6999152D01*
X13520420Y7084786D01*
X13477603Y7213238D01*
X13477603Y7298872D01*
X13520420Y7427323D01*
X13563237Y7470140D01*
X13777323Y8240849D02*
X14376763Y8240849D01*
X13434786Y8026763D02*
X14077043Y7812678D01*
X14077043Y8369300D01*
X29441140Y4758871D02*
X29398323Y4716054D01*
X29269872Y4673237D01*
X29184238Y4673237D01*
X29055786Y4716054D01*
X28970152Y4801689D01*
X28927335Y4887323D01*
X28884518Y5058591D01*
X28884518Y5187043D01*
X28927335Y5358311D01*
X28970152Y5443946D01*
X29055786Y5529580D01*
X29184238Y5572397D01*
X29269872Y5572397D01*
X29398323Y5529580D01*
X29441140Y5486763D01*
X30254666Y5572397D02*
X29826495Y5572397D01*
X29783678Y5144226D01*
X29826495Y5187043D01*
X29912129Y5229860D01*
X30126215Y5229860D01*
X30211849Y5187043D01*
X30254666Y5144226D01*
X30297483Y5058591D01*
X30297483Y4844506D01*
X30254666Y4758871D01*
X30211849Y4716054D01*
X30126215Y4673237D01*
X29912129Y4673237D01*
X29826495Y4716054D01*
X29783678Y4758871D01*
X31600140Y7806871D02*
X31557323Y7764054D01*
X31428872Y7721237D01*
X31343238Y7721237D01*
X31214786Y7764054D01*
X31129152Y7849689D01*
X31086335Y7935323D01*
X31043518Y8106591D01*
X31043518Y8235043D01*
X31086335Y8406311D01*
X31129152Y8491946D01*
X31214786Y8577580D01*
X31343238Y8620397D01*
X31428872Y8620397D01*
X31557323Y8577580D01*
X31600140Y8534763D01*
X32370849Y8620397D02*
X32199580Y8620397D01*
X32113946Y8577580D01*
X32071129Y8534763D01*
X31985495Y8406311D01*
X31942678Y8235043D01*
X31942678Y7892506D01*
X31985495Y7806871D01*
X32028312Y7764054D01*
X32113946Y7721237D01*
X32285215Y7721237D01*
X32370849Y7764054D01*
X32413666Y7806871D01*
X32456483Y7892506D01*
X32456483Y8106591D01*
X32413666Y8192226D01*
X32370849Y8235043D01*
X32285215Y8277860D01*
X32113946Y8277860D01*
X32028312Y8235043D01*
X31985495Y8192226D01*
X31942678Y8106591D01*
X14291129Y5565140D02*
X14333946Y5522323D01*
X14376763Y5393872D01*
X14376763Y5308238D01*
X14333946Y5179786D01*
X14248311Y5094152D01*
X14162677Y5051335D01*
X13991409Y5008518D01*
X13862957Y5008518D01*
X13691689Y5051335D01*
X13606054Y5094152D01*
X13520420Y5179786D01*
X13477603Y5308238D01*
X13477603Y5393872D01*
X13520420Y5522323D01*
X13563237Y5565140D01*
X13862957Y6078946D02*
X13820140Y5993312D01*
X13777323Y5950495D01*
X13691689Y5907678D01*
X13648871Y5907678D01*
X13563237Y5950495D01*
X13520420Y5993312D01*
X13477603Y6078946D01*
X13477603Y6250215D01*
X13520420Y6335849D01*
X13563237Y6378666D01*
X13648871Y6421483D01*
X13691689Y6421483D01*
X13777323Y6378666D01*
X13820140Y6335849D01*
X13862957Y6250215D01*
X13862957Y6078946D01*
X13905774Y5993312D01*
X13948591Y5950495D01*
X14034226Y5907678D01*
X14205494Y5907678D01*
X14291129Y5950495D01*
X14333946Y5993312D01*
X14376763Y6078946D01*
X14376763Y6250215D01*
X14333946Y6335849D01*
X14291129Y6378666D01*
X14205494Y6421483D01*
X14034226Y6421483D01*
X13948591Y6378666D01*
X13905774Y6335849D01*
X13862957Y6250215D01*
D10*
X30757905Y10215619D02*
X30757905Y11215619D01*
X30996000Y11215619D01*
X31138858Y11168000D01*
X31234096Y11072762D01*
X31281715Y10977524D01*
X31329334Y10787048D01*
X31329334Y10644190D01*
X31281715Y10453714D01*
X31234096Y10358476D01*
X31138858Y10263238D01*
X30996000Y10215619D01*
X30757905Y10215619D01*
X32281715Y10215619D02*
X31710286Y10215619D01*
X31996000Y10215619D02*
X31996000Y11215619D01*
X31900762Y11072762D01*
X31805524Y10977524D01*
X31710286Y10929905D01*
D16*
X-3731381Y5358191D02*
X-4747381Y5358191D01*
X-4021667Y5696857D01*
X-4747381Y6035524D01*
X-3731381Y6035524D01*
X-3731381Y6519334D02*
X-4747381Y6519334D01*
X-3828143Y7583715D02*
X-3779762Y7535334D01*
X-3731381Y7390191D01*
X-3731381Y7293429D01*
X-3779762Y7148287D01*
X-3876524Y7051525D01*
X-3973286Y7003144D01*
X-4166810Y6954763D01*
X-4311952Y6954763D01*
X-4505476Y7003144D01*
X-4602238Y7051525D01*
X-4699000Y7148287D01*
X-4747381Y7293429D01*
X-4747381Y7390191D01*
X-4699000Y7535334D01*
X-4650619Y7583715D01*
X-3731381Y8599715D02*
X-4215190Y8261049D01*
X-3731381Y8019144D02*
X-4747381Y8019144D01*
X-4747381Y8406191D01*
X-4699000Y8502953D01*
X-4650619Y8551334D01*
X-4553857Y8599715D01*
X-4408714Y8599715D01*
X-4311952Y8551334D01*
X-4263571Y8502953D01*
X-4215190Y8406191D01*
X-4215190Y8019144D01*
X-4747381Y9228668D02*
X-4747381Y9422191D01*
X-4699000Y9518953D01*
X-4602238Y9615715D01*
X-4408714Y9664096D01*
X-4070048Y9664096D01*
X-3876524Y9615715D01*
X-3779762Y9518953D01*
X-3731381Y9422191D01*
X-3731381Y9228668D01*
X-3779762Y9131906D01*
X-3876524Y9035144D01*
X-4070048Y8986763D01*
X-4408714Y8986763D01*
X-4602238Y9035144D01*
X-4699000Y9131906D01*
X-4747381Y9228668D01*
X-3634619Y9857620D02*
X-3634619Y10631715D01*
X-4747381Y10873620D02*
X-3924905Y10873620D01*
X-3828143Y10922001D01*
X-3779762Y10970382D01*
X-3731381Y11067144D01*
X-3731381Y11260667D01*
X-3779762Y11357429D01*
X-3828143Y11405810D01*
X-3924905Y11454191D01*
X-4747381Y11454191D01*
X-3779762Y11889620D02*
X-3731381Y12034763D01*
X-3731381Y12276667D01*
X-3779762Y12373429D01*
X-3828143Y12421810D01*
X-3924905Y12470191D01*
X-4021667Y12470191D01*
X-4118429Y12421810D01*
X-4166810Y12373429D01*
X-4215190Y12276667D01*
X-4263571Y12083144D01*
X-4311952Y11986382D01*
X-4360333Y11938001D01*
X-4457095Y11889620D01*
X-4553857Y11889620D01*
X-4650619Y11938001D01*
X-4699000Y11986382D01*
X-4747381Y12083144D01*
X-4747381Y12325048D01*
X-4699000Y12470191D01*
X-4263571Y13244286D02*
X-4215190Y13389429D01*
X-4166810Y13437810D01*
X-4070048Y13486191D01*
X-3924905Y13486191D01*
X-3828143Y13437810D01*
X-3779762Y13389429D01*
X-3731381Y13292667D01*
X-3731381Y12905620D01*
X-4747381Y12905620D01*
X-4747381Y13244286D01*
X-4699000Y13341048D01*
X-4650619Y13389429D01*
X-4553857Y13437810D01*
X-4457095Y13437810D01*
X-4360333Y13389429D01*
X-4311952Y13341048D01*
X-4263571Y13244286D01*
X-4263571Y12905620D01*
D17*
X41198800Y13668829D02*
X41198800Y13233400D01*
X41169772Y13146314D01*
X41111715Y13088257D01*
X41024629Y13059229D01*
X40966572Y13059229D01*
X41402000Y13668829D02*
X41750343Y13668829D01*
X41576172Y13059229D02*
X41576172Y13668829D01*
X41924514Y13233400D02*
X42214800Y13233400D01*
X41866457Y13059229D02*
X42069657Y13668829D01*
X42272857Y13059229D01*
X42795371Y13639800D02*
X42737314Y13668829D01*
X42650228Y13668829D01*
X42563143Y13639800D01*
X42505085Y13581743D01*
X42476057Y13523686D01*
X42447028Y13407571D01*
X42447028Y13320486D01*
X42476057Y13204371D01*
X42505085Y13146314D01*
X42563143Y13088257D01*
X42650228Y13059229D01*
X42708285Y13059229D01*
X42795371Y13088257D01*
X42824400Y13117286D01*
X42824400Y13320486D01*
X42708285Y13320486D01*
X40285851Y13508446D02*
X40285851Y13160103D01*
X40285851Y13334275D02*
X39676251Y13334275D01*
X39763337Y13276218D01*
X39821394Y13218160D01*
X39850423Y13160103D01*
X39676251Y13885817D02*
X39676251Y13943874D01*
X39705280Y14001931D01*
X39734309Y14030960D01*
X39792366Y14059989D01*
X39908480Y14089017D01*
X40053623Y14089017D01*
X40169737Y14059989D01*
X40227794Y14030960D01*
X40256823Y14001931D01*
X40285851Y13943874D01*
X40285851Y13885817D01*
X40256823Y13827760D01*
X40227794Y13798731D01*
X40169737Y13769703D01*
X40053623Y13740674D01*
X39908480Y13740674D01*
X39792366Y13769703D01*
X39734309Y13798731D01*
X39705280Y13827760D01*
X39676251Y13885817D01*
X43885031Y13109666D02*
X43885031Y13225781D01*
X43856003Y13283838D01*
X43826974Y13312866D01*
X43739889Y13370924D01*
X43623774Y13399952D01*
X43391546Y13399952D01*
X43333489Y13370924D01*
X43304460Y13341895D01*
X43275431Y13283838D01*
X43275431Y13167724D01*
X43304460Y13109666D01*
X43333489Y13080638D01*
X43391546Y13051609D01*
X43536689Y13051609D01*
X43594746Y13080638D01*
X43623774Y13109666D01*
X43652803Y13167724D01*
X43652803Y13283838D01*
X43623774Y13341895D01*
X43594746Y13370924D01*
X43536689Y13399952D01*
X39833369Y5451929D02*
X39804340Y5480958D01*
X39775311Y5539015D01*
X39775311Y5684158D01*
X39804340Y5742215D01*
X39833369Y5771244D01*
X39891426Y5800272D01*
X39949483Y5800272D01*
X40036569Y5771244D01*
X40384911Y5422901D01*
X40384911Y5800272D01*
X43885031Y5899332D02*
X43885031Y5550989D01*
X43885031Y5725161D02*
X43275431Y5725161D01*
X43362517Y5667104D01*
X43420574Y5609046D01*
X43449603Y5550989D01*
D11*
X10058763Y9375140D02*
X9630591Y9075420D01*
X10058763Y8861335D02*
X9159603Y8861335D01*
X9159603Y9203872D01*
X9202420Y9289506D01*
X9245237Y9332323D01*
X9330871Y9375140D01*
X9459323Y9375140D01*
X9544957Y9332323D01*
X9587774Y9289506D01*
X9630591Y9203872D01*
X9630591Y8861335D01*
X10058763Y10231483D02*
X10058763Y9717678D01*
X10058763Y9974580D02*
X9159603Y9974580D01*
X9288054Y9888946D01*
X9373689Y9803312D01*
X9416506Y9717678D01*
X10058763Y11280140D02*
X9630591Y10980420D01*
X10058763Y10766335D02*
X9159603Y10766335D01*
X9159603Y11108872D01*
X9202420Y11194506D01*
X9245237Y11237323D01*
X9330871Y11280140D01*
X9459323Y11280140D01*
X9544957Y11237323D01*
X9587774Y11194506D01*
X9630591Y11108872D01*
X9630591Y10766335D01*
X9245237Y11622678D02*
X9202420Y11665495D01*
X9159603Y11751129D01*
X9159603Y11965215D01*
X9202420Y12050849D01*
X9245237Y12093666D01*
X9330871Y12136483D01*
X9416506Y12136483D01*
X9544957Y12093666D01*
X10058763Y11579860D01*
X10058763Y12136483D01*
X37363763Y9248140D02*
X36935591Y8948420D01*
X37363763Y8734335D02*
X36464603Y8734335D01*
X36464603Y9076872D01*
X36507420Y9162506D01*
X36550237Y9205323D01*
X36635871Y9248140D01*
X36764323Y9248140D01*
X36849957Y9205323D01*
X36892774Y9162506D01*
X36935591Y9076872D01*
X36935591Y8734335D01*
X36464603Y9547860D02*
X36464603Y10104483D01*
X36807140Y9804763D01*
X36807140Y9933215D01*
X36849957Y10018849D01*
X36892774Y10061666D01*
X36978409Y10104483D01*
X37192494Y10104483D01*
X37278129Y10061666D01*
X37320946Y10018849D01*
X37363763Y9933215D01*
X37363763Y9676312D01*
X37320946Y9590678D01*
X37278129Y9547860D01*
X30759763Y12550140D02*
X30331591Y12250420D01*
X30759763Y12036335D02*
X29860603Y12036335D01*
X29860603Y12378872D01*
X29903420Y12464506D01*
X29946237Y12507323D01*
X30031871Y12550140D01*
X30160323Y12550140D01*
X30245957Y12507323D01*
X30288774Y12464506D01*
X30331591Y12378872D01*
X30331591Y12036335D01*
X30160323Y13320849D02*
X30759763Y13320849D01*
X29817786Y13106763D02*
X30460043Y12892678D01*
X30460043Y13449300D01*
X29441140Y6324237D02*
X29141420Y6752409D01*
X28927335Y6324237D02*
X28927335Y7223397D01*
X29269872Y7223397D01*
X29355506Y7180580D01*
X29398323Y7137763D01*
X29441140Y7052129D01*
X29441140Y6923677D01*
X29398323Y6838043D01*
X29355506Y6795226D01*
X29269872Y6752409D01*
X28927335Y6752409D01*
X30254666Y7223397D02*
X29826495Y7223397D01*
X29783678Y6795226D01*
X29826495Y6838043D01*
X29912129Y6880860D01*
X30126215Y6880860D01*
X30211849Y6838043D01*
X30254666Y6795226D01*
X30297483Y6709591D01*
X30297483Y6495506D01*
X30254666Y6409871D01*
X30211849Y6367054D01*
X30126215Y6324237D01*
X29912129Y6324237D01*
X29826495Y6367054D01*
X29783678Y6409871D01*
D13*
X47951571Y5660571D02*
X47443571Y6386286D01*
X47080714Y5660571D02*
X47080714Y7184571D01*
X47661286Y7184571D01*
X47806428Y7112000D01*
X47879000Y7039429D01*
X47951571Y6894286D01*
X47951571Y6676571D01*
X47879000Y6531429D01*
X47806428Y6458857D01*
X47661286Y6386286D01*
X47080714Y6386286D01*
X48604714Y6458857D02*
X49112714Y6458857D01*
X49330428Y5660571D02*
X48604714Y5660571D01*
X48604714Y7184571D01*
X49330428Y7184571D01*
X49911000Y5733143D02*
X50128714Y5660571D01*
X50491571Y5660571D01*
X50636714Y5733143D01*
X50709285Y5805714D01*
X50781857Y5950857D01*
X50781857Y6096000D01*
X50709285Y6241143D01*
X50636714Y6313714D01*
X50491571Y6386286D01*
X50201285Y6458857D01*
X50056143Y6531429D01*
X49983571Y6604000D01*
X49911000Y6749143D01*
X49911000Y6894286D01*
X49983571Y7039429D01*
X50056143Y7112000D01*
X50201285Y7184571D01*
X50564143Y7184571D01*
X50781857Y7112000D01*
X51435000Y6458857D02*
X51943000Y6458857D01*
X52160714Y5660571D02*
X51435000Y5660571D01*
X51435000Y7184571D01*
X52160714Y7184571D01*
X52596143Y7184571D02*
X53467000Y7184571D01*
X53031571Y5660571D02*
X53031571Y7184571D01*
X46917429Y13534571D02*
X46917429Y12300857D01*
X46990001Y12155714D01*
X47062572Y12083143D01*
X47207715Y12010571D01*
X47498001Y12010571D01*
X47643143Y12083143D01*
X47715715Y12155714D01*
X47788286Y12300857D01*
X47788286Y13534571D01*
X48441429Y12083143D02*
X48659143Y12010571D01*
X49022000Y12010571D01*
X49167143Y12083143D01*
X49239714Y12155714D01*
X49312286Y12300857D01*
X49312286Y12446000D01*
X49239714Y12591143D01*
X49167143Y12663714D01*
X49022000Y12736286D01*
X48731714Y12808857D01*
X48586572Y12881429D01*
X48514000Y12954000D01*
X48441429Y13099143D01*
X48441429Y13244286D01*
X48514000Y13389429D01*
X48586572Y13462000D01*
X48731714Y13534571D01*
X49094572Y13534571D01*
X49312286Y13462000D01*
X49965429Y12808857D02*
X50473429Y12808857D01*
X50691143Y12010571D02*
X49965429Y12010571D01*
X49965429Y13534571D01*
X50691143Y13534571D01*
X52215143Y12010571D02*
X51707143Y12736286D01*
X51344286Y12010571D02*
X51344286Y13534571D01*
X51924858Y13534571D01*
X52070000Y13462000D01*
X52142572Y13389429D01*
X52215143Y13244286D01*
X52215143Y13026571D01*
X52142572Y12881429D01*
X52070000Y12808857D01*
X51924858Y12736286D01*
X51344286Y12736286D01*
M02*
