G04 #@! TF.FileFunction,Legend,Bot*
%FSLAX46Y46*%
G04 Gerber Fmt 4.6, Leading zero omitted, Abs format (unit mm)*
G04 Created by KiCad (PCBNEW 4.0.0-stable) date 03/01/2016 13:37:16*
%MOMM*%
G01*
G04 APERTURE LIST*
%ADD10C,0.150000*%
%ADD11C,0.101600*%
%ADD12C,0.149860*%
%ADD13C,0.002540*%
%ADD14C,0.127000*%
%ADD15C,0.254000*%
%ADD16C,0.114300*%
%ADD17C,0.200000*%
G04 APERTURE END LIST*
D10*
D11*
X635000Y0D02*
X45085000Y0D01*
X635000Y19050000D02*
X45085000Y19050000D01*
X45720000Y635000D02*
X45085000Y0D01*
X45720000Y18415000D02*
X45720000Y635000D01*
X45085000Y19050000D02*
X45720000Y18415000D01*
X0Y18415000D02*
X635000Y19050000D01*
X0Y635000D02*
X0Y18415000D01*
X635000Y0D02*
X0Y635000D01*
D12*
X44856763Y14170661D02*
X44813946Y14256295D01*
X44771129Y14299112D01*
X44685494Y14341929D01*
X44428591Y14341929D01*
X44342957Y14299112D01*
X44300140Y14256295D01*
X44257323Y14170661D01*
X44257323Y14042209D01*
X44300140Y13956575D01*
X44342957Y13913758D01*
X44428591Y13870941D01*
X44685494Y13870941D01*
X44771129Y13913758D01*
X44813946Y13956575D01*
X44856763Y14042209D01*
X44856763Y14170661D01*
X44257323Y13485586D02*
X45156483Y13485586D01*
X44300140Y13485586D02*
X44257323Y13399952D01*
X44257323Y13228683D01*
X44300140Y13143049D01*
X44342957Y13100232D01*
X44428591Y13057415D01*
X44685494Y13057415D01*
X44771129Y13100232D01*
X44813946Y13143049D01*
X44856763Y13228683D01*
X44856763Y13399952D01*
X44813946Y13485586D01*
X44813946Y12329523D02*
X44856763Y12415157D01*
X44856763Y12586426D01*
X44813946Y12672060D01*
X44728311Y12714877D01*
X44385774Y12714877D01*
X44300140Y12672060D01*
X44257323Y12586426D01*
X44257323Y12415157D01*
X44300140Y12329523D01*
X44385774Y12286706D01*
X44471409Y12286706D01*
X44557043Y12714877D01*
X44257323Y11901351D02*
X44856763Y11901351D01*
X44342957Y11901351D02*
X44300140Y11858534D01*
X44257323Y11772900D01*
X44257323Y11644448D01*
X44300140Y11558814D01*
X44385774Y11515997D01*
X44856763Y11515997D01*
X44856763Y10402751D02*
X43957603Y10402751D01*
X44856763Y10017397D02*
X44385774Y10017397D01*
X44300140Y10060214D01*
X44257323Y10145848D01*
X44257323Y10274300D01*
X44300140Y10359934D01*
X44342957Y10402751D01*
X44856763Y9203871D02*
X44385774Y9203871D01*
X44300140Y9246688D01*
X44257323Y9332322D01*
X44257323Y9503591D01*
X44300140Y9589225D01*
X44813946Y9203871D02*
X44856763Y9289505D01*
X44856763Y9503591D01*
X44813946Y9589225D01*
X44728311Y9632042D01*
X44642677Y9632042D01*
X44557043Y9589225D01*
X44514226Y9503591D01*
X44514226Y9289505D01*
X44471409Y9203871D01*
X44856763Y8775699D02*
X44257323Y8775699D01*
X44428591Y8775699D02*
X44342957Y8732882D01*
X44300140Y8690065D01*
X44257323Y8604431D01*
X44257323Y8518796D01*
X44856763Y7833722D02*
X43957603Y7833722D01*
X44813946Y7833722D02*
X44856763Y7919356D01*
X44856763Y8090625D01*
X44813946Y8176259D01*
X44771129Y8219076D01*
X44685494Y8261893D01*
X44428591Y8261893D01*
X44342957Y8219076D01*
X44300140Y8176259D01*
X44257323Y8090625D01*
X44257323Y7919356D01*
X44300140Y7833722D01*
X44257323Y7491185D02*
X44856763Y7319916D01*
X44428591Y7148647D01*
X44856763Y6977379D01*
X44257323Y6806110D01*
X44856763Y6078219D02*
X44385774Y6078219D01*
X44300140Y6121036D01*
X44257323Y6206670D01*
X44257323Y6377939D01*
X44300140Y6463573D01*
X44813946Y6078219D02*
X44856763Y6163853D01*
X44856763Y6377939D01*
X44813946Y6463573D01*
X44728311Y6506390D01*
X44642677Y6506390D01*
X44557043Y6463573D01*
X44514226Y6377939D01*
X44514226Y6163853D01*
X44471409Y6078219D01*
X44856763Y5650047D02*
X44257323Y5650047D01*
X44428591Y5650047D02*
X44342957Y5607230D01*
X44300140Y5564413D01*
X44257323Y5478779D01*
X44257323Y5393144D01*
X44813946Y4750887D02*
X44856763Y4836521D01*
X44856763Y5007790D01*
X44813946Y5093424D01*
X44728311Y5136241D01*
X44385774Y5136241D01*
X44300140Y5093424D01*
X44257323Y5007790D01*
X44257323Y4836521D01*
X44300140Y4750887D01*
X44385774Y4708070D01*
X44471409Y4708070D01*
X44557043Y5136241D01*
X28575000Y10922000D02*
X28575000Y8382000D01*
X28575000Y8382000D02*
X30099000Y8382000D01*
X30099000Y8382000D02*
X30099000Y10922000D01*
X30099000Y10922000D02*
X28575000Y10922000D01*
X16383000Y6350000D02*
X16383000Y3810000D01*
X16383000Y3810000D02*
X17907000Y3810000D01*
X17907000Y3810000D02*
X17907000Y6350000D01*
X17907000Y6350000D02*
X16383000Y6350000D01*
X21209000Y10795000D02*
X21209000Y13335000D01*
X21209000Y13335000D02*
X19685000Y13335000D01*
X19685000Y13335000D02*
X19685000Y10795000D01*
X19685000Y10795000D02*
X21209000Y10795000D01*
X14732000Y10795000D02*
X14732000Y13335000D01*
X14732000Y13335000D02*
X13208000Y13335000D01*
X13208000Y13335000D02*
X13208000Y10795000D01*
X13208000Y10795000D02*
X14732000Y10795000D01*
X26797000Y3810000D02*
X26797000Y6350000D01*
X26797000Y6350000D02*
X25273000Y6350000D01*
X25273000Y6350000D02*
X25273000Y3810000D01*
X25273000Y3810000D02*
X26797000Y3810000D01*
X12192000Y10223500D02*
X10668000Y10223500D01*
X12192000Y10477500D02*
X12192000Y13652500D01*
X12192000Y13652500D02*
X10668000Y13652500D01*
X10668000Y13652500D02*
X10668000Y10477500D01*
X10668000Y10477500D02*
X12192000Y10477500D01*
X20320000Y9906000D02*
X17780000Y9906000D01*
X17780000Y9906000D02*
X17780000Y8382000D01*
X17780000Y8382000D02*
X20320000Y8382000D01*
X20320000Y8382000D02*
X20320000Y9906000D01*
D13*
G36*
X43639740Y12184380D02*
X43619420Y12148820D01*
X43571160Y12070080D01*
X43497500Y11958320D01*
X43411140Y11826240D01*
X43319700Y11694160D01*
X43248580Y11584940D01*
X43197780Y11508740D01*
X43180000Y11478260D01*
X43187620Y11460480D01*
X43218100Y11396980D01*
X43263820Y11308080D01*
X43291760Y11254740D01*
X43327320Y11170920D01*
X43334940Y11127740D01*
X43324780Y11122660D01*
X43261280Y11092180D01*
X43152060Y11043920D01*
X43007280Y10980420D01*
X42837100Y10906760D01*
X42654220Y10830560D01*
X42468800Y10751820D01*
X42291000Y10678160D01*
X42130980Y10614660D01*
X41998900Y10561320D01*
X41910000Y10525760D01*
X41871900Y10513060D01*
X41861740Y10518140D01*
X41821100Y10558780D01*
X41767760Y10632440D01*
X41638220Y10789920D01*
X41445180Y10947400D01*
X41224200Y11041380D01*
X40977820Y11074400D01*
X40749220Y11046460D01*
X40530780Y10957560D01*
X40335200Y10805160D01*
X40187880Y10619740D01*
X40096440Y10403840D01*
X40065960Y10160000D01*
X40091360Y9928860D01*
X40180260Y9705340D01*
X40330120Y9507220D01*
X40426640Y9423400D01*
X40624760Y9309100D01*
X40838120Y9245600D01*
X40894000Y9237980D01*
X41127680Y9248140D01*
X41351200Y9316720D01*
X41551860Y9441180D01*
X41716960Y9611360D01*
X41732200Y9634220D01*
X41793160Y9712960D01*
X41833800Y9766300D01*
X41866820Y9809480D01*
X42585640Y9509760D01*
X42699940Y9461500D01*
X42898060Y9380220D01*
X43065700Y9309100D01*
X43200320Y9250680D01*
X43291760Y9210040D01*
X43327320Y9192260D01*
X43329860Y9192260D01*
X43334940Y9164320D01*
X43314620Y9110980D01*
X43266360Y9009380D01*
X43230800Y8943340D01*
X43195240Y8867140D01*
X43180000Y8831580D01*
X43197780Y8803640D01*
X43243500Y8729980D01*
X43314620Y8623300D01*
X43403520Y8493760D01*
X43487340Y8371840D01*
X43561000Y8260080D01*
X43614340Y8178800D01*
X43634660Y8138160D01*
X43634660Y8133080D01*
X43614340Y8097520D01*
X43561000Y8031480D01*
X43469560Y7934960D01*
X43332400Y7795260D01*
X43309540Y7774940D01*
X43195240Y7660640D01*
X43098720Y7569200D01*
X43027600Y7505700D01*
X42997120Y7482840D01*
X42997120Y7482840D01*
X42959020Y7503160D01*
X42875200Y7556500D01*
X42760900Y7630160D01*
X42628820Y7721600D01*
X42283380Y7960360D01*
X41955720Y7828280D01*
X41856660Y7787640D01*
X41734740Y7736840D01*
X41648380Y7698740D01*
X41610280Y7680960D01*
X41597580Y7645400D01*
X41577260Y7556500D01*
X41549320Y7426960D01*
X41521380Y7272020D01*
X41493440Y7124700D01*
X41468040Y6992620D01*
X41450260Y6896100D01*
X41442640Y6852920D01*
X41435020Y6842760D01*
X41414700Y6832600D01*
X41368980Y6827520D01*
X41287700Y6824980D01*
X41160700Y6822440D01*
X40977820Y6822440D01*
X40957500Y6822440D01*
X40782240Y6824980D01*
X40642540Y6827520D01*
X40551100Y6832600D01*
X40515540Y6837680D01*
X40515540Y6837680D01*
X40505380Y6880860D01*
X40485060Y6974840D01*
X40459660Y7106920D01*
X40429180Y7264400D01*
X40426640Y7274560D01*
X40396160Y7432040D01*
X40368220Y7566660D01*
X40347900Y7658100D01*
X40335200Y7696200D01*
X40325040Y7706360D01*
X40261540Y7736840D01*
X40165020Y7782560D01*
X40045640Y7835900D01*
X39921180Y7886700D01*
X39809420Y7929880D01*
X39725600Y7960360D01*
X39687500Y7970520D01*
X39687500Y7970520D01*
X39649400Y7945120D01*
X39568120Y7891780D01*
X39453820Y7815580D01*
X39319200Y7721600D01*
X39309040Y7716520D01*
X39176960Y7625080D01*
X39062660Y7551420D01*
X38981380Y7503160D01*
X38945820Y7482840D01*
X38943280Y7485380D01*
X38905180Y7513320D01*
X38828980Y7581900D01*
X38727380Y7678420D01*
X38608000Y7795260D01*
X38572440Y7833360D01*
X38445440Y7962900D01*
X38361620Y8054340D01*
X38318440Y8110220D01*
X38308280Y8135620D01*
X38308280Y8138160D01*
X38333680Y8178800D01*
X38389560Y8262620D01*
X38465760Y8376920D01*
X38557200Y8511540D01*
X38564820Y8521700D01*
X38656260Y8653780D01*
X38729920Y8765540D01*
X38783260Y8844280D01*
X38803580Y8879840D01*
X38803580Y8884920D01*
X38788340Y8940800D01*
X38755320Y9034780D01*
X38709600Y9151620D01*
X38658800Y9276080D01*
X38613080Y9387840D01*
X38574980Y9471660D01*
X38552120Y9509760D01*
X38549580Y9512300D01*
X38501320Y9525000D01*
X38402260Y9547860D01*
X38265100Y9578340D01*
X38100000Y9608820D01*
X38074600Y9613900D01*
X37914580Y9644380D01*
X37785040Y9669780D01*
X37693600Y9687560D01*
X37655500Y9697720D01*
X37650420Y9720580D01*
X37645340Y9796780D01*
X37642800Y9916160D01*
X37640260Y10058400D01*
X37640260Y10210800D01*
X37645340Y10358120D01*
X37647880Y10482580D01*
X37655500Y10574020D01*
X37663120Y10612120D01*
X37665660Y10612120D01*
X37713920Y10627360D01*
X37812980Y10647680D01*
X37952680Y10675620D01*
X38115240Y10708640D01*
X38145720Y10713720D01*
X38303200Y10744200D01*
X38432740Y10769600D01*
X38524180Y10789920D01*
X38559740Y10800080D01*
X38567360Y10812780D01*
X38595300Y10878820D01*
X38638480Y10985500D01*
X38691820Y11117580D01*
X38816280Y11422380D01*
X38559740Y11798300D01*
X38536880Y11831320D01*
X38442900Y11965940D01*
X38369240Y12077700D01*
X38320980Y12153900D01*
X38303200Y12186920D01*
X38303200Y12189460D01*
X38336220Y12227560D01*
X38404800Y12301220D01*
X38503860Y12402820D01*
X38623240Y12519660D01*
X38709600Y12608560D01*
X38813740Y12710160D01*
X38884860Y12776200D01*
X38930580Y12811760D01*
X38958520Y12824460D01*
X38976300Y12821920D01*
X39014400Y12796520D01*
X39098220Y12743180D01*
X39209980Y12664440D01*
X39344600Y12573000D01*
X39453820Y12499340D01*
X39580820Y12418060D01*
X39669720Y12364720D01*
X39712900Y12346940D01*
X39733220Y12352020D01*
X39804340Y12377420D01*
X39916100Y12420600D01*
X40048180Y12479020D01*
X40345360Y12608560D01*
X40383460Y12801600D01*
X40403780Y12920980D01*
X40436800Y13086080D01*
X40467280Y13243560D01*
X40515540Y13489940D01*
X41419780Y13497560D01*
X41435020Y13459460D01*
X41445180Y13423900D01*
X41465500Y13332460D01*
X41490900Y13202920D01*
X41518840Y13047980D01*
X41544240Y12918440D01*
X41569640Y12786360D01*
X41587420Y12689840D01*
X41597580Y12649200D01*
X41610280Y12639040D01*
X41673780Y12606020D01*
X41775380Y12557760D01*
X41897300Y12506960D01*
X42024300Y12453620D01*
X42141140Y12407900D01*
X42230040Y12374880D01*
X42278300Y12362180D01*
X42311320Y12379960D01*
X42390060Y12430760D01*
X42499280Y12501880D01*
X42631360Y12593320D01*
X42760900Y12682220D01*
X42875200Y12758420D01*
X42953940Y12809220D01*
X42992040Y12832080D01*
X43017440Y12821920D01*
X43080940Y12768580D01*
X43182540Y12669520D01*
X43327320Y12522200D01*
X43350180Y12499340D01*
X43464480Y12382500D01*
X43555920Y12283440D01*
X43616880Y12214860D01*
X43639740Y12184380D01*
X43639740Y12184380D01*
G37*
X43639740Y12184380D02*
X43619420Y12148820D01*
X43571160Y12070080D01*
X43497500Y11958320D01*
X43411140Y11826240D01*
X43319700Y11694160D01*
X43248580Y11584940D01*
X43197780Y11508740D01*
X43180000Y11478260D01*
X43187620Y11460480D01*
X43218100Y11396980D01*
X43263820Y11308080D01*
X43291760Y11254740D01*
X43327320Y11170920D01*
X43334940Y11127740D01*
X43324780Y11122660D01*
X43261280Y11092180D01*
X43152060Y11043920D01*
X43007280Y10980420D01*
X42837100Y10906760D01*
X42654220Y10830560D01*
X42468800Y10751820D01*
X42291000Y10678160D01*
X42130980Y10614660D01*
X41998900Y10561320D01*
X41910000Y10525760D01*
X41871900Y10513060D01*
X41861740Y10518140D01*
X41821100Y10558780D01*
X41767760Y10632440D01*
X41638220Y10789920D01*
X41445180Y10947400D01*
X41224200Y11041380D01*
X40977820Y11074400D01*
X40749220Y11046460D01*
X40530780Y10957560D01*
X40335200Y10805160D01*
X40187880Y10619740D01*
X40096440Y10403840D01*
X40065960Y10160000D01*
X40091360Y9928860D01*
X40180260Y9705340D01*
X40330120Y9507220D01*
X40426640Y9423400D01*
X40624760Y9309100D01*
X40838120Y9245600D01*
X40894000Y9237980D01*
X41127680Y9248140D01*
X41351200Y9316720D01*
X41551860Y9441180D01*
X41716960Y9611360D01*
X41732200Y9634220D01*
X41793160Y9712960D01*
X41833800Y9766300D01*
X41866820Y9809480D01*
X42585640Y9509760D01*
X42699940Y9461500D01*
X42898060Y9380220D01*
X43065700Y9309100D01*
X43200320Y9250680D01*
X43291760Y9210040D01*
X43327320Y9192260D01*
X43329860Y9192260D01*
X43334940Y9164320D01*
X43314620Y9110980D01*
X43266360Y9009380D01*
X43230800Y8943340D01*
X43195240Y8867140D01*
X43180000Y8831580D01*
X43197780Y8803640D01*
X43243500Y8729980D01*
X43314620Y8623300D01*
X43403520Y8493760D01*
X43487340Y8371840D01*
X43561000Y8260080D01*
X43614340Y8178800D01*
X43634660Y8138160D01*
X43634660Y8133080D01*
X43614340Y8097520D01*
X43561000Y8031480D01*
X43469560Y7934960D01*
X43332400Y7795260D01*
X43309540Y7774940D01*
X43195240Y7660640D01*
X43098720Y7569200D01*
X43027600Y7505700D01*
X42997120Y7482840D01*
X42997120Y7482840D01*
X42959020Y7503160D01*
X42875200Y7556500D01*
X42760900Y7630160D01*
X42628820Y7721600D01*
X42283380Y7960360D01*
X41955720Y7828280D01*
X41856660Y7787640D01*
X41734740Y7736840D01*
X41648380Y7698740D01*
X41610280Y7680960D01*
X41597580Y7645400D01*
X41577260Y7556500D01*
X41549320Y7426960D01*
X41521380Y7272020D01*
X41493440Y7124700D01*
X41468040Y6992620D01*
X41450260Y6896100D01*
X41442640Y6852920D01*
X41435020Y6842760D01*
X41414700Y6832600D01*
X41368980Y6827520D01*
X41287700Y6824980D01*
X41160700Y6822440D01*
X40977820Y6822440D01*
X40957500Y6822440D01*
X40782240Y6824980D01*
X40642540Y6827520D01*
X40551100Y6832600D01*
X40515540Y6837680D01*
X40515540Y6837680D01*
X40505380Y6880860D01*
X40485060Y6974840D01*
X40459660Y7106920D01*
X40429180Y7264400D01*
X40426640Y7274560D01*
X40396160Y7432040D01*
X40368220Y7566660D01*
X40347900Y7658100D01*
X40335200Y7696200D01*
X40325040Y7706360D01*
X40261540Y7736840D01*
X40165020Y7782560D01*
X40045640Y7835900D01*
X39921180Y7886700D01*
X39809420Y7929880D01*
X39725600Y7960360D01*
X39687500Y7970520D01*
X39687500Y7970520D01*
X39649400Y7945120D01*
X39568120Y7891780D01*
X39453820Y7815580D01*
X39319200Y7721600D01*
X39309040Y7716520D01*
X39176960Y7625080D01*
X39062660Y7551420D01*
X38981380Y7503160D01*
X38945820Y7482840D01*
X38943280Y7485380D01*
X38905180Y7513320D01*
X38828980Y7581900D01*
X38727380Y7678420D01*
X38608000Y7795260D01*
X38572440Y7833360D01*
X38445440Y7962900D01*
X38361620Y8054340D01*
X38318440Y8110220D01*
X38308280Y8135620D01*
X38308280Y8138160D01*
X38333680Y8178800D01*
X38389560Y8262620D01*
X38465760Y8376920D01*
X38557200Y8511540D01*
X38564820Y8521700D01*
X38656260Y8653780D01*
X38729920Y8765540D01*
X38783260Y8844280D01*
X38803580Y8879840D01*
X38803580Y8884920D01*
X38788340Y8940800D01*
X38755320Y9034780D01*
X38709600Y9151620D01*
X38658800Y9276080D01*
X38613080Y9387840D01*
X38574980Y9471660D01*
X38552120Y9509760D01*
X38549580Y9512300D01*
X38501320Y9525000D01*
X38402260Y9547860D01*
X38265100Y9578340D01*
X38100000Y9608820D01*
X38074600Y9613900D01*
X37914580Y9644380D01*
X37785040Y9669780D01*
X37693600Y9687560D01*
X37655500Y9697720D01*
X37650420Y9720580D01*
X37645340Y9796780D01*
X37642800Y9916160D01*
X37640260Y10058400D01*
X37640260Y10210800D01*
X37645340Y10358120D01*
X37647880Y10482580D01*
X37655500Y10574020D01*
X37663120Y10612120D01*
X37665660Y10612120D01*
X37713920Y10627360D01*
X37812980Y10647680D01*
X37952680Y10675620D01*
X38115240Y10708640D01*
X38145720Y10713720D01*
X38303200Y10744200D01*
X38432740Y10769600D01*
X38524180Y10789920D01*
X38559740Y10800080D01*
X38567360Y10812780D01*
X38595300Y10878820D01*
X38638480Y10985500D01*
X38691820Y11117580D01*
X38816280Y11422380D01*
X38559740Y11798300D01*
X38536880Y11831320D01*
X38442900Y11965940D01*
X38369240Y12077700D01*
X38320980Y12153900D01*
X38303200Y12186920D01*
X38303200Y12189460D01*
X38336220Y12227560D01*
X38404800Y12301220D01*
X38503860Y12402820D01*
X38623240Y12519660D01*
X38709600Y12608560D01*
X38813740Y12710160D01*
X38884860Y12776200D01*
X38930580Y12811760D01*
X38958520Y12824460D01*
X38976300Y12821920D01*
X39014400Y12796520D01*
X39098220Y12743180D01*
X39209980Y12664440D01*
X39344600Y12573000D01*
X39453820Y12499340D01*
X39580820Y12418060D01*
X39669720Y12364720D01*
X39712900Y12346940D01*
X39733220Y12352020D01*
X39804340Y12377420D01*
X39916100Y12420600D01*
X40048180Y12479020D01*
X40345360Y12608560D01*
X40383460Y12801600D01*
X40403780Y12920980D01*
X40436800Y13086080D01*
X40467280Y13243560D01*
X40515540Y13489940D01*
X41419780Y13497560D01*
X41435020Y13459460D01*
X41445180Y13423900D01*
X41465500Y13332460D01*
X41490900Y13202920D01*
X41518840Y13047980D01*
X41544240Y12918440D01*
X41569640Y12786360D01*
X41587420Y12689840D01*
X41597580Y12649200D01*
X41610280Y12639040D01*
X41673780Y12606020D01*
X41775380Y12557760D01*
X41897300Y12506960D01*
X42024300Y12453620D01*
X42141140Y12407900D01*
X42230040Y12374880D01*
X42278300Y12362180D01*
X42311320Y12379960D01*
X42390060Y12430760D01*
X42499280Y12501880D01*
X42631360Y12593320D01*
X42760900Y12682220D01*
X42875200Y12758420D01*
X42953940Y12809220D01*
X42992040Y12832080D01*
X43017440Y12821920D01*
X43080940Y12768580D01*
X43182540Y12669520D01*
X43327320Y12522200D01*
X43350180Y12499340D01*
X43464480Y12382500D01*
X43555920Y12283440D01*
X43616880Y12214860D01*
X43639740Y12184380D01*
D10*
X39185000Y4160000D02*
X37885000Y4160000D01*
X37885000Y4160000D02*
X37185000Y5160000D01*
X37185000Y5160000D02*
X36985000Y5160000D01*
X41485000Y4160000D02*
X45385000Y4160000D01*
X39185000Y5160000D02*
X40485000Y5160000D01*
X40485000Y5160000D02*
X41485000Y4160000D01*
X39185000Y4160000D02*
X39185000Y5160000D01*
X37385000Y15160000D02*
X36885000Y15160000D01*
X46285000Y14260000D02*
X46285000Y5060000D01*
X46285000Y5060000D02*
G75*
G02X45385000Y4160000I-900000J0D01*
G01*
X45385000Y15160000D02*
G75*
G02X46285000Y14260000I0J-900000D01*
G01*
X37385000Y15160000D02*
X45385000Y15160000D01*
X31085000Y15560000D02*
X31085000Y4060000D01*
X31085000Y4060000D02*
X36085000Y4060000D01*
X36085000Y4060000D02*
X36585000Y4060000D01*
X36585000Y4060000D02*
X36585000Y15560000D01*
X36585000Y15560000D02*
X31085000Y15560000D01*
X45720000Y15875000D02*
X0Y15875000D01*
X0Y15875000D02*
X0Y18415000D01*
X0Y18415000D02*
X45720000Y18415000D01*
X45720000Y18415000D02*
X45720000Y15875000D01*
X45720000Y635000D02*
X0Y635000D01*
X0Y635000D02*
X0Y3175000D01*
X0Y3175000D02*
X45720000Y3175000D01*
X45720000Y3175000D02*
X45720000Y635000D01*
D14*
X23558500Y11564620D02*
X23558500Y10858500D01*
X23558500Y10858500D02*
X22161500Y10858500D01*
X22161500Y10858500D02*
X22161500Y11564620D01*
X23558500Y13271500D02*
X23558500Y12565380D01*
X23558500Y13271500D02*
X22161500Y13271500D01*
X22161500Y13271500D02*
X22161500Y12565380D01*
D10*
X16621760Y10765840D02*
X16621760Y10814100D01*
X17322800Y13564820D02*
X16621760Y13564820D01*
X16621760Y13564820D02*
X16621760Y13315900D01*
X16621760Y10765840D02*
X16621760Y10565180D01*
X16621760Y10565180D02*
X17322800Y10565180D01*
D15*
X14892000Y3572000D02*
X8892000Y3572000D01*
X14892000Y3572000D02*
X14892000Y5572000D01*
X14892000Y5572000D02*
X8892000Y5572000D01*
X8892000Y3572000D02*
X8892000Y5572000D01*
D10*
X21231519Y6664960D02*
G75*
G03X21231519Y6664960I-141899J0D01*
G01*
X22291040Y7564120D02*
X20888960Y7564120D01*
X20888960Y3865880D02*
X22291040Y3865880D01*
D12*
X29658129Y7642860D02*
X29700946Y7685677D01*
X29743763Y7814128D01*
X29743763Y7899762D01*
X29700946Y8028214D01*
X29615311Y8113848D01*
X29529677Y8156665D01*
X29358409Y8199482D01*
X29229957Y8199482D01*
X29058689Y8156665D01*
X28973054Y8113848D01*
X28887420Y8028214D01*
X28844603Y7899762D01*
X28844603Y7814128D01*
X28887420Y7685677D01*
X28930237Y7642860D01*
X28930237Y7300322D02*
X28887420Y7257505D01*
X28844603Y7171871D01*
X28844603Y6957785D01*
X28887420Y6872151D01*
X28930237Y6829334D01*
X29015871Y6786517D01*
X29101506Y6786517D01*
X29229957Y6829334D01*
X29743763Y7343140D01*
X29743763Y6786517D01*
X17466129Y7515860D02*
X17508946Y7558677D01*
X17551763Y7687128D01*
X17551763Y7772762D01*
X17508946Y7901214D01*
X17423311Y7986848D01*
X17337677Y8029665D01*
X17166409Y8072482D01*
X17037957Y8072482D01*
X16866689Y8029665D01*
X16781054Y7986848D01*
X16695420Y7901214D01*
X16652603Y7772762D01*
X16652603Y7687128D01*
X16695420Y7558677D01*
X16738237Y7515860D01*
X17551763Y7087688D02*
X17551763Y6916420D01*
X17508946Y6830785D01*
X17466129Y6787968D01*
X17337677Y6702334D01*
X17166409Y6659517D01*
X16823871Y6659517D01*
X16738237Y6702334D01*
X16695420Y6745151D01*
X16652603Y6830785D01*
X16652603Y7002054D01*
X16695420Y7087688D01*
X16738237Y7130505D01*
X16823871Y7173322D01*
X17037957Y7173322D01*
X17123591Y7130505D01*
X17166409Y7087688D01*
X17209226Y7002054D01*
X17209226Y6830785D01*
X17166409Y6745151D01*
X17123591Y6702334D01*
X17037957Y6659517D01*
X20768129Y15183032D02*
X20810946Y15225849D01*
X20853763Y15354300D01*
X20853763Y15439934D01*
X20810946Y15568386D01*
X20725311Y15654020D01*
X20639677Y15696837D01*
X20468409Y15739654D01*
X20339957Y15739654D01*
X20168689Y15696837D01*
X20083054Y15654020D01*
X19997420Y15568386D01*
X19954603Y15439934D01*
X19954603Y15354300D01*
X19997420Y15225849D01*
X20040237Y15183032D01*
X20853763Y14326689D02*
X20853763Y14840494D01*
X20853763Y14583592D02*
X19954603Y14583592D01*
X20083054Y14669226D01*
X20168689Y14754860D01*
X20211506Y14840494D01*
X20853763Y13470346D02*
X20853763Y13984151D01*
X20853763Y13727249D02*
X19954603Y13727249D01*
X20083054Y13812883D01*
X20168689Y13898517D01*
X20211506Y13984151D01*
X14291129Y15183032D02*
X14333946Y15225849D01*
X14376763Y15354300D01*
X14376763Y15439934D01*
X14333946Y15568386D01*
X14248311Y15654020D01*
X14162677Y15696837D01*
X13991409Y15739654D01*
X13862957Y15739654D01*
X13691689Y15696837D01*
X13606054Y15654020D01*
X13520420Y15568386D01*
X13477603Y15439934D01*
X13477603Y15354300D01*
X13520420Y15225849D01*
X13563237Y15183032D01*
X14376763Y14326689D02*
X14376763Y14840494D01*
X14376763Y14583592D02*
X13477603Y14583592D01*
X13606054Y14669226D01*
X13691689Y14754860D01*
X13734506Y14840494D01*
X13563237Y13984151D02*
X13520420Y13941334D01*
X13477603Y13855700D01*
X13477603Y13641614D01*
X13520420Y13555980D01*
X13563237Y13513163D01*
X13648871Y13470346D01*
X13734506Y13470346D01*
X13862957Y13513163D01*
X14376763Y14026969D01*
X14376763Y13470346D01*
X26356129Y8579032D02*
X26398946Y8621849D01*
X26441763Y8750300D01*
X26441763Y8835934D01*
X26398946Y8964386D01*
X26313311Y9050020D01*
X26227677Y9092837D01*
X26056409Y9135654D01*
X25927957Y9135654D01*
X25756689Y9092837D01*
X25671054Y9050020D01*
X25585420Y8964386D01*
X25542603Y8835934D01*
X25542603Y8750300D01*
X25585420Y8621849D01*
X25628237Y8579032D01*
X26441763Y7722689D02*
X26441763Y8236494D01*
X26441763Y7979592D02*
X25542603Y7979592D01*
X25671054Y8065226D01*
X25756689Y8150860D01*
X25799506Y8236494D01*
X25542603Y7422969D02*
X25542603Y6866346D01*
X25885140Y7166066D01*
X25885140Y7037614D01*
X25927957Y6951980D01*
X25970774Y6909163D01*
X26056409Y6866346D01*
X26270494Y6866346D01*
X26356129Y6909163D01*
X26398946Y6951980D01*
X26441763Y7037614D01*
X26441763Y7294517D01*
X26398946Y7380151D01*
X26356129Y7422969D01*
X11836763Y9807665D02*
X10937603Y9807665D01*
X10937603Y9593580D01*
X10980420Y9465128D01*
X11066054Y9379494D01*
X11151689Y9336677D01*
X11322957Y9293860D01*
X11451409Y9293860D01*
X11622677Y9336677D01*
X11708311Y9379494D01*
X11793946Y9465128D01*
X11836763Y9593580D01*
X11836763Y9807665D01*
X10937603Y8994140D02*
X10937603Y8437517D01*
X11280140Y8737237D01*
X11280140Y8608785D01*
X11322957Y8523151D01*
X11365774Y8480334D01*
X11451409Y8437517D01*
X11665494Y8437517D01*
X11751129Y8480334D01*
X11793946Y8523151D01*
X11836763Y8608785D01*
X11836763Y8865688D01*
X11793946Y8951322D01*
X11751129Y8994140D01*
X16878300Y9208226D02*
X17178020Y9208226D01*
X17178020Y8737237D02*
X17178020Y9636397D01*
X16749849Y9636397D01*
X16107591Y9208226D02*
X15979140Y9165409D01*
X15936323Y9122591D01*
X15893506Y9036957D01*
X15893506Y8908506D01*
X15936323Y8822871D01*
X15979140Y8780054D01*
X16064774Y8737237D01*
X16407311Y8737237D01*
X16407311Y9636397D01*
X16107591Y9636397D01*
X16021957Y9593580D01*
X15979140Y9550763D01*
X15936323Y9465129D01*
X15936323Y9379494D01*
X15979140Y9293860D01*
X16021957Y9251043D01*
X16107591Y9208226D01*
X16407311Y9208226D01*
X15037163Y8737237D02*
X15550968Y8737237D01*
X15294066Y8737237D02*
X15294066Y9636397D01*
X15379700Y9507946D01*
X15465334Y9422311D01*
X15550968Y9379494D01*
D16*
X23062535Y14873514D02*
X23086362Y14808200D01*
X23086362Y14699343D01*
X23062535Y14655800D01*
X23038707Y14634029D01*
X22991052Y14612257D01*
X22943397Y14612257D01*
X22895741Y14634029D01*
X22871914Y14655800D01*
X22848086Y14699343D01*
X22824259Y14786429D01*
X22800431Y14829971D01*
X22776603Y14851743D01*
X22728948Y14873514D01*
X22681293Y14873514D01*
X22633638Y14851743D01*
X22609810Y14829971D01*
X22585982Y14786429D01*
X22585982Y14677571D01*
X22609810Y14612257D01*
X22585982Y14285685D02*
X22943397Y14285685D01*
X23014880Y14307457D01*
X23062535Y14351000D01*
X23086362Y14416314D01*
X23086362Y14459857D01*
X22585982Y13872028D02*
X22585982Y13959114D01*
X22609810Y14002657D01*
X22633638Y14024428D01*
X22705120Y14067971D01*
X22800431Y14089742D01*
X22991052Y14089742D01*
X23038707Y14067971D01*
X23062535Y14046199D01*
X23086362Y14002657D01*
X23086362Y13915571D01*
X23062535Y13872028D01*
X23038707Y13850257D01*
X22991052Y13828485D01*
X22871914Y13828485D01*
X22824259Y13850257D01*
X22800431Y13872028D01*
X22776603Y13915571D01*
X22776603Y14002657D01*
X22800431Y14046199D01*
X22824259Y14067971D01*
X22871914Y14089742D01*
D10*
X17232381Y15493905D02*
X18041905Y15493905D01*
X18137143Y15446286D01*
X18184762Y15398667D01*
X18232381Y15303429D01*
X18232381Y15112952D01*
X18184762Y15017714D01*
X18137143Y14970095D01*
X18041905Y14922476D01*
X17232381Y14922476D01*
X17327619Y14493905D02*
X17280000Y14446286D01*
X17232381Y14351048D01*
X17232381Y14112952D01*
X17280000Y14017714D01*
X17327619Y13970095D01*
X17422857Y13922476D01*
X17518095Y13922476D01*
X17660952Y13970095D01*
X18232381Y14541524D01*
X18232381Y13922476D01*
D17*
X14477952Y6496048D02*
X14477952Y6115095D01*
X14744619Y6915095D02*
X14477952Y6496048D01*
X14211285Y6915095D01*
X13525571Y6115095D02*
X13982714Y6115095D01*
X13754143Y6115095D02*
X13754143Y6915095D01*
X13830333Y6800810D01*
X13906524Y6724619D01*
X13982714Y6686524D01*
X12699619Y6915095D02*
X12204381Y6915095D01*
X12471048Y6610333D01*
X12356762Y6610333D01*
X12280572Y6572238D01*
X12242476Y6534143D01*
X12204381Y6457952D01*
X12204381Y6267476D01*
X12242476Y6191286D01*
X12280572Y6153190D01*
X12356762Y6115095D01*
X12585334Y6115095D01*
X12661524Y6153190D01*
X12699619Y6191286D01*
X11899619Y6838905D02*
X11861524Y6877000D01*
X11785333Y6915095D01*
X11594857Y6915095D01*
X11518667Y6877000D01*
X11480571Y6838905D01*
X11442476Y6762714D01*
X11442476Y6686524D01*
X11480571Y6572238D01*
X11937714Y6115095D01*
X11442476Y6115095D01*
X11099619Y6191286D02*
X11061524Y6153190D01*
X11099619Y6115095D01*
X11137714Y6153190D01*
X11099619Y6191286D01*
X11099619Y6115095D01*
X10794857Y6915095D02*
X10261524Y6915095D01*
X10604381Y6115095D01*
X9613905Y6915095D02*
X9766286Y6915095D01*
X9842476Y6877000D01*
X9880571Y6838905D01*
X9956762Y6724619D01*
X9994857Y6572238D01*
X9994857Y6267476D01*
X9956762Y6191286D01*
X9918667Y6153190D01*
X9842476Y6115095D01*
X9690095Y6115095D01*
X9613905Y6153190D01*
X9575809Y6191286D01*
X9537714Y6267476D01*
X9537714Y6457952D01*
X9575809Y6534143D01*
X9613905Y6572238D01*
X9690095Y6610333D01*
X9842476Y6610333D01*
X9918667Y6572238D01*
X9956762Y6534143D01*
X9994857Y6457952D01*
X9080571Y6572238D02*
X9156762Y6610333D01*
X9194857Y6648429D01*
X9232952Y6724619D01*
X9232952Y6762714D01*
X9194857Y6838905D01*
X9156762Y6877000D01*
X9080571Y6915095D01*
X8928190Y6915095D01*
X8852000Y6877000D01*
X8813904Y6838905D01*
X8775809Y6762714D01*
X8775809Y6724619D01*
X8813904Y6648429D01*
X8852000Y6610333D01*
X8928190Y6572238D01*
X9080571Y6572238D01*
X9156762Y6534143D01*
X9194857Y6496048D01*
X9232952Y6419857D01*
X9232952Y6267476D01*
X9194857Y6191286D01*
X9156762Y6153190D01*
X9080571Y6115095D01*
X8928190Y6115095D01*
X8852000Y6153190D01*
X8813904Y6191286D01*
X8775809Y6267476D01*
X8775809Y6419857D01*
X8813904Y6496048D01*
X8852000Y6534143D01*
X8928190Y6572238D01*
X8432952Y6115095D02*
X8432952Y6915095D01*
X8356761Y6419857D02*
X8128190Y6115095D01*
X8128190Y6648429D02*
X8432952Y6343667D01*
X7785333Y6115095D02*
X7785333Y6915095D01*
X7785333Y6534143D02*
X7328190Y6534143D01*
X7328190Y6115095D02*
X7328190Y6915095D01*
X7023428Y6648429D02*
X6604381Y6648429D01*
X7023428Y6115095D01*
X6604381Y6115095D01*
D10*
X24685524Y10453619D02*
X24018857Y9453619D01*
X24018857Y10453619D02*
X24685524Y9453619D01*
X23114095Y9453619D02*
X23685524Y9453619D01*
X23399810Y9453619D02*
X23399810Y10453619D01*
X23495048Y10310762D01*
X23590286Y10215524D01*
X23685524Y10167905D01*
X24455238Y8755048D02*
X24550476Y8802667D01*
X24598095Y8850286D01*
X24645714Y8945524D01*
X24645714Y8993143D01*
X24598095Y9088381D01*
X24550476Y9136000D01*
X24455238Y9183619D01*
X24264761Y9183619D01*
X24169523Y9136000D01*
X24121904Y9088381D01*
X24074285Y8993143D01*
X24074285Y8945524D01*
X24121904Y8850286D01*
X24169523Y8802667D01*
X24264761Y8755048D01*
X24455238Y8755048D01*
X24550476Y8707429D01*
X24598095Y8659810D01*
X24645714Y8564571D01*
X24645714Y8374095D01*
X24598095Y8278857D01*
X24550476Y8231238D01*
X24455238Y8183619D01*
X24264761Y8183619D01*
X24169523Y8231238D01*
X24121904Y8278857D01*
X24074285Y8374095D01*
X24074285Y8564571D01*
X24121904Y8659810D01*
X24169523Y8707429D01*
X24264761Y8755048D01*
X23645714Y8183619D02*
X23645714Y9183619D01*
X23312380Y8469333D01*
X22979047Y9183619D01*
X22979047Y8183619D01*
X22502857Y8183619D02*
X22502857Y9183619D01*
X22502857Y8707429D02*
X21931428Y8707429D01*
X21931428Y8183619D02*
X21931428Y9183619D01*
X21550476Y8850286D02*
X21026666Y8850286D01*
X21550476Y8183619D01*
X21026666Y8183619D01*
M02*
