G04 #@! TF.FileFunction,Legend,Bot*
%FSLAX46Y46*%
G04 Gerber Fmt 4.6, Leading zero omitted, Abs format (unit mm)*
G04 Created by KiCad (PCBNEW 4.0.0-stable) date 31/12/2015 20:29:45*
%MOMM*%
G01*
G04 APERTURE LIST*
%ADD10C,0.150000*%
%ADD11C,0.101600*%
%ADD12C,0.149860*%
%ADD13C,0.002540*%
%ADD14C,0.127000*%
%ADD15C,0.050800*%
%ADD16C,0.254000*%
%ADD17C,0.114300*%
%ADD18C,0.203200*%
%ADD19C,0.200000*%
G04 APERTURE END LIST*
D10*
D11*
X635000Y0D02*
X45085000Y0D01*
X635000Y19050000D02*
X45085000Y19050000D01*
X45720000Y635000D02*
X45085000Y0D01*
X45720000Y18415000D02*
X45720000Y635000D01*
X45085000Y19050000D02*
X45720000Y18415000D01*
X0Y18415000D02*
X635000Y19050000D01*
X0Y635000D02*
X0Y18415000D01*
X635000Y0D02*
X0Y635000D01*
D12*
X44856763Y14170661D02*
X44813946Y14256295D01*
X44771129Y14299112D01*
X44685494Y14341929D01*
X44428591Y14341929D01*
X44342957Y14299112D01*
X44300140Y14256295D01*
X44257323Y14170661D01*
X44257323Y14042209D01*
X44300140Y13956575D01*
X44342957Y13913758D01*
X44428591Y13870941D01*
X44685494Y13870941D01*
X44771129Y13913758D01*
X44813946Y13956575D01*
X44856763Y14042209D01*
X44856763Y14170661D01*
X44257323Y13485586D02*
X45156483Y13485586D01*
X44300140Y13485586D02*
X44257323Y13399952D01*
X44257323Y13228683D01*
X44300140Y13143049D01*
X44342957Y13100232D01*
X44428591Y13057415D01*
X44685494Y13057415D01*
X44771129Y13100232D01*
X44813946Y13143049D01*
X44856763Y13228683D01*
X44856763Y13399952D01*
X44813946Y13485586D01*
X44813946Y12329523D02*
X44856763Y12415157D01*
X44856763Y12586426D01*
X44813946Y12672060D01*
X44728311Y12714877D01*
X44385774Y12714877D01*
X44300140Y12672060D01*
X44257323Y12586426D01*
X44257323Y12415157D01*
X44300140Y12329523D01*
X44385774Y12286706D01*
X44471409Y12286706D01*
X44557043Y12714877D01*
X44257323Y11901351D02*
X44856763Y11901351D01*
X44342957Y11901351D02*
X44300140Y11858534D01*
X44257323Y11772900D01*
X44257323Y11644448D01*
X44300140Y11558814D01*
X44385774Y11515997D01*
X44856763Y11515997D01*
X44856763Y10402751D02*
X43957603Y10402751D01*
X44856763Y10017397D02*
X44385774Y10017397D01*
X44300140Y10060214D01*
X44257323Y10145848D01*
X44257323Y10274300D01*
X44300140Y10359934D01*
X44342957Y10402751D01*
X44856763Y9203871D02*
X44385774Y9203871D01*
X44300140Y9246688D01*
X44257323Y9332322D01*
X44257323Y9503591D01*
X44300140Y9589225D01*
X44813946Y9203871D02*
X44856763Y9289505D01*
X44856763Y9503591D01*
X44813946Y9589225D01*
X44728311Y9632042D01*
X44642677Y9632042D01*
X44557043Y9589225D01*
X44514226Y9503591D01*
X44514226Y9289505D01*
X44471409Y9203871D01*
X44856763Y8775699D02*
X44257323Y8775699D01*
X44428591Y8775699D02*
X44342957Y8732882D01*
X44300140Y8690065D01*
X44257323Y8604431D01*
X44257323Y8518796D01*
X44856763Y7833722D02*
X43957603Y7833722D01*
X44813946Y7833722D02*
X44856763Y7919356D01*
X44856763Y8090625D01*
X44813946Y8176259D01*
X44771129Y8219076D01*
X44685494Y8261893D01*
X44428591Y8261893D01*
X44342957Y8219076D01*
X44300140Y8176259D01*
X44257323Y8090625D01*
X44257323Y7919356D01*
X44300140Y7833722D01*
X44257323Y7491185D02*
X44856763Y7319916D01*
X44428591Y7148647D01*
X44856763Y6977379D01*
X44257323Y6806110D01*
X44856763Y6078219D02*
X44385774Y6078219D01*
X44300140Y6121036D01*
X44257323Y6206670D01*
X44257323Y6377939D01*
X44300140Y6463573D01*
X44813946Y6078219D02*
X44856763Y6163853D01*
X44856763Y6377939D01*
X44813946Y6463573D01*
X44728311Y6506390D01*
X44642677Y6506390D01*
X44557043Y6463573D01*
X44514226Y6377939D01*
X44514226Y6163853D01*
X44471409Y6078219D01*
X44856763Y5650047D02*
X44257323Y5650047D01*
X44428591Y5650047D02*
X44342957Y5607230D01*
X44300140Y5564413D01*
X44257323Y5478779D01*
X44257323Y5393144D01*
X44813946Y4750887D02*
X44856763Y4836521D01*
X44856763Y5007790D01*
X44813946Y5093424D01*
X44728311Y5136241D01*
X44385774Y5136241D01*
X44300140Y5093424D01*
X44257323Y5007790D01*
X44257323Y4836521D01*
X44300140Y4750887D01*
X44385774Y4708070D01*
X44471409Y4708070D01*
X44557043Y5136241D01*
X28575000Y10922000D02*
X28575000Y8382000D01*
X28575000Y8382000D02*
X30099000Y8382000D01*
X30099000Y8382000D02*
X30099000Y10922000D01*
X30099000Y10922000D02*
X28575000Y10922000D01*
X20066000Y7620000D02*
X22606000Y7620000D01*
X22606000Y7620000D02*
X22606000Y9144000D01*
X22606000Y9144000D02*
X20066000Y9144000D01*
X20066000Y9144000D02*
X20066000Y7620000D01*
X21209000Y10795000D02*
X21209000Y13335000D01*
X21209000Y13335000D02*
X19685000Y13335000D01*
X19685000Y13335000D02*
X19685000Y10795000D01*
X19685000Y10795000D02*
X21209000Y10795000D01*
X14732000Y10795000D02*
X14732000Y13335000D01*
X14732000Y13335000D02*
X13208000Y13335000D01*
X13208000Y13335000D02*
X13208000Y10795000D01*
X13208000Y10795000D02*
X14732000Y10795000D01*
X25400000Y9144000D02*
X22860000Y9144000D01*
X22860000Y9144000D02*
X22860000Y7620000D01*
X22860000Y7620000D02*
X25400000Y7620000D01*
X25400000Y7620000D02*
X25400000Y9144000D01*
X12192000Y10223500D02*
X10668000Y10223500D01*
X12192000Y10477500D02*
X12192000Y13652500D01*
X12192000Y13652500D02*
X10668000Y13652500D01*
X10668000Y13652500D02*
X10668000Y10477500D01*
X10668000Y10477500D02*
X12192000Y10477500D01*
X19431000Y9779000D02*
X16891000Y9779000D01*
X16891000Y9779000D02*
X16891000Y8255000D01*
X16891000Y8255000D02*
X19431000Y8255000D01*
X19431000Y8255000D02*
X19431000Y9779000D01*
D13*
G36*
X37640260Y8135620D02*
X37660580Y8171180D01*
X37708840Y8249920D01*
X37782500Y8361680D01*
X37868860Y8493760D01*
X37960300Y8625840D01*
X38031420Y8735060D01*
X38082220Y8811260D01*
X38100000Y8841740D01*
X38092380Y8859520D01*
X38061900Y8923020D01*
X38016180Y9011920D01*
X37988240Y9065260D01*
X37952680Y9149080D01*
X37945060Y9192260D01*
X37955220Y9197340D01*
X38018720Y9227820D01*
X38127940Y9276080D01*
X38272720Y9339580D01*
X38442900Y9413240D01*
X38625780Y9489440D01*
X38811200Y9568180D01*
X38989000Y9641840D01*
X39149020Y9705340D01*
X39281100Y9758680D01*
X39370000Y9794240D01*
X39408100Y9806940D01*
X39418260Y9801860D01*
X39458900Y9761220D01*
X39512240Y9687560D01*
X39641780Y9530080D01*
X39834820Y9372600D01*
X40055800Y9278620D01*
X40302180Y9245600D01*
X40530780Y9273540D01*
X40749220Y9362440D01*
X40944800Y9514840D01*
X41092120Y9700260D01*
X41183560Y9916160D01*
X41214040Y10160000D01*
X41188640Y10391140D01*
X41099740Y10614660D01*
X40949880Y10812780D01*
X40853360Y10896600D01*
X40655240Y11010900D01*
X40441880Y11074400D01*
X40386000Y11082020D01*
X40152320Y11071860D01*
X39928800Y11003280D01*
X39728140Y10878820D01*
X39563040Y10708640D01*
X39547800Y10685780D01*
X39486840Y10607040D01*
X39446200Y10553700D01*
X39413180Y10510520D01*
X38694360Y10810240D01*
X38580060Y10858500D01*
X38381940Y10939780D01*
X38214300Y11010900D01*
X38079680Y11069320D01*
X37988240Y11109960D01*
X37952680Y11127740D01*
X37950140Y11127740D01*
X37945060Y11155680D01*
X37965380Y11209020D01*
X38013640Y11310620D01*
X38049200Y11376660D01*
X38084760Y11452860D01*
X38100000Y11488420D01*
X38082220Y11516360D01*
X38036500Y11590020D01*
X37965380Y11696700D01*
X37876480Y11826240D01*
X37792660Y11948160D01*
X37719000Y12059920D01*
X37665660Y12141200D01*
X37645340Y12181840D01*
X37645340Y12186920D01*
X37665660Y12222480D01*
X37719000Y12288520D01*
X37810440Y12385040D01*
X37947600Y12524740D01*
X37970460Y12545060D01*
X38084760Y12659360D01*
X38181280Y12750800D01*
X38252400Y12814300D01*
X38282880Y12837160D01*
X38282880Y12837160D01*
X38320980Y12816840D01*
X38404800Y12763500D01*
X38519100Y12689840D01*
X38651180Y12598400D01*
X38996620Y12359640D01*
X39324280Y12491720D01*
X39423340Y12532360D01*
X39545260Y12583160D01*
X39631620Y12621260D01*
X39669720Y12639040D01*
X39682420Y12674600D01*
X39702740Y12763500D01*
X39730680Y12893040D01*
X39758620Y13047980D01*
X39786560Y13195300D01*
X39811960Y13327380D01*
X39829740Y13423900D01*
X39837360Y13467080D01*
X39844980Y13477240D01*
X39865300Y13487400D01*
X39911020Y13492480D01*
X39992300Y13495020D01*
X40119300Y13497560D01*
X40302180Y13497560D01*
X40322500Y13497560D01*
X40497760Y13495020D01*
X40637460Y13492480D01*
X40728900Y13487400D01*
X40764460Y13482320D01*
X40764460Y13482320D01*
X40774620Y13439140D01*
X40794940Y13345160D01*
X40820340Y13213080D01*
X40850820Y13055600D01*
X40853360Y13045440D01*
X40883840Y12887960D01*
X40911780Y12753340D01*
X40932100Y12661900D01*
X40944800Y12623800D01*
X40954960Y12613640D01*
X41018460Y12583160D01*
X41114980Y12537440D01*
X41234360Y12484100D01*
X41358820Y12433300D01*
X41470580Y12390120D01*
X41554400Y12359640D01*
X41592500Y12349480D01*
X41592500Y12349480D01*
X41630600Y12374880D01*
X41711880Y12428220D01*
X41826180Y12504420D01*
X41960800Y12598400D01*
X41970960Y12603480D01*
X42103040Y12694920D01*
X42217340Y12768580D01*
X42298620Y12816840D01*
X42334180Y12837160D01*
X42336720Y12834620D01*
X42374820Y12806680D01*
X42451020Y12738100D01*
X42552620Y12641580D01*
X42672000Y12524740D01*
X42707560Y12486640D01*
X42834560Y12357100D01*
X42918380Y12265660D01*
X42961560Y12209780D01*
X42971720Y12184380D01*
X42971720Y12181840D01*
X42946320Y12141200D01*
X42890440Y12057380D01*
X42814240Y11943080D01*
X42722800Y11808460D01*
X42715180Y11798300D01*
X42623740Y11666220D01*
X42550080Y11554460D01*
X42496740Y11475720D01*
X42476420Y11440160D01*
X42476420Y11435080D01*
X42491660Y11379200D01*
X42524680Y11285220D01*
X42570400Y11168380D01*
X42621200Y11043920D01*
X42666920Y10932160D01*
X42705020Y10848340D01*
X42727880Y10810240D01*
X42730420Y10807700D01*
X42778680Y10795000D01*
X42877740Y10772140D01*
X43014900Y10741660D01*
X43180000Y10711180D01*
X43205400Y10706100D01*
X43365420Y10675620D01*
X43494960Y10650220D01*
X43586400Y10632440D01*
X43624500Y10622280D01*
X43629580Y10599420D01*
X43634660Y10523220D01*
X43637200Y10403840D01*
X43639740Y10261600D01*
X43639740Y10109200D01*
X43634660Y9961880D01*
X43632120Y9837420D01*
X43624500Y9745980D01*
X43616880Y9707880D01*
X43614340Y9707880D01*
X43566080Y9692640D01*
X43467020Y9672320D01*
X43327320Y9644380D01*
X43164760Y9611360D01*
X43134280Y9606280D01*
X42976800Y9575800D01*
X42847260Y9550400D01*
X42755820Y9530080D01*
X42720260Y9519920D01*
X42712640Y9507220D01*
X42684700Y9441180D01*
X42641520Y9334500D01*
X42588180Y9202420D01*
X42463720Y8897620D01*
X42720260Y8521700D01*
X42743120Y8488680D01*
X42837100Y8354060D01*
X42910760Y8242300D01*
X42959020Y8166100D01*
X42976800Y8133080D01*
X42976800Y8130540D01*
X42943780Y8092440D01*
X42875200Y8018780D01*
X42776140Y7917180D01*
X42656760Y7800340D01*
X42570400Y7711440D01*
X42466260Y7609840D01*
X42395140Y7543800D01*
X42349420Y7508240D01*
X42321480Y7495540D01*
X42303700Y7498080D01*
X42265600Y7523480D01*
X42181780Y7576820D01*
X42070020Y7655560D01*
X41935400Y7747000D01*
X41826180Y7820660D01*
X41699180Y7901940D01*
X41610280Y7955280D01*
X41567100Y7973060D01*
X41546780Y7967980D01*
X41475660Y7942580D01*
X41363900Y7899400D01*
X41231820Y7840980D01*
X40934640Y7711440D01*
X40896540Y7518400D01*
X40876220Y7399020D01*
X40843200Y7233920D01*
X40812720Y7076440D01*
X40764460Y6830060D01*
X39860220Y6822440D01*
X39844980Y6860540D01*
X39834820Y6896100D01*
X39814500Y6987540D01*
X39789100Y7117080D01*
X39761160Y7272020D01*
X39735760Y7401560D01*
X39710360Y7533640D01*
X39692580Y7630160D01*
X39682420Y7670800D01*
X39669720Y7680960D01*
X39606220Y7713980D01*
X39504620Y7762240D01*
X39382700Y7813040D01*
X39255700Y7866380D01*
X39138860Y7912100D01*
X39049960Y7945120D01*
X39001700Y7957820D01*
X38968680Y7940040D01*
X38889940Y7889240D01*
X38780720Y7818120D01*
X38648640Y7726680D01*
X38519100Y7637780D01*
X38404800Y7561580D01*
X38326060Y7510780D01*
X38287960Y7487920D01*
X38262560Y7498080D01*
X38199060Y7551420D01*
X38097460Y7650480D01*
X37952680Y7797800D01*
X37929820Y7820660D01*
X37815520Y7937500D01*
X37724080Y8036560D01*
X37663120Y8105140D01*
X37640260Y8135620D01*
X37640260Y8135620D01*
G37*
X37640260Y8135620D02*
X37660580Y8171180D01*
X37708840Y8249920D01*
X37782500Y8361680D01*
X37868860Y8493760D01*
X37960300Y8625840D01*
X38031420Y8735060D01*
X38082220Y8811260D01*
X38100000Y8841740D01*
X38092380Y8859520D01*
X38061900Y8923020D01*
X38016180Y9011920D01*
X37988240Y9065260D01*
X37952680Y9149080D01*
X37945060Y9192260D01*
X37955220Y9197340D01*
X38018720Y9227820D01*
X38127940Y9276080D01*
X38272720Y9339580D01*
X38442900Y9413240D01*
X38625780Y9489440D01*
X38811200Y9568180D01*
X38989000Y9641840D01*
X39149020Y9705340D01*
X39281100Y9758680D01*
X39370000Y9794240D01*
X39408100Y9806940D01*
X39418260Y9801860D01*
X39458900Y9761220D01*
X39512240Y9687560D01*
X39641780Y9530080D01*
X39834820Y9372600D01*
X40055800Y9278620D01*
X40302180Y9245600D01*
X40530780Y9273540D01*
X40749220Y9362440D01*
X40944800Y9514840D01*
X41092120Y9700260D01*
X41183560Y9916160D01*
X41214040Y10160000D01*
X41188640Y10391140D01*
X41099740Y10614660D01*
X40949880Y10812780D01*
X40853360Y10896600D01*
X40655240Y11010900D01*
X40441880Y11074400D01*
X40386000Y11082020D01*
X40152320Y11071860D01*
X39928800Y11003280D01*
X39728140Y10878820D01*
X39563040Y10708640D01*
X39547800Y10685780D01*
X39486840Y10607040D01*
X39446200Y10553700D01*
X39413180Y10510520D01*
X38694360Y10810240D01*
X38580060Y10858500D01*
X38381940Y10939780D01*
X38214300Y11010900D01*
X38079680Y11069320D01*
X37988240Y11109960D01*
X37952680Y11127740D01*
X37950140Y11127740D01*
X37945060Y11155680D01*
X37965380Y11209020D01*
X38013640Y11310620D01*
X38049200Y11376660D01*
X38084760Y11452860D01*
X38100000Y11488420D01*
X38082220Y11516360D01*
X38036500Y11590020D01*
X37965380Y11696700D01*
X37876480Y11826240D01*
X37792660Y11948160D01*
X37719000Y12059920D01*
X37665660Y12141200D01*
X37645340Y12181840D01*
X37645340Y12186920D01*
X37665660Y12222480D01*
X37719000Y12288520D01*
X37810440Y12385040D01*
X37947600Y12524740D01*
X37970460Y12545060D01*
X38084760Y12659360D01*
X38181280Y12750800D01*
X38252400Y12814300D01*
X38282880Y12837160D01*
X38282880Y12837160D01*
X38320980Y12816840D01*
X38404800Y12763500D01*
X38519100Y12689840D01*
X38651180Y12598400D01*
X38996620Y12359640D01*
X39324280Y12491720D01*
X39423340Y12532360D01*
X39545260Y12583160D01*
X39631620Y12621260D01*
X39669720Y12639040D01*
X39682420Y12674600D01*
X39702740Y12763500D01*
X39730680Y12893040D01*
X39758620Y13047980D01*
X39786560Y13195300D01*
X39811960Y13327380D01*
X39829740Y13423900D01*
X39837360Y13467080D01*
X39844980Y13477240D01*
X39865300Y13487400D01*
X39911020Y13492480D01*
X39992300Y13495020D01*
X40119300Y13497560D01*
X40302180Y13497560D01*
X40322500Y13497560D01*
X40497760Y13495020D01*
X40637460Y13492480D01*
X40728900Y13487400D01*
X40764460Y13482320D01*
X40764460Y13482320D01*
X40774620Y13439140D01*
X40794940Y13345160D01*
X40820340Y13213080D01*
X40850820Y13055600D01*
X40853360Y13045440D01*
X40883840Y12887960D01*
X40911780Y12753340D01*
X40932100Y12661900D01*
X40944800Y12623800D01*
X40954960Y12613640D01*
X41018460Y12583160D01*
X41114980Y12537440D01*
X41234360Y12484100D01*
X41358820Y12433300D01*
X41470580Y12390120D01*
X41554400Y12359640D01*
X41592500Y12349480D01*
X41592500Y12349480D01*
X41630600Y12374880D01*
X41711880Y12428220D01*
X41826180Y12504420D01*
X41960800Y12598400D01*
X41970960Y12603480D01*
X42103040Y12694920D01*
X42217340Y12768580D01*
X42298620Y12816840D01*
X42334180Y12837160D01*
X42336720Y12834620D01*
X42374820Y12806680D01*
X42451020Y12738100D01*
X42552620Y12641580D01*
X42672000Y12524740D01*
X42707560Y12486640D01*
X42834560Y12357100D01*
X42918380Y12265660D01*
X42961560Y12209780D01*
X42971720Y12184380D01*
X42971720Y12181840D01*
X42946320Y12141200D01*
X42890440Y12057380D01*
X42814240Y11943080D01*
X42722800Y11808460D01*
X42715180Y11798300D01*
X42623740Y11666220D01*
X42550080Y11554460D01*
X42496740Y11475720D01*
X42476420Y11440160D01*
X42476420Y11435080D01*
X42491660Y11379200D01*
X42524680Y11285220D01*
X42570400Y11168380D01*
X42621200Y11043920D01*
X42666920Y10932160D01*
X42705020Y10848340D01*
X42727880Y10810240D01*
X42730420Y10807700D01*
X42778680Y10795000D01*
X42877740Y10772140D01*
X43014900Y10741660D01*
X43180000Y10711180D01*
X43205400Y10706100D01*
X43365420Y10675620D01*
X43494960Y10650220D01*
X43586400Y10632440D01*
X43624500Y10622280D01*
X43629580Y10599420D01*
X43634660Y10523220D01*
X43637200Y10403840D01*
X43639740Y10261600D01*
X43639740Y10109200D01*
X43634660Y9961880D01*
X43632120Y9837420D01*
X43624500Y9745980D01*
X43616880Y9707880D01*
X43614340Y9707880D01*
X43566080Y9692640D01*
X43467020Y9672320D01*
X43327320Y9644380D01*
X43164760Y9611360D01*
X43134280Y9606280D01*
X42976800Y9575800D01*
X42847260Y9550400D01*
X42755820Y9530080D01*
X42720260Y9519920D01*
X42712640Y9507220D01*
X42684700Y9441180D01*
X42641520Y9334500D01*
X42588180Y9202420D01*
X42463720Y8897620D01*
X42720260Y8521700D01*
X42743120Y8488680D01*
X42837100Y8354060D01*
X42910760Y8242300D01*
X42959020Y8166100D01*
X42976800Y8133080D01*
X42976800Y8130540D01*
X42943780Y8092440D01*
X42875200Y8018780D01*
X42776140Y7917180D01*
X42656760Y7800340D01*
X42570400Y7711440D01*
X42466260Y7609840D01*
X42395140Y7543800D01*
X42349420Y7508240D01*
X42321480Y7495540D01*
X42303700Y7498080D01*
X42265600Y7523480D01*
X42181780Y7576820D01*
X42070020Y7655560D01*
X41935400Y7747000D01*
X41826180Y7820660D01*
X41699180Y7901940D01*
X41610280Y7955280D01*
X41567100Y7973060D01*
X41546780Y7967980D01*
X41475660Y7942580D01*
X41363900Y7899400D01*
X41231820Y7840980D01*
X40934640Y7711440D01*
X40896540Y7518400D01*
X40876220Y7399020D01*
X40843200Y7233920D01*
X40812720Y7076440D01*
X40764460Y6830060D01*
X39860220Y6822440D01*
X39844980Y6860540D01*
X39834820Y6896100D01*
X39814500Y6987540D01*
X39789100Y7117080D01*
X39761160Y7272020D01*
X39735760Y7401560D01*
X39710360Y7533640D01*
X39692580Y7630160D01*
X39682420Y7670800D01*
X39669720Y7680960D01*
X39606220Y7713980D01*
X39504620Y7762240D01*
X39382700Y7813040D01*
X39255700Y7866380D01*
X39138860Y7912100D01*
X39049960Y7945120D01*
X39001700Y7957820D01*
X38968680Y7940040D01*
X38889940Y7889240D01*
X38780720Y7818120D01*
X38648640Y7726680D01*
X38519100Y7637780D01*
X38404800Y7561580D01*
X38326060Y7510780D01*
X38287960Y7487920D01*
X38262560Y7498080D01*
X38199060Y7551420D01*
X38097460Y7650480D01*
X37952680Y7797800D01*
X37929820Y7820660D01*
X37815520Y7937500D01*
X37724080Y8036560D01*
X37663120Y8105140D01*
X37640260Y8135620D01*
D10*
X39185000Y4160000D02*
X37885000Y4160000D01*
X37885000Y4160000D02*
X37185000Y5160000D01*
X37185000Y5160000D02*
X36985000Y5160000D01*
X41485000Y4160000D02*
X45385000Y4160000D01*
X39185000Y5160000D02*
X40485000Y5160000D01*
X40485000Y5160000D02*
X41485000Y4160000D01*
X39185000Y4160000D02*
X39185000Y5160000D01*
X37385000Y15160000D02*
X36885000Y15160000D01*
X46285000Y14260000D02*
X46285000Y5060000D01*
X46285000Y5060000D02*
G75*
G02X45385000Y4160000I-900000J0D01*
G01*
X45385000Y15160000D02*
G75*
G02X46285000Y14260000I0J-900000D01*
G01*
X37385000Y15160000D02*
X45385000Y15160000D01*
X31085000Y15560000D02*
X31085000Y4060000D01*
X31085000Y4060000D02*
X36085000Y4060000D01*
X36085000Y4060000D02*
X36585000Y4060000D01*
X36585000Y4060000D02*
X36585000Y15560000D01*
X36585000Y15560000D02*
X31085000Y15560000D01*
X45720000Y15875000D02*
X0Y15875000D01*
X0Y15875000D02*
X0Y18415000D01*
X0Y18415000D02*
X45720000Y18415000D01*
X45720000Y18415000D02*
X45720000Y15875000D01*
X45720000Y635000D02*
X0Y635000D01*
X0Y635000D02*
X0Y3175000D01*
X0Y3175000D02*
X45720000Y3175000D01*
X45720000Y3175000D02*
X45720000Y635000D01*
D14*
X23558500Y11564620D02*
X23558500Y10858500D01*
X23558500Y10858500D02*
X22161500Y10858500D01*
X22161500Y10858500D02*
X22161500Y11564620D01*
X23558500Y13271500D02*
X23558500Y12565380D01*
X23558500Y13271500D02*
X22161500Y13271500D01*
X22161500Y13271500D02*
X22161500Y12565380D01*
D10*
X16621760Y10765840D02*
X16621760Y10814100D01*
X17322800Y13564820D02*
X16621760Y13564820D01*
X16621760Y13564820D02*
X16621760Y13315900D01*
X16621760Y10765840D02*
X16621760Y10565180D01*
X16621760Y10565180D02*
X17322800Y10565180D01*
D15*
X25740360Y4114800D02*
X26240740Y4114800D01*
X26240740Y4114800D02*
X26240740Y7315200D01*
X26240740Y7315200D02*
X25740360Y7315200D01*
X20741640Y7315200D02*
X20241260Y7315200D01*
X20241260Y7315200D02*
X20241260Y4114800D01*
X20241260Y4114800D02*
X20741640Y4114800D01*
X20739100Y6710680D02*
X20739100Y4711700D01*
X20741640Y6710680D02*
X20741640Y4711700D01*
X20741640Y6710680D02*
X20741640Y4711700D01*
X20741640Y6710680D02*
X20741640Y4711700D01*
X25740360Y4714240D02*
X25740360Y6713220D01*
X25740360Y4714240D02*
X25740360Y6713220D01*
X25740360Y4714240D02*
X25740360Y6713220D01*
X25740360Y4714240D02*
X25740360Y6713220D01*
X20741640Y4114800D02*
X25740360Y4114800D01*
X25740360Y4114800D02*
X25740360Y7315200D01*
X25740360Y7315200D02*
X20741640Y7315200D01*
X20741640Y7315200D02*
X20741640Y4114800D01*
D16*
X15400000Y3445000D02*
X9400000Y3445000D01*
X15400000Y3445000D02*
X15400000Y5445000D01*
X15400000Y5445000D02*
X9400000Y5445000D01*
X9400000Y3445000D02*
X9400000Y5445000D01*
D12*
X29658129Y7642860D02*
X29700946Y7685677D01*
X29743763Y7814128D01*
X29743763Y7899762D01*
X29700946Y8028214D01*
X29615311Y8113848D01*
X29529677Y8156665D01*
X29358409Y8199482D01*
X29229957Y8199482D01*
X29058689Y8156665D01*
X28973054Y8113848D01*
X28887420Y8028214D01*
X28844603Y7899762D01*
X28844603Y7814128D01*
X28887420Y7685677D01*
X28930237Y7642860D01*
X28930237Y7300322D02*
X28887420Y7257505D01*
X28844603Y7171871D01*
X28844603Y6957785D01*
X28887420Y6872151D01*
X28930237Y6829334D01*
X29015871Y6786517D01*
X29101506Y6786517D01*
X29229957Y6829334D01*
X29743763Y7343140D01*
X29743763Y6786517D01*
X21104860Y9584871D02*
X21147677Y9542054D01*
X21276128Y9499237D01*
X21361762Y9499237D01*
X21490214Y9542054D01*
X21575848Y9627689D01*
X21618665Y9713323D01*
X21661482Y9884591D01*
X21661482Y10013043D01*
X21618665Y10184311D01*
X21575848Y10269946D01*
X21490214Y10355580D01*
X21361762Y10398397D01*
X21276128Y10398397D01*
X21147677Y10355580D01*
X21104860Y10312763D01*
X20676688Y9499237D02*
X20505420Y9499237D01*
X20419785Y9542054D01*
X20376968Y9584871D01*
X20291334Y9713323D01*
X20248517Y9884591D01*
X20248517Y10227129D01*
X20291334Y10312763D01*
X20334151Y10355580D01*
X20419785Y10398397D01*
X20591054Y10398397D01*
X20676688Y10355580D01*
X20719505Y10312763D01*
X20762322Y10227129D01*
X20762322Y10013043D01*
X20719505Y9927409D01*
X20676688Y9884591D01*
X20591054Y9841774D01*
X20419785Y9841774D01*
X20334151Y9884591D01*
X20291334Y9927409D01*
X20248517Y10013043D01*
X20768129Y15183032D02*
X20810946Y15225849D01*
X20853763Y15354300D01*
X20853763Y15439934D01*
X20810946Y15568386D01*
X20725311Y15654020D01*
X20639677Y15696837D01*
X20468409Y15739654D01*
X20339957Y15739654D01*
X20168689Y15696837D01*
X20083054Y15654020D01*
X19997420Y15568386D01*
X19954603Y15439934D01*
X19954603Y15354300D01*
X19997420Y15225849D01*
X20040237Y15183032D01*
X20853763Y14326689D02*
X20853763Y14840494D01*
X20853763Y14583592D02*
X19954603Y14583592D01*
X20083054Y14669226D01*
X20168689Y14754860D01*
X20211506Y14840494D01*
X20853763Y13470346D02*
X20853763Y13984151D01*
X20853763Y13727249D02*
X19954603Y13727249D01*
X20083054Y13812883D01*
X20168689Y13898517D01*
X20211506Y13984151D01*
X14291129Y15183032D02*
X14333946Y15225849D01*
X14376763Y15354300D01*
X14376763Y15439934D01*
X14333946Y15568386D01*
X14248311Y15654020D01*
X14162677Y15696837D01*
X13991409Y15739654D01*
X13862957Y15739654D01*
X13691689Y15696837D01*
X13606054Y15654020D01*
X13520420Y15568386D01*
X13477603Y15439934D01*
X13477603Y15354300D01*
X13520420Y15225849D01*
X13563237Y15183032D01*
X14376763Y14326689D02*
X14376763Y14840494D01*
X14376763Y14583592D02*
X13477603Y14583592D01*
X13606054Y14669226D01*
X13691689Y14754860D01*
X13734506Y14840494D01*
X13563237Y13984151D02*
X13520420Y13941334D01*
X13477603Y13855700D01*
X13477603Y13641614D01*
X13520420Y13555980D01*
X13563237Y13513163D01*
X13648871Y13470346D01*
X13734506Y13470346D01*
X13862957Y13513163D01*
X14376763Y14026969D01*
X14376763Y13470346D01*
X24708032Y9584871D02*
X24750849Y9542054D01*
X24879300Y9499237D01*
X24964934Y9499237D01*
X25093386Y9542054D01*
X25179020Y9627689D01*
X25221837Y9713323D01*
X25264654Y9884591D01*
X25264654Y10013043D01*
X25221837Y10184311D01*
X25179020Y10269946D01*
X25093386Y10355580D01*
X24964934Y10398397D01*
X24879300Y10398397D01*
X24750849Y10355580D01*
X24708032Y10312763D01*
X23851689Y9499237D02*
X24365494Y9499237D01*
X24108592Y9499237D02*
X24108592Y10398397D01*
X24194226Y10269946D01*
X24279860Y10184311D01*
X24365494Y10141494D01*
X23551969Y10398397D02*
X22995346Y10398397D01*
X23295066Y10055860D01*
X23166614Y10055860D01*
X23080980Y10013043D01*
X23038163Y9970226D01*
X22995346Y9884591D01*
X22995346Y9670506D01*
X23038163Y9584871D01*
X23080980Y9542054D01*
X23166614Y9499237D01*
X23423517Y9499237D01*
X23509151Y9542054D01*
X23551969Y9584871D01*
X11836763Y9807665D02*
X10937603Y9807665D01*
X10937603Y9593580D01*
X10980420Y9465128D01*
X11066054Y9379494D01*
X11151689Y9336677D01*
X11322957Y9293860D01*
X11451409Y9293860D01*
X11622677Y9336677D01*
X11708311Y9379494D01*
X11793946Y9465128D01*
X11836763Y9593580D01*
X11836763Y9807665D01*
X10937603Y8994140D02*
X10937603Y8437517D01*
X11280140Y8737237D01*
X11280140Y8608785D01*
X11322957Y8523151D01*
X11365774Y8480334D01*
X11451409Y8437517D01*
X11665494Y8437517D01*
X11751129Y8480334D01*
X11793946Y8523151D01*
X11836763Y8608785D01*
X11836763Y8865688D01*
X11793946Y8951322D01*
X11751129Y8994140D01*
X15989300Y9081226D02*
X16289020Y9081226D01*
X16289020Y8610237D02*
X16289020Y9509397D01*
X15860849Y9509397D01*
X15218591Y9081226D02*
X15090140Y9038409D01*
X15047323Y8995591D01*
X15004506Y8909957D01*
X15004506Y8781506D01*
X15047323Y8695871D01*
X15090140Y8653054D01*
X15175774Y8610237D01*
X15518311Y8610237D01*
X15518311Y9509397D01*
X15218591Y9509397D01*
X15132957Y9466580D01*
X15090140Y9423763D01*
X15047323Y9338129D01*
X15047323Y9252494D01*
X15090140Y9166860D01*
X15132957Y9124043D01*
X15218591Y9081226D01*
X15518311Y9081226D01*
X14148163Y8610237D02*
X14661968Y8610237D01*
X14405066Y8610237D02*
X14405066Y9509397D01*
X14490700Y9380946D01*
X14576334Y9295311D01*
X14661968Y9252494D01*
D10*
X32837381Y22328095D02*
X31837381Y22328095D01*
X32837381Y21756666D02*
X32265952Y22185238D01*
X31837381Y21756666D02*
X32408810Y22328095D01*
X32837381Y20804285D02*
X32837381Y21375714D01*
X32837381Y21090000D02*
X31837381Y21090000D01*
X31980238Y21185238D01*
X32075476Y21280476D01*
X32123095Y21375714D01*
X49252143Y15112380D02*
X49299762Y15159999D01*
X49347381Y15302856D01*
X49347381Y15398094D01*
X49299762Y15540952D01*
X49204524Y15636190D01*
X49109286Y15683809D01*
X48918810Y15731428D01*
X48775952Y15731428D01*
X48585476Y15683809D01*
X48490238Y15636190D01*
X48395000Y15540952D01*
X48347381Y15398094D01*
X48347381Y15302856D01*
X48395000Y15159999D01*
X48442619Y15112380D01*
X48347381Y14493333D02*
X48347381Y14302856D01*
X48395000Y14207618D01*
X48490238Y14112380D01*
X48680714Y14064761D01*
X49014048Y14064761D01*
X49204524Y14112380D01*
X49299762Y14207618D01*
X49347381Y14302856D01*
X49347381Y14493333D01*
X49299762Y14588571D01*
X49204524Y14683809D01*
X49014048Y14731428D01*
X48680714Y14731428D01*
X48490238Y14683809D01*
X48395000Y14588571D01*
X48347381Y14493333D01*
X49347381Y13636190D02*
X48347381Y13636190D01*
X49347381Y13064761D01*
X48347381Y13064761D01*
X49347381Y12588571D02*
X48347381Y12588571D01*
X49347381Y12017142D01*
X48347381Y12017142D01*
X49442619Y11779047D02*
X49442619Y11017142D01*
X49347381Y10779047D02*
X48347381Y10779047D01*
X49061667Y10445713D01*
X48347381Y10112380D01*
X49347381Y10112380D01*
X49347381Y9636190D02*
X48347381Y9636190D01*
X49252143Y8588571D02*
X49299762Y8636190D01*
X49347381Y8779047D01*
X49347381Y8874285D01*
X49299762Y9017143D01*
X49204524Y9112381D01*
X49109286Y9160000D01*
X48918810Y9207619D01*
X48775952Y9207619D01*
X48585476Y9160000D01*
X48490238Y9112381D01*
X48395000Y9017143D01*
X48347381Y8874285D01*
X48347381Y8779047D01*
X48395000Y8636190D01*
X48442619Y8588571D01*
X49347381Y7588571D02*
X48871190Y7921905D01*
X49347381Y8160000D02*
X48347381Y8160000D01*
X48347381Y7779047D01*
X48395000Y7683809D01*
X48442619Y7636190D01*
X48537857Y7588571D01*
X48680714Y7588571D01*
X48775952Y7636190D01*
X48823571Y7683809D01*
X48871190Y7779047D01*
X48871190Y8160000D01*
X48347381Y6969524D02*
X48347381Y6779047D01*
X48395000Y6683809D01*
X48490238Y6588571D01*
X48680714Y6540952D01*
X49014048Y6540952D01*
X49204524Y6588571D01*
X49299762Y6683809D01*
X49347381Y6779047D01*
X49347381Y6969524D01*
X49299762Y7064762D01*
X49204524Y7160000D01*
X49014048Y7207619D01*
X48680714Y7207619D01*
X48490238Y7160000D01*
X48395000Y7064762D01*
X48347381Y6969524D01*
X49299762Y6160000D02*
X49347381Y6017143D01*
X49347381Y5779047D01*
X49299762Y5683809D01*
X49252143Y5636190D01*
X49156905Y5588571D01*
X49061667Y5588571D01*
X48966429Y5636190D01*
X48918810Y5683809D01*
X48871190Y5779047D01*
X48823571Y5969524D01*
X48775952Y6064762D01*
X48728333Y6112381D01*
X48633095Y6160000D01*
X48537857Y6160000D01*
X48442619Y6112381D01*
X48395000Y6064762D01*
X48347381Y5969524D01*
X48347381Y5731428D01*
X48395000Y5588571D01*
X49347381Y5160000D02*
X48347381Y5160000D01*
X48347381Y4921905D01*
X48395000Y4779047D01*
X48490238Y4683809D01*
X48585476Y4636190D01*
X48775952Y4588571D01*
X48918810Y4588571D01*
X49109286Y4636190D01*
X49204524Y4683809D01*
X49299762Y4779047D01*
X49347381Y4921905D01*
X49347381Y5160000D01*
X23598095Y23042619D02*
X23598095Y24042619D01*
X23217142Y24042619D01*
X23121904Y23995000D01*
X23074285Y23947381D01*
X23026666Y23852143D01*
X23026666Y23709286D01*
X23074285Y23614048D01*
X23121904Y23566429D01*
X23217142Y23518810D01*
X23598095Y23518810D01*
X22693333Y24042619D02*
X22074285Y24042619D01*
X22407619Y23661667D01*
X22264761Y23661667D01*
X22169523Y23614048D01*
X22121904Y23566429D01*
X22074285Y23471190D01*
X22074285Y23233095D01*
X22121904Y23137857D01*
X22169523Y23090238D01*
X22264761Y23042619D01*
X22550476Y23042619D01*
X22645714Y23090238D01*
X22693333Y23137857D01*
X20867143Y24042619D02*
X20867143Y23233095D01*
X20819524Y23137857D01*
X20771905Y23090238D01*
X20676667Y23042619D01*
X20486190Y23042619D01*
X20390952Y23090238D01*
X20343333Y23137857D01*
X20295714Y23233095D01*
X20295714Y24042619D01*
X19819524Y23042619D02*
X19819524Y24042619D01*
X19438571Y24042619D01*
X19343333Y23995000D01*
X19295714Y23947381D01*
X19248095Y23852143D01*
X19248095Y23709286D01*
X19295714Y23614048D01*
X19343333Y23566429D01*
X19438571Y23518810D01*
X19819524Y23518810D01*
X18819524Y23042619D02*
X18819524Y24042619D01*
X18438571Y24042619D01*
X18343333Y23995000D01*
X18295714Y23947381D01*
X18248095Y23852143D01*
X18248095Y23709286D01*
X18295714Y23614048D01*
X18343333Y23566429D01*
X18438571Y23518810D01*
X18819524Y23518810D01*
X17819524Y23566429D02*
X17486190Y23566429D01*
X17343333Y23042619D02*
X17819524Y23042619D01*
X17819524Y24042619D01*
X17343333Y24042619D01*
X16343333Y23042619D02*
X16676667Y23518810D01*
X16914762Y23042619D02*
X16914762Y24042619D01*
X16533809Y24042619D01*
X16438571Y23995000D01*
X16390952Y23947381D01*
X16343333Y23852143D01*
X16343333Y23709286D01*
X16390952Y23614048D01*
X16438571Y23566429D01*
X16533809Y23518810D01*
X16914762Y23518810D01*
X16152857Y22947381D02*
X15390952Y22947381D01*
X15152857Y23042619D02*
X15152857Y24042619D01*
X14771904Y24042619D01*
X14676666Y23995000D01*
X14629047Y23947381D01*
X14581428Y23852143D01*
X14581428Y23709286D01*
X14629047Y23614048D01*
X14676666Y23566429D01*
X14771904Y23518810D01*
X15152857Y23518810D01*
X14152857Y23042619D02*
X14152857Y24042619D01*
X13676667Y23042619D02*
X13676667Y24042619D01*
X13105238Y23042619D01*
X13105238Y24042619D01*
X12676667Y23090238D02*
X12533810Y23042619D01*
X12295714Y23042619D01*
X12200476Y23090238D01*
X12152857Y23137857D01*
X12105238Y23233095D01*
X12105238Y23328333D01*
X12152857Y23423571D01*
X12200476Y23471190D01*
X12295714Y23518810D01*
X12486191Y23566429D01*
X12581429Y23614048D01*
X12629048Y23661667D01*
X12676667Y23756905D01*
X12676667Y23852143D01*
X12629048Y23947381D01*
X12581429Y23995000D01*
X12486191Y24042619D01*
X12248095Y24042619D01*
X12105238Y23995000D01*
X22963095Y-4262381D02*
X22963095Y-3262381D01*
X22582142Y-3262381D01*
X22486904Y-3310000D01*
X22439285Y-3357619D01*
X22391666Y-3452857D01*
X22391666Y-3595714D01*
X22439285Y-3690952D01*
X22486904Y-3738571D01*
X22582142Y-3786190D01*
X22963095Y-3786190D01*
X21534523Y-3595714D02*
X21534523Y-4262381D01*
X21772619Y-3214762D02*
X22010714Y-3929048D01*
X21391666Y-3929048D01*
X19732142Y-4262381D02*
X20208333Y-4262381D01*
X20208333Y-3262381D01*
X19208333Y-3262381D02*
X19017856Y-3262381D01*
X18922618Y-3310000D01*
X18827380Y-3405238D01*
X18779761Y-3595714D01*
X18779761Y-3929048D01*
X18827380Y-4119524D01*
X18922618Y-4214762D01*
X19017856Y-4262381D01*
X19208333Y-4262381D01*
X19303571Y-4214762D01*
X19398809Y-4119524D01*
X19446428Y-3929048D01*
X19446428Y-3595714D01*
X19398809Y-3405238D01*
X19303571Y-3310000D01*
X19208333Y-3262381D01*
X18446428Y-3262381D02*
X18208333Y-4262381D01*
X18017856Y-3548095D01*
X17827380Y-4262381D01*
X17589285Y-3262381D01*
X17208333Y-3738571D02*
X16874999Y-3738571D01*
X16732142Y-4262381D02*
X17208333Y-4262381D01*
X17208333Y-3262381D01*
X16732142Y-3262381D01*
X15732142Y-4262381D02*
X16065476Y-3786190D01*
X16303571Y-4262381D02*
X16303571Y-3262381D01*
X15922618Y-3262381D01*
X15827380Y-3310000D01*
X15779761Y-3357619D01*
X15732142Y-3452857D01*
X15732142Y-3595714D01*
X15779761Y-3690952D01*
X15827380Y-3738571D01*
X15922618Y-3786190D01*
X16303571Y-3786190D01*
X15541666Y-4357619D02*
X14779761Y-4357619D01*
X14541666Y-4262381D02*
X14541666Y-3262381D01*
X14160713Y-3262381D01*
X14065475Y-3310000D01*
X14017856Y-3357619D01*
X13970237Y-3452857D01*
X13970237Y-3595714D01*
X14017856Y-3690952D01*
X14065475Y-3738571D01*
X14160713Y-3786190D01*
X14541666Y-3786190D01*
X13541666Y-4262381D02*
X13541666Y-3262381D01*
X13065476Y-4262381D02*
X13065476Y-3262381D01*
X12494047Y-4262381D01*
X12494047Y-3262381D01*
X12065476Y-4214762D02*
X11922619Y-4262381D01*
X11684523Y-4262381D01*
X11589285Y-4214762D01*
X11541666Y-4167143D01*
X11494047Y-4071905D01*
X11494047Y-3976667D01*
X11541666Y-3881429D01*
X11589285Y-3833810D01*
X11684523Y-3786190D01*
X11875000Y-3738571D01*
X11970238Y-3690952D01*
X12017857Y-3643333D01*
X12065476Y-3548095D01*
X12065476Y-3452857D01*
X12017857Y-3357619D01*
X11970238Y-3310000D01*
X11875000Y-3262381D01*
X11636904Y-3262381D01*
X11494047Y-3310000D01*
D17*
X23062535Y14873514D02*
X23086362Y14808200D01*
X23086362Y14699343D01*
X23062535Y14655800D01*
X23038707Y14634029D01*
X22991052Y14612257D01*
X22943397Y14612257D01*
X22895741Y14634029D01*
X22871914Y14655800D01*
X22848086Y14699343D01*
X22824259Y14786429D01*
X22800431Y14829971D01*
X22776603Y14851743D01*
X22728948Y14873514D01*
X22681293Y14873514D01*
X22633638Y14851743D01*
X22609810Y14829971D01*
X22585982Y14786429D01*
X22585982Y14677571D01*
X22609810Y14612257D01*
X22585982Y14285685D02*
X22943397Y14285685D01*
X23014880Y14307457D01*
X23062535Y14351000D01*
X23086362Y14416314D01*
X23086362Y14459857D01*
X22585982Y13872028D02*
X22585982Y13959114D01*
X22609810Y14002657D01*
X22633638Y14024428D01*
X22705120Y14067971D01*
X22800431Y14089742D01*
X22991052Y14089742D01*
X23038707Y14067971D01*
X23062535Y14046199D01*
X23086362Y14002657D01*
X23086362Y13915571D01*
X23062535Y13872028D01*
X23038707Y13850257D01*
X22991052Y13828485D01*
X22871914Y13828485D01*
X22824259Y13850257D01*
X22800431Y13872028D01*
X22776603Y13915571D01*
X22776603Y14002657D01*
X22800431Y14046199D01*
X22824259Y14067971D01*
X22871914Y14089742D01*
X29061227Y20749381D02*
X28995913Y20725190D01*
X28887056Y20725190D01*
X28843513Y20749381D01*
X28821742Y20773571D01*
X28799970Y20821952D01*
X28799970Y20870333D01*
X28821742Y20918714D01*
X28843513Y20942905D01*
X28887056Y20967095D01*
X28974142Y20991286D01*
X29017684Y21015476D01*
X29039456Y21039667D01*
X29061227Y21088048D01*
X29061227Y21136429D01*
X29039456Y21184810D01*
X29017684Y21209000D01*
X28974142Y21233190D01*
X28865284Y21233190D01*
X28799970Y21209000D01*
X28516941Y21233190D02*
X28429855Y21233190D01*
X28386313Y21209000D01*
X28342770Y21160619D01*
X28320998Y21063857D01*
X28320998Y20894524D01*
X28342770Y20797762D01*
X28386313Y20749381D01*
X28429855Y20725190D01*
X28516941Y20725190D01*
X28560484Y20749381D01*
X28604027Y20797762D01*
X28625798Y20894524D01*
X28625798Y21063857D01*
X28604027Y21160619D01*
X28560484Y21209000D01*
X28516941Y21233190D01*
X27907342Y20725190D02*
X28125056Y20725190D01*
X28125056Y21233190D01*
X27754942Y20725190D02*
X27754942Y21233190D01*
X27646085Y21233190D01*
X27580770Y21209000D01*
X27537228Y21160619D01*
X27515456Y21112238D01*
X27493685Y21015476D01*
X27493685Y20942905D01*
X27515456Y20846143D01*
X27537228Y20797762D01*
X27580770Y20749381D01*
X27646085Y20725190D01*
X27754942Y20725190D01*
X27297742Y20991286D02*
X27145342Y20991286D01*
X27080028Y20725190D02*
X27297742Y20725190D01*
X27297742Y21233190D01*
X27080028Y21233190D01*
X26622828Y20725190D02*
X26775228Y20967095D01*
X26884085Y20725190D02*
X26884085Y21233190D01*
X26709913Y21233190D01*
X26666371Y21209000D01*
X26644599Y21184810D01*
X26622828Y21136429D01*
X26622828Y21063857D01*
X26644599Y21015476D01*
X26666371Y20991286D01*
X26709913Y20967095D01*
X26884085Y20967095D01*
X26296256Y21233190D02*
X26296256Y20870333D01*
X26318028Y20797762D01*
X26361571Y20749381D01*
X26426885Y20725190D01*
X26470428Y20725190D01*
X26078542Y21233190D02*
X26078542Y20821952D01*
X26056770Y20773571D01*
X26034999Y20749381D01*
X25991456Y20725190D01*
X25904370Y20725190D01*
X25860828Y20749381D01*
X25839056Y20773571D01*
X25817285Y20821952D01*
X25817285Y21233190D01*
X25599571Y20725190D02*
X25599571Y21233190D01*
X25447171Y20870333D01*
X25294771Y21233190D01*
X25294771Y20725190D01*
X25077057Y20725190D02*
X25077057Y21233190D01*
X24902885Y21233190D01*
X24859343Y21209000D01*
X24837571Y21184810D01*
X24815800Y21136429D01*
X24815800Y21063857D01*
X24837571Y21015476D01*
X24859343Y20991286D01*
X24902885Y20967095D01*
X25077057Y20967095D01*
X24619857Y20991286D02*
X24467457Y20991286D01*
X24402143Y20725190D02*
X24619857Y20725190D01*
X24619857Y21233190D01*
X24402143Y21233190D01*
X23944943Y20725190D02*
X24097343Y20967095D01*
X24206200Y20725190D02*
X24206200Y21233190D01*
X24032028Y21233190D01*
X23988486Y21209000D01*
X23966714Y21184810D01*
X23944943Y21136429D01*
X23944943Y21063857D01*
X23966714Y21015476D01*
X23988486Y20991286D01*
X24032028Y20967095D01*
X24206200Y20967095D01*
X23749000Y20725190D02*
X23749000Y21233190D01*
X23487743Y20725190D01*
X23487743Y21233190D01*
X23008772Y20773571D02*
X23030543Y20749381D01*
X23095857Y20725190D01*
X23139400Y20725190D01*
X23204715Y20749381D01*
X23248257Y20797762D01*
X23270029Y20846143D01*
X23291800Y20942905D01*
X23291800Y21015476D01*
X23270029Y21112238D01*
X23248257Y21160619D01*
X23204715Y21209000D01*
X23139400Y21233190D01*
X23095857Y21233190D01*
X23030543Y21209000D01*
X23008772Y21184810D01*
D10*
X17232381Y15493905D02*
X18041905Y15493905D01*
X18137143Y15446286D01*
X18184762Y15398667D01*
X18232381Y15303429D01*
X18232381Y15112952D01*
X18184762Y15017714D01*
X18137143Y14970095D01*
X18041905Y14922476D01*
X17232381Y14922476D01*
X17327619Y14493905D02*
X17280000Y14446286D01*
X17232381Y14351048D01*
X17232381Y14112952D01*
X17280000Y14017714D01*
X17327619Y13970095D01*
X17422857Y13922476D01*
X17518095Y13922476D01*
X17660952Y13970095D01*
X18232381Y14541524D01*
X18232381Y13922476D01*
D18*
X29427715Y6422571D02*
X28411715Y4898571D01*
X28411715Y6422571D02*
X29427715Y4898571D01*
X27032857Y4898571D02*
X27903714Y4898571D01*
X27468286Y4898571D02*
X27468286Y6422571D01*
X27613429Y6204857D01*
X27758571Y6059714D01*
X27903714Y5987143D01*
X41801143Y-2993571D02*
X41946285Y-2921000D01*
X42018857Y-2848429D01*
X42091428Y-2703286D01*
X42091428Y-2630714D01*
X42018857Y-2485571D01*
X41946285Y-2413000D01*
X41801143Y-2340429D01*
X41510857Y-2340429D01*
X41365714Y-2413000D01*
X41293143Y-2485571D01*
X41220571Y-2630714D01*
X41220571Y-2703286D01*
X41293143Y-2848429D01*
X41365714Y-2921000D01*
X41510857Y-2993571D01*
X41801143Y-2993571D01*
X41946285Y-3066143D01*
X42018857Y-3138714D01*
X42091428Y-3283857D01*
X42091428Y-3574143D01*
X42018857Y-3719286D01*
X41946285Y-3791857D01*
X41801143Y-3864429D01*
X41510857Y-3864429D01*
X41365714Y-3791857D01*
X41293143Y-3719286D01*
X41220571Y-3574143D01*
X41220571Y-3283857D01*
X41293143Y-3138714D01*
X41365714Y-3066143D01*
X41510857Y-2993571D01*
X40567428Y-3864429D02*
X40567428Y-2340429D01*
X40059428Y-3429000D01*
X39551428Y-2340429D01*
X39551428Y-3864429D01*
X38825714Y-3864429D02*
X38825714Y-2340429D01*
X38825714Y-3066143D02*
X37954857Y-3066143D01*
X37954857Y-3864429D02*
X37954857Y-2340429D01*
X37374286Y-2848429D02*
X36576000Y-2848429D01*
X37374286Y-3864429D01*
X36576000Y-3864429D01*
D19*
X14985952Y6369048D02*
X14985952Y5988095D01*
X15252619Y6788095D02*
X14985952Y6369048D01*
X14719285Y6788095D01*
X14033571Y5988095D02*
X14490714Y5988095D01*
X14262143Y5988095D02*
X14262143Y6788095D01*
X14338333Y6673810D01*
X14414524Y6597619D01*
X14490714Y6559524D01*
X13207619Y6788095D02*
X12712381Y6788095D01*
X12979048Y6483333D01*
X12864762Y6483333D01*
X12788572Y6445238D01*
X12750476Y6407143D01*
X12712381Y6330952D01*
X12712381Y6140476D01*
X12750476Y6064286D01*
X12788572Y6026190D01*
X12864762Y5988095D01*
X13093334Y5988095D01*
X13169524Y6026190D01*
X13207619Y6064286D01*
X12407619Y6711905D02*
X12369524Y6750000D01*
X12293333Y6788095D01*
X12102857Y6788095D01*
X12026667Y6750000D01*
X11988571Y6711905D01*
X11950476Y6635714D01*
X11950476Y6559524D01*
X11988571Y6445238D01*
X12445714Y5988095D01*
X11950476Y5988095D01*
X11607619Y6064286D02*
X11569524Y6026190D01*
X11607619Y5988095D01*
X11645714Y6026190D01*
X11607619Y6064286D01*
X11607619Y5988095D01*
X11302857Y6788095D02*
X10769524Y6788095D01*
X11112381Y5988095D01*
X10121905Y6788095D02*
X10274286Y6788095D01*
X10350476Y6750000D01*
X10388571Y6711905D01*
X10464762Y6597619D01*
X10502857Y6445238D01*
X10502857Y6140476D01*
X10464762Y6064286D01*
X10426667Y6026190D01*
X10350476Y5988095D01*
X10198095Y5988095D01*
X10121905Y6026190D01*
X10083809Y6064286D01*
X10045714Y6140476D01*
X10045714Y6330952D01*
X10083809Y6407143D01*
X10121905Y6445238D01*
X10198095Y6483333D01*
X10350476Y6483333D01*
X10426667Y6445238D01*
X10464762Y6407143D01*
X10502857Y6330952D01*
X9588571Y6445238D02*
X9664762Y6483333D01*
X9702857Y6521429D01*
X9740952Y6597619D01*
X9740952Y6635714D01*
X9702857Y6711905D01*
X9664762Y6750000D01*
X9588571Y6788095D01*
X9436190Y6788095D01*
X9360000Y6750000D01*
X9321904Y6711905D01*
X9283809Y6635714D01*
X9283809Y6597619D01*
X9321904Y6521429D01*
X9360000Y6483333D01*
X9436190Y6445238D01*
X9588571Y6445238D01*
X9664762Y6407143D01*
X9702857Y6369048D01*
X9740952Y6292857D01*
X9740952Y6140476D01*
X9702857Y6064286D01*
X9664762Y6026190D01*
X9588571Y5988095D01*
X9436190Y5988095D01*
X9360000Y6026190D01*
X9321904Y6064286D01*
X9283809Y6140476D01*
X9283809Y6292857D01*
X9321904Y6369048D01*
X9360000Y6407143D01*
X9436190Y6445238D01*
X8940952Y5988095D02*
X8940952Y6788095D01*
X8864761Y6292857D02*
X8636190Y5988095D01*
X8636190Y6521429D02*
X8940952Y6216667D01*
X8293333Y5988095D02*
X8293333Y6788095D01*
X8293333Y6407143D02*
X7836190Y6407143D01*
X7836190Y5988095D02*
X7836190Y6788095D01*
X7531428Y6521429D02*
X7112381Y6521429D01*
X7531428Y5988095D01*
X7112381Y5988095D01*
M02*
