G04 #@! TF.FileFunction,Legend,Top*
%FSLAX46Y46*%
G04 Gerber Fmt 4.6, Leading zero omitted, Abs format (unit mm)*
G04 Created by KiCad (PCBNEW 4.0.0-stable) date 31/12/2015 20:29:45*
%MOMM*%
G01*
G04 APERTURE LIST*
%ADD10C,0.150000*%
%ADD11C,0.149860*%
%ADD12C,0.101600*%
%ADD13C,0.203200*%
%ADD14C,0.190500*%
%ADD15C,0.198120*%
%ADD16C,0.127000*%
%ADD17C,0.152400*%
G04 APERTURE END LIST*
D10*
D11*
X10781667Y12956333D02*
X11015000Y12256333D01*
X11248333Y12956333D01*
X11715000Y12623000D02*
X11815000Y12589667D01*
X11848333Y12556333D01*
X11881667Y12489667D01*
X11881667Y12389667D01*
X11848333Y12323000D01*
X11815000Y12289667D01*
X11748333Y12256333D01*
X11481667Y12256333D01*
X11481667Y12956333D01*
X11715000Y12956333D01*
X11781667Y12923000D01*
X11815000Y12889667D01*
X11848333Y12823000D01*
X11848333Y12756333D01*
X11815000Y12689667D01*
X11781667Y12656333D01*
X11715000Y12623000D01*
X11481667Y12623000D01*
X12181667Y12956333D02*
X12181667Y12389667D01*
X12215000Y12323000D01*
X12248333Y12289667D01*
X12315000Y12256333D01*
X12448333Y12256333D01*
X12515000Y12289667D01*
X12548333Y12323000D01*
X12581667Y12389667D01*
X12581667Y12956333D01*
X12881666Y12289667D02*
X12981666Y12256333D01*
X13148333Y12256333D01*
X13215000Y12289667D01*
X13248333Y12323000D01*
X13281666Y12389667D01*
X13281666Y12456333D01*
X13248333Y12523000D01*
X13215000Y12556333D01*
X13148333Y12589667D01*
X13015000Y12623000D01*
X12948333Y12656333D01*
X12915000Y12689667D01*
X12881666Y12756333D01*
X12881666Y12823000D01*
X12915000Y12889667D01*
X12948333Y12923000D01*
X13015000Y12956333D01*
X13181666Y12956333D01*
X13281666Y12923000D01*
X5750000Y3693333D02*
X6083334Y3693333D01*
X5683334Y3493333D02*
X5916667Y4193333D01*
X6150000Y3493333D01*
X6383334Y3760000D02*
X6916667Y3760000D01*
X6650000Y3493333D02*
X6650000Y4026667D01*
X15062495Y1905000D02*
G75*
G03X15062495Y1905000I-1092495J0D01*
G01*
X254000Y889000D02*
X254000Y2921000D01*
X2286000Y889000D02*
X254000Y889000D01*
X2286000Y2921000D02*
X2286000Y889000D01*
X254000Y2921000D02*
X2286000Y2921000D01*
X2491843Y17145000D02*
G75*
G03X2491843Y17145000I-1221843J0D01*
G01*
X528734Y15775733D02*
X762067Y15075733D01*
X995400Y15775733D01*
X1228734Y15075733D02*
X1228734Y15775733D01*
X1562067Y15075733D02*
X1562067Y15775733D01*
X1962067Y15075733D01*
X1962067Y15775733D01*
D12*
X635000Y0D02*
X45085000Y0D01*
X635000Y19050000D02*
X45085000Y19050000D01*
X45720000Y635000D02*
X45085000Y0D01*
X45720000Y18415000D02*
X45720000Y635000D01*
X45085000Y19050000D02*
X45720000Y18415000D01*
X0Y18415000D02*
X635000Y19050000D01*
X0Y635000D02*
X0Y18415000D01*
X635000Y0D02*
X0Y635000D01*
D11*
X44066667Y3493333D02*
X43833333Y3826667D01*
X43666667Y3493333D02*
X43666667Y4193333D01*
X43933333Y4193333D01*
X44000000Y4160000D01*
X44033333Y4126667D01*
X44066667Y4060000D01*
X44066667Y3960000D01*
X44033333Y3893333D01*
X44000000Y3860000D01*
X43933333Y3826667D01*
X43666667Y3826667D01*
X44333333Y3526667D02*
X44433333Y3493333D01*
X44600000Y3493333D01*
X44666667Y3526667D01*
X44700000Y3560000D01*
X44733333Y3626667D01*
X44733333Y3693333D01*
X44700000Y3760000D01*
X44666667Y3793333D01*
X44600000Y3826667D01*
X44466667Y3860000D01*
X44400000Y3893333D01*
X44366667Y3926667D01*
X44333333Y3993333D01*
X44333333Y4060000D01*
X44366667Y4126667D01*
X44400000Y4160000D01*
X44466667Y4193333D01*
X44633333Y4193333D01*
X44733333Y4160000D01*
X44933334Y4193333D02*
X45333334Y4193333D01*
X45133334Y3493333D02*
X45133334Y4193333D01*
X12820001Y4193333D02*
X13053334Y3493333D01*
X13286667Y4193333D01*
X13753334Y3860000D02*
X13853334Y3826667D01*
X13886667Y3793333D01*
X13920001Y3726667D01*
X13920001Y3626667D01*
X13886667Y3560000D01*
X13853334Y3526667D01*
X13786667Y3493333D01*
X13520001Y3493333D01*
X13520001Y4193333D01*
X13753334Y4193333D01*
X13820001Y4160000D01*
X13853334Y4126667D01*
X13886667Y4060000D01*
X13886667Y3993333D01*
X13853334Y3926667D01*
X13820001Y3893333D01*
X13753334Y3860000D01*
X13520001Y3860000D01*
X14186667Y3693333D02*
X14520001Y3693333D01*
X14120001Y3493333D02*
X14353334Y4193333D01*
X14586667Y3493333D01*
X14720001Y4193333D02*
X15120001Y4193333D01*
X14920001Y3493333D02*
X14920001Y4193333D01*
X16645000Y3693333D02*
X16978334Y3693333D01*
X16578334Y3493333D02*
X16811667Y4193333D01*
X17045000Y3493333D01*
X17411667Y4193333D02*
X17478334Y4193333D01*
X17545000Y4160000D01*
X17578334Y4126667D01*
X17611667Y4060000D01*
X17645000Y3926667D01*
X17645000Y3760000D01*
X17611667Y3626667D01*
X17578334Y3560000D01*
X17545000Y3526667D01*
X17478334Y3493333D01*
X17411667Y3493333D01*
X17345000Y3526667D01*
X17311667Y3560000D01*
X17278334Y3626667D01*
X17245000Y3760000D01*
X17245000Y3926667D01*
X17278334Y4060000D01*
X17311667Y4126667D01*
X17345000Y4160000D01*
X17411667Y4193333D01*
X23630000Y3693333D02*
X23963334Y3693333D01*
X23563334Y3493333D02*
X23796667Y4193333D01*
X24030000Y3493333D01*
X24196667Y4193333D02*
X24630000Y4193333D01*
X24396667Y3926667D01*
X24496667Y3926667D01*
X24563334Y3893333D01*
X24596667Y3860000D01*
X24630000Y3793333D01*
X24630000Y3626667D01*
X24596667Y3560000D01*
X24563334Y3526667D01*
X24496667Y3493333D01*
X24296667Y3493333D01*
X24230000Y3526667D01*
X24196667Y3560000D01*
X736667Y4160000D02*
X670001Y4193333D01*
X570001Y4193333D01*
X470001Y4160000D01*
X403334Y4093333D01*
X370001Y4026667D01*
X336667Y3893333D01*
X336667Y3793333D01*
X370001Y3660000D01*
X403334Y3593333D01*
X470001Y3526667D01*
X570001Y3493333D01*
X636667Y3493333D01*
X736667Y3526667D01*
X770001Y3560000D01*
X770001Y3793333D01*
X636667Y3793333D01*
X1070001Y3493333D02*
X1070001Y4193333D01*
X1470001Y3493333D01*
X1470001Y4193333D01*
X1803334Y3493333D02*
X1803334Y4193333D01*
X1970000Y4193333D01*
X2070000Y4160000D01*
X2136667Y4093333D01*
X2170000Y4026667D01*
X2203334Y3893333D01*
X2203334Y3793333D01*
X2170000Y3660000D01*
X2136667Y3593333D01*
X2070000Y3526667D01*
X1970000Y3493333D01*
X1803334Y3493333D01*
X43416667Y15623333D02*
X43850000Y15623333D01*
X43616667Y15356667D01*
X43716667Y15356667D01*
X43783334Y15323333D01*
X43816667Y15290000D01*
X43850000Y15223333D01*
X43850000Y15056667D01*
X43816667Y14990000D01*
X43783334Y14956667D01*
X43716667Y14923333D01*
X43516667Y14923333D01*
X43450000Y14956667D01*
X43416667Y14990000D01*
X44150001Y14990000D02*
X44183334Y14956667D01*
X44150001Y14923333D01*
X44116667Y14956667D01*
X44150001Y14990000D01*
X44150001Y14923333D01*
X44416667Y15623333D02*
X44850000Y15623333D01*
X44616667Y15356667D01*
X44716667Y15356667D01*
X44783334Y15323333D01*
X44816667Y15290000D01*
X44850000Y15223333D01*
X44850000Y15056667D01*
X44816667Y14990000D01*
X44783334Y14956667D01*
X44716667Y14923333D01*
X44516667Y14923333D01*
X44450000Y14956667D01*
X44416667Y14990000D01*
X45050001Y15623333D02*
X45283334Y14923333D01*
X45516667Y15623333D01*
X34006667Y3860000D02*
X34106667Y3826667D01*
X34140000Y3793333D01*
X34173334Y3726667D01*
X34173334Y3626667D01*
X34140000Y3560000D01*
X34106667Y3526667D01*
X34040000Y3493333D01*
X33773334Y3493333D01*
X33773334Y4193333D01*
X34006667Y4193333D01*
X34073334Y4160000D01*
X34106667Y4126667D01*
X34140000Y4060000D01*
X34140000Y3993333D01*
X34106667Y3926667D01*
X34073334Y3893333D01*
X34006667Y3860000D01*
X33773334Y3860000D01*
X34440000Y4126667D02*
X34473334Y4160000D01*
X34540000Y4193333D01*
X34706667Y4193333D01*
X34773334Y4160000D01*
X34806667Y4126667D01*
X34840000Y4060000D01*
X34840000Y3993333D01*
X34806667Y3893333D01*
X34406667Y3493333D01*
X34840000Y3493333D01*
X8290000Y3693333D02*
X8623334Y3693333D01*
X8223334Y3493333D02*
X8456667Y4193333D01*
X8690000Y3493333D01*
X8923334Y3760000D02*
X9456667Y3760000D01*
X39253334Y14990000D02*
X39220000Y14956667D01*
X39120000Y14923333D01*
X39053334Y14923333D01*
X38953334Y14956667D01*
X38886667Y15023333D01*
X38853334Y15090000D01*
X38820000Y15223333D01*
X38820000Y15323333D01*
X38853334Y15456667D01*
X38886667Y15523333D01*
X38953334Y15590000D01*
X39053334Y15623333D01*
X39120000Y15623333D01*
X39220000Y15590000D01*
X39253334Y15556667D01*
X39920000Y14923333D02*
X39520000Y14923333D01*
X39720000Y14923333D02*
X39720000Y15623333D01*
X39653334Y15523333D01*
X39586667Y15456667D01*
X39520000Y15423333D01*
X41293333Y3860000D02*
X41393333Y3826667D01*
X41426666Y3793333D01*
X41460000Y3726667D01*
X41460000Y3626667D01*
X41426666Y3560000D01*
X41393333Y3526667D01*
X41326666Y3493333D01*
X41060000Y3493333D01*
X41060000Y4193333D01*
X41293333Y4193333D01*
X41360000Y4160000D01*
X41393333Y4126667D01*
X41426666Y4060000D01*
X41426666Y3993333D01*
X41393333Y3926667D01*
X41360000Y3893333D01*
X41293333Y3860000D01*
X41060000Y3860000D01*
X42126666Y3493333D02*
X41726666Y3493333D01*
X41926666Y3493333D02*
X41926666Y4193333D01*
X41860000Y4093333D01*
X41793333Y4026667D01*
X41726666Y3993333D01*
X42360000Y4193333D02*
X42826667Y4193333D01*
X42526667Y3493333D01*
X36713334Y14990000D02*
X36680000Y14956667D01*
X36580000Y14923333D01*
X36513334Y14923333D01*
X36413334Y14956667D01*
X36346667Y15023333D01*
X36313334Y15090000D01*
X36280000Y15223333D01*
X36280000Y15323333D01*
X36313334Y15456667D01*
X36346667Y15523333D01*
X36413334Y15590000D01*
X36513334Y15623333D01*
X36580000Y15623333D01*
X36680000Y15590000D01*
X36713334Y15556667D01*
X36980000Y15556667D02*
X37013334Y15590000D01*
X37080000Y15623333D01*
X37246667Y15623333D01*
X37313334Y15590000D01*
X37346667Y15556667D01*
X37380000Y15490000D01*
X37380000Y15423333D01*
X37346667Y15323333D01*
X36946667Y14923333D01*
X37380000Y14923333D01*
X34173334Y14990000D02*
X34140000Y14956667D01*
X34040000Y14923333D01*
X33973334Y14923333D01*
X33873334Y14956667D01*
X33806667Y15023333D01*
X33773334Y15090000D01*
X33740000Y15223333D01*
X33740000Y15323333D01*
X33773334Y15456667D01*
X33806667Y15523333D01*
X33873334Y15590000D01*
X33973334Y15623333D01*
X34040000Y15623333D01*
X34140000Y15590000D01*
X34173334Y15556667D01*
X34406667Y15623333D02*
X34840000Y15623333D01*
X34606667Y15356667D01*
X34706667Y15356667D01*
X34773334Y15323333D01*
X34806667Y15290000D01*
X34840000Y15223333D01*
X34840000Y15056667D01*
X34806667Y14990000D01*
X34773334Y14956667D01*
X34706667Y14923333D01*
X34506667Y14923333D01*
X34440000Y14956667D01*
X34406667Y14990000D01*
X21090000Y3693333D02*
X21423334Y3693333D01*
X21023334Y3493333D02*
X21256667Y4193333D01*
X21490000Y3493333D01*
X21690000Y4126667D02*
X21723334Y4160000D01*
X21790000Y4193333D01*
X21956667Y4193333D01*
X22023334Y4160000D01*
X22056667Y4126667D01*
X22090000Y4060000D01*
X22090000Y3993333D01*
X22056667Y3893333D01*
X21656667Y3493333D01*
X22090000Y3493333D01*
X28843334Y-1586667D02*
X28843334Y-886667D01*
X29310000Y-886667D02*
X29443333Y-886667D01*
X29510000Y-920000D01*
X29576667Y-986667D01*
X29610000Y-1120000D01*
X29610000Y-1353333D01*
X29576667Y-1486667D01*
X29510000Y-1553333D01*
X29443333Y-1586667D01*
X29310000Y-1586667D01*
X29243333Y-1553333D01*
X29176667Y-1486667D01*
X29143333Y-1353333D01*
X29143333Y-1120000D01*
X29176667Y-986667D01*
X29243333Y-920000D01*
X29310000Y-886667D01*
X18916667Y-1520000D02*
X18883333Y-1553333D01*
X18783333Y-1586667D01*
X18716667Y-1586667D01*
X18616667Y-1553333D01*
X18550000Y-1486667D01*
X18516667Y-1420000D01*
X18483333Y-1286667D01*
X18483333Y-1186667D01*
X18516667Y-1053333D01*
X18550000Y-986667D01*
X18616667Y-920000D01*
X18716667Y-886667D01*
X18783333Y-886667D01*
X18883333Y-920000D01*
X18916667Y-953333D01*
X19216667Y-1586667D02*
X19216667Y-886667D01*
X19616667Y-1586667D02*
X19316667Y-1186667D01*
X19616667Y-886667D02*
X19216667Y-1286667D01*
X41793334Y14990000D02*
X41760000Y14956667D01*
X41660000Y14923333D01*
X41593334Y14923333D01*
X41493334Y14956667D01*
X41426667Y15023333D01*
X41393334Y15090000D01*
X41360000Y15223333D01*
X41360000Y15323333D01*
X41393334Y15456667D01*
X41426667Y15523333D01*
X41493334Y15590000D01*
X41593334Y15623333D01*
X41660000Y15623333D01*
X41760000Y15590000D01*
X41793334Y15556667D01*
X42226667Y15623333D02*
X42293334Y15623333D01*
X42360000Y15590000D01*
X42393334Y15556667D01*
X42426667Y15490000D01*
X42460000Y15356667D01*
X42460000Y15190000D01*
X42426667Y15056667D01*
X42393334Y14990000D01*
X42360000Y14956667D01*
X42293334Y14923333D01*
X42226667Y14923333D01*
X42160000Y14956667D01*
X42126667Y14990000D01*
X42093334Y15056667D01*
X42060000Y15190000D01*
X42060000Y15356667D01*
X42093334Y15490000D01*
X42126667Y15556667D01*
X42160000Y15590000D01*
X42226667Y15623333D01*
X38753333Y3860000D02*
X38853333Y3826667D01*
X38886666Y3793333D01*
X38920000Y3726667D01*
X38920000Y3626667D01*
X38886666Y3560000D01*
X38853333Y3526667D01*
X38786666Y3493333D01*
X38520000Y3493333D01*
X38520000Y4193333D01*
X38753333Y4193333D01*
X38820000Y4160000D01*
X38853333Y4126667D01*
X38886666Y4060000D01*
X38886666Y3993333D01*
X38853333Y3926667D01*
X38820000Y3893333D01*
X38753333Y3860000D01*
X38520000Y3860000D01*
X39586666Y3493333D02*
X39186666Y3493333D01*
X39386666Y3493333D02*
X39386666Y4193333D01*
X39320000Y4093333D01*
X39253333Y4026667D01*
X39186666Y3993333D01*
X40186667Y4193333D02*
X40053333Y4193333D01*
X39986667Y4160000D01*
X39953333Y4126667D01*
X39886667Y4026667D01*
X39853333Y3893333D01*
X39853333Y3626667D01*
X39886667Y3560000D01*
X39920000Y3526667D01*
X39986667Y3493333D01*
X40120000Y3493333D01*
X40186667Y3526667D01*
X40220000Y3560000D01*
X40253333Y3626667D01*
X40253333Y3793333D01*
X40220000Y3860000D01*
X40186667Y3893333D01*
X40120000Y3926667D01*
X39986667Y3926667D01*
X39920000Y3893333D01*
X39886667Y3860000D01*
X39853333Y3793333D01*
X36546667Y3860000D02*
X36646667Y3826667D01*
X36680000Y3793333D01*
X36713334Y3726667D01*
X36713334Y3626667D01*
X36680000Y3560000D01*
X36646667Y3526667D01*
X36580000Y3493333D01*
X36313334Y3493333D01*
X36313334Y4193333D01*
X36546667Y4193333D01*
X36613334Y4160000D01*
X36646667Y4126667D01*
X36680000Y4060000D01*
X36680000Y3993333D01*
X36646667Y3926667D01*
X36613334Y3893333D01*
X36546667Y3860000D01*
X36313334Y3860000D01*
X36946667Y4193333D02*
X37380000Y4193333D01*
X37146667Y3926667D01*
X37246667Y3926667D01*
X37313334Y3893333D01*
X37346667Y3860000D01*
X37380000Y3793333D01*
X37380000Y3626667D01*
X37346667Y3560000D01*
X37313334Y3526667D01*
X37246667Y3493333D01*
X37046667Y3493333D01*
X36980000Y3526667D01*
X36946667Y3560000D01*
X31466667Y3860000D02*
X31566667Y3826667D01*
X31600000Y3793333D01*
X31633334Y3726667D01*
X31633334Y3626667D01*
X31600000Y3560000D01*
X31566667Y3526667D01*
X31500000Y3493333D01*
X31233334Y3493333D01*
X31233334Y4193333D01*
X31466667Y4193333D01*
X31533334Y4160000D01*
X31566667Y4126667D01*
X31600000Y4060000D01*
X31600000Y3993333D01*
X31566667Y3926667D01*
X31533334Y3893333D01*
X31466667Y3860000D01*
X31233334Y3860000D01*
X32300000Y3493333D02*
X31900000Y3493333D01*
X32100000Y3493333D02*
X32100000Y4193333D01*
X32033334Y4093333D01*
X31966667Y4026667D01*
X31900000Y3993333D01*
X28926667Y3860000D02*
X29026667Y3826667D01*
X29060000Y3793333D01*
X29093334Y3726667D01*
X29093334Y3626667D01*
X29060000Y3560000D01*
X29026667Y3526667D01*
X28960000Y3493333D01*
X28693334Y3493333D01*
X28693334Y4193333D01*
X28926667Y4193333D01*
X28993334Y4160000D01*
X29026667Y4126667D01*
X29060000Y4060000D01*
X29060000Y3993333D01*
X29026667Y3926667D01*
X28993334Y3893333D01*
X28926667Y3860000D01*
X28693334Y3860000D01*
X29526667Y4193333D02*
X29593334Y4193333D01*
X29660000Y4160000D01*
X29693334Y4126667D01*
X29726667Y4060000D01*
X29760000Y3926667D01*
X29760000Y3760000D01*
X29726667Y3626667D01*
X29693334Y3560000D01*
X29660000Y3526667D01*
X29593334Y3493333D01*
X29526667Y3493333D01*
X29460000Y3526667D01*
X29426667Y3560000D01*
X29393334Y3626667D01*
X29360000Y3760000D01*
X29360000Y3926667D01*
X29393334Y4060000D01*
X29426667Y4126667D01*
X29460000Y4160000D01*
X29526667Y4193333D01*
X25836666Y-6466667D02*
X26170000Y-6466667D01*
X25770000Y-6666667D02*
X26003333Y-5966667D01*
X26236666Y-6666667D01*
X26836666Y-6666667D02*
X26436666Y-6666667D01*
X26636666Y-6666667D02*
X26636666Y-5966667D01*
X26570000Y-6066667D01*
X26503333Y-6133333D01*
X26436666Y-6166667D01*
X27170000Y-6666667D02*
X27303333Y-6666667D01*
X27370000Y-6633333D01*
X27403333Y-6600000D01*
X27470000Y-6500000D01*
X27503333Y-6366667D01*
X27503333Y-6100000D01*
X27470000Y-6033333D01*
X27436667Y-6000000D01*
X27370000Y-5966667D01*
X27236667Y-5966667D01*
X27170000Y-6000000D01*
X27136667Y-6033333D01*
X27103333Y-6100000D01*
X27103333Y-6266667D01*
X27136667Y-6333333D01*
X27170000Y-6366667D01*
X27236667Y-6400000D01*
X27370000Y-6400000D01*
X27436667Y-6366667D01*
X27470000Y-6333333D01*
X27503333Y-6266667D01*
X25836666Y-5196667D02*
X26170000Y-5196667D01*
X25770000Y-5396667D02*
X26003333Y-4696667D01*
X26236666Y-5396667D01*
X26836666Y-5396667D02*
X26436666Y-5396667D01*
X26636666Y-5396667D02*
X26636666Y-4696667D01*
X26570000Y-4796667D01*
X26503333Y-4863333D01*
X26436666Y-4896667D01*
X27236667Y-4996667D02*
X27170000Y-4963333D01*
X27136667Y-4930000D01*
X27103333Y-4863333D01*
X27103333Y-4830000D01*
X27136667Y-4763333D01*
X27170000Y-4730000D01*
X27236667Y-4696667D01*
X27370000Y-4696667D01*
X27436667Y-4730000D01*
X27470000Y-4763333D01*
X27503333Y-4830000D01*
X27503333Y-4863333D01*
X27470000Y-4930000D01*
X27436667Y-4963333D01*
X27370000Y-4996667D01*
X27236667Y-4996667D01*
X27170000Y-5030000D01*
X27136667Y-5063333D01*
X27103333Y-5130000D01*
X27103333Y-5263333D01*
X27136667Y-5330000D01*
X27170000Y-5363333D01*
X27236667Y-5396667D01*
X27370000Y-5396667D01*
X27436667Y-5363333D01*
X27470000Y-5330000D01*
X27503333Y-5263333D01*
X27503333Y-5130000D01*
X27470000Y-5063333D01*
X27436667Y-5030000D01*
X27370000Y-4996667D01*
X26170000Y3693333D02*
X26503334Y3693333D01*
X26103334Y3493333D02*
X26336667Y4193333D01*
X26570000Y3493333D01*
X27103334Y3960000D02*
X27103334Y3493333D01*
X26936667Y4226667D02*
X26770000Y3726667D01*
X27203334Y3726667D01*
X18550000Y3693333D02*
X18883334Y3693333D01*
X18483334Y3493333D02*
X18716667Y4193333D01*
X18950000Y3493333D01*
X19550000Y3493333D02*
X19150000Y3493333D01*
X19350000Y3493333D02*
X19350000Y4193333D01*
X19283334Y4093333D01*
X19216667Y4026667D01*
X19150000Y3993333D01*
X31633334Y15117000D02*
X31600000Y15083667D01*
X31500000Y15050333D01*
X31433334Y15050333D01*
X31333334Y15083667D01*
X31266667Y15150333D01*
X31233334Y15217000D01*
X31200000Y15350333D01*
X31200000Y15450333D01*
X31233334Y15583667D01*
X31266667Y15650333D01*
X31333334Y15717000D01*
X31433334Y15750333D01*
X31500000Y15750333D01*
X31600000Y15717000D01*
X31633334Y15683667D01*
X32233334Y15517000D02*
X32233334Y15050333D01*
X32066667Y15783667D02*
X31900000Y15283667D01*
X32333334Y15283667D01*
X29093334Y15117000D02*
X29060000Y15083667D01*
X28960000Y15050333D01*
X28893334Y15050333D01*
X28793334Y15083667D01*
X28726667Y15150333D01*
X28693334Y15217000D01*
X28660000Y15350333D01*
X28660000Y15450333D01*
X28693334Y15583667D01*
X28726667Y15650333D01*
X28793334Y15717000D01*
X28893334Y15750333D01*
X28960000Y15750333D01*
X29060000Y15717000D01*
X29093334Y15683667D01*
X29726667Y15750333D02*
X29393334Y15750333D01*
X29360000Y15417000D01*
X29393334Y15450333D01*
X29460000Y15483667D01*
X29626667Y15483667D01*
X29693334Y15450333D01*
X29726667Y15417000D01*
X29760000Y15350333D01*
X29760000Y15183667D01*
X29726667Y15117000D01*
X29693334Y15083667D01*
X29626667Y15050333D01*
X29460000Y15050333D01*
X29393334Y15083667D01*
X29360000Y15117000D01*
X26553334Y14990000D02*
X26520000Y14956667D01*
X26420000Y14923333D01*
X26353334Y14923333D01*
X26253334Y14956667D01*
X26186667Y15023333D01*
X26153334Y15090000D01*
X26120000Y15223333D01*
X26120000Y15323333D01*
X26153334Y15456667D01*
X26186667Y15523333D01*
X26253334Y15590000D01*
X26353334Y15623333D01*
X26420000Y15623333D01*
X26520000Y15590000D01*
X26553334Y15556667D01*
X27153334Y15623333D02*
X27020000Y15623333D01*
X26953334Y15590000D01*
X26920000Y15556667D01*
X26853334Y15456667D01*
X26820000Y15323333D01*
X26820000Y15056667D01*
X26853334Y14990000D01*
X26886667Y14956667D01*
X26953334Y14923333D01*
X27086667Y14923333D01*
X27153334Y14956667D01*
X27186667Y14990000D01*
X27220000Y15056667D01*
X27220000Y15223333D01*
X27186667Y15290000D01*
X27153334Y15323333D01*
X27086667Y15356667D01*
X26953334Y15356667D01*
X26886667Y15323333D01*
X26853334Y15290000D01*
X26820000Y15223333D01*
X24013334Y14990000D02*
X23980000Y14956667D01*
X23880000Y14923333D01*
X23813334Y14923333D01*
X23713334Y14956667D01*
X23646667Y15023333D01*
X23613334Y15090000D01*
X23580000Y15223333D01*
X23580000Y15323333D01*
X23613334Y15456667D01*
X23646667Y15523333D01*
X23713334Y15590000D01*
X23813334Y15623333D01*
X23880000Y15623333D01*
X23980000Y15590000D01*
X24013334Y15556667D01*
X24246667Y15623333D02*
X24713334Y15623333D01*
X24413334Y14923333D01*
X21073334Y15050333D02*
X21073334Y15750333D01*
X21240000Y15750333D01*
X21340000Y15717000D01*
X21406667Y15650333D01*
X21440000Y15583667D01*
X21473334Y15450333D01*
X21473334Y15350333D01*
X21440000Y15217000D01*
X21406667Y15150333D01*
X21340000Y15083667D01*
X21240000Y15050333D01*
X21073334Y15050333D01*
X21906667Y15750333D02*
X21973334Y15750333D01*
X22040000Y15717000D01*
X22073334Y15683667D01*
X22106667Y15617000D01*
X22140000Y15483667D01*
X22140000Y15317000D01*
X22106667Y15183667D01*
X22073334Y15117000D01*
X22040000Y15083667D01*
X21973334Y15050333D01*
X21906667Y15050333D01*
X21840000Y15083667D01*
X21806667Y15117000D01*
X21773334Y15183667D01*
X21740000Y15317000D01*
X21740000Y15483667D01*
X21773334Y15617000D01*
X21806667Y15683667D01*
X21840000Y15717000D01*
X21906667Y15750333D01*
X18533334Y15050333D02*
X18533334Y15750333D01*
X18700000Y15750333D01*
X18800000Y15717000D01*
X18866667Y15650333D01*
X18900000Y15583667D01*
X18933334Y15450333D01*
X18933334Y15350333D01*
X18900000Y15217000D01*
X18866667Y15150333D01*
X18800000Y15083667D01*
X18700000Y15050333D01*
X18533334Y15050333D01*
X19600000Y15050333D02*
X19200000Y15050333D01*
X19400000Y15050333D02*
X19400000Y15750333D01*
X19333334Y15650333D01*
X19266667Y15583667D01*
X19200000Y15550333D01*
X15993334Y15050333D02*
X15993334Y15750333D01*
X16160000Y15750333D01*
X16260000Y15717000D01*
X16326667Y15650333D01*
X16360000Y15583667D01*
X16393334Y15450333D01*
X16393334Y15350333D01*
X16360000Y15217000D01*
X16326667Y15150333D01*
X16260000Y15083667D01*
X16160000Y15050333D01*
X15993334Y15050333D01*
X16660000Y15683667D02*
X16693334Y15717000D01*
X16760000Y15750333D01*
X16926667Y15750333D01*
X16993334Y15717000D01*
X17026667Y15683667D01*
X17060000Y15617000D01*
X17060000Y15550333D01*
X17026667Y15450333D01*
X16626667Y15050333D01*
X17060000Y15050333D01*
X13453334Y14923333D02*
X13453334Y15623333D01*
X13620000Y15623333D01*
X13720000Y15590000D01*
X13786667Y15523333D01*
X13820000Y15456667D01*
X13853334Y15323333D01*
X13853334Y15223333D01*
X13820000Y15090000D01*
X13786667Y15023333D01*
X13720000Y14956667D01*
X13620000Y14923333D01*
X13453334Y14923333D01*
X14086667Y15623333D02*
X14520000Y15623333D01*
X14286667Y15356667D01*
X14386667Y15356667D01*
X14453334Y15323333D01*
X14486667Y15290000D01*
X14520000Y15223333D01*
X14520000Y15056667D01*
X14486667Y14990000D01*
X14453334Y14956667D01*
X14386667Y14923333D01*
X14186667Y14923333D01*
X14120000Y14956667D01*
X14086667Y14990000D01*
X10913334Y18098333D02*
X10913334Y18798333D01*
X11080000Y18798333D01*
X11180000Y18765000D01*
X11246667Y18698333D01*
X11280000Y18631667D01*
X11313334Y18498333D01*
X11313334Y18398333D01*
X11280000Y18265000D01*
X11246667Y18198333D01*
X11180000Y18131667D01*
X11080000Y18098333D01*
X10913334Y18098333D01*
X11913334Y18565000D02*
X11913334Y18098333D01*
X11746667Y18831667D02*
X11580000Y18331667D01*
X12013334Y18331667D01*
X8373334Y15050333D02*
X8373334Y15750333D01*
X8540000Y15750333D01*
X8640000Y15717000D01*
X8706667Y15650333D01*
X8740000Y15583667D01*
X8773334Y15450333D01*
X8773334Y15350333D01*
X8740000Y15217000D01*
X8706667Y15150333D01*
X8640000Y15083667D01*
X8540000Y15050333D01*
X8373334Y15050333D01*
X9406667Y15750333D02*
X9073334Y15750333D01*
X9040000Y15417000D01*
X9073334Y15450333D01*
X9140000Y15483667D01*
X9306667Y15483667D01*
X9373334Y15450333D01*
X9406667Y15417000D01*
X9440000Y15350333D01*
X9440000Y15183667D01*
X9406667Y15117000D01*
X9373334Y15083667D01*
X9306667Y15050333D01*
X9140000Y15050333D01*
X9073334Y15083667D01*
X9040000Y15117000D01*
X5833334Y15050333D02*
X5833334Y15750333D01*
X6000000Y15750333D01*
X6100000Y15717000D01*
X6166667Y15650333D01*
X6200000Y15583667D01*
X6233334Y15450333D01*
X6233334Y15350333D01*
X6200000Y15217000D01*
X6166667Y15150333D01*
X6100000Y15083667D01*
X6000000Y15050333D01*
X5833334Y15050333D01*
X6833334Y15750333D02*
X6700000Y15750333D01*
X6633334Y15717000D01*
X6600000Y15683667D01*
X6533334Y15583667D01*
X6500000Y15450333D01*
X6500000Y15183667D01*
X6533334Y15117000D01*
X6566667Y15083667D01*
X6633334Y15050333D01*
X6766667Y15050333D01*
X6833334Y15083667D01*
X6866667Y15117000D01*
X6900000Y15183667D01*
X6900000Y15350333D01*
X6866667Y15417000D01*
X6833334Y15450333D01*
X6766667Y15483667D01*
X6633334Y15483667D01*
X6566667Y15450333D01*
X6533334Y15417000D01*
X6500000Y15350333D01*
X3293334Y15050333D02*
X3293334Y15750333D01*
X3460000Y15750333D01*
X3560000Y15717000D01*
X3626667Y15650333D01*
X3660000Y15583667D01*
X3693334Y15450333D01*
X3693334Y15350333D01*
X3660000Y15217000D01*
X3626667Y15150333D01*
X3560000Y15083667D01*
X3460000Y15050333D01*
X3293334Y15050333D01*
X3926667Y15750333D02*
X4393334Y15750333D01*
X4093334Y15050333D01*
X45620882Y17145000D02*
G75*
G03X45620882Y17145000I-1170882J0D01*
G01*
X27875774Y8163969D02*
X27918591Y8287068D01*
X27961409Y8324532D01*
X28047043Y8356645D01*
X28175494Y8340589D01*
X28261129Y8287067D01*
X28303946Y8238898D01*
X28346763Y8147912D01*
X28346763Y7805375D01*
X27447603Y7917770D01*
X27447603Y8217490D01*
X27490420Y8297772D01*
X27533237Y8335237D01*
X27618871Y8367350D01*
X27704506Y8356645D01*
X27790140Y8303124D01*
X27832957Y8254955D01*
X27875774Y8163969D01*
X27875774Y7864249D01*
X28261129Y9229044D02*
X28303946Y9180875D01*
X28346763Y9047072D01*
X28346763Y8961438D01*
X28303946Y8838338D01*
X28218311Y8763409D01*
X28132677Y8731296D01*
X27961409Y8709887D01*
X27832957Y8725944D01*
X27661689Y8790169D01*
X27576054Y8843691D01*
X27490420Y8940029D01*
X27447603Y9073833D01*
X27447603Y9159467D01*
X27490420Y9282566D01*
X27533237Y9320031D01*
X28346763Y10288769D02*
X27447603Y10401164D01*
X28346763Y10802574D02*
X27832957Y10481446D01*
X27447603Y10914969D02*
X27961409Y10336938D01*
X27533237Y11246803D02*
X27490420Y11294972D01*
X27447603Y11385958D01*
X27447603Y11600044D01*
X27490420Y11680326D01*
X27533237Y11717791D01*
X27618871Y11749904D01*
X27704506Y11739199D01*
X27832957Y11680326D01*
X28346763Y11102294D01*
X28346763Y11658917D01*
X27447603Y12327935D02*
X27447603Y12413570D01*
X27490420Y12493852D01*
X27533237Y12531317D01*
X27618871Y12563430D01*
X27790140Y12584838D01*
X28004226Y12558077D01*
X28175494Y12493852D01*
X28261129Y12440330D01*
X28303946Y12392161D01*
X28346763Y12301175D01*
X28346763Y12215540D01*
X28303946Y12135258D01*
X28261129Y12097793D01*
X28175494Y12065681D01*
X28004226Y12044272D01*
X27790140Y12071033D01*
X27618871Y12135259D01*
X27533237Y12188780D01*
X27490420Y12236949D01*
X27447603Y12327935D01*
X27747323Y13574984D02*
X28346763Y13714140D01*
X27747323Y14003156D01*
X27533237Y14329637D02*
X27490420Y14377806D01*
X27447603Y14468792D01*
X27447603Y14682878D01*
X27490420Y14763160D01*
X27533237Y14800625D01*
X27618871Y14832738D01*
X27704506Y14822033D01*
X27832957Y14763160D01*
X28346763Y14185128D01*
X28346763Y14741751D01*
X8890000Y6858000D02*
X6350000Y6858000D01*
X6350000Y6858000D02*
X6350000Y8382000D01*
X6350000Y8382000D02*
X8890000Y8382000D01*
X8890000Y8382000D02*
X8890000Y6858000D01*
X8890000Y12573000D02*
X6350000Y12573000D01*
X6350000Y12573000D02*
X6350000Y14097000D01*
X6350000Y14097000D02*
X8890000Y14097000D01*
X8890000Y14097000D02*
X8890000Y12573000D01*
X13335000Y6858000D02*
X10795000Y6858000D01*
X10795000Y6858000D02*
X10795000Y8382000D01*
X10795000Y8382000D02*
X13335000Y8382000D01*
X13335000Y8382000D02*
X13335000Y6858000D01*
X26035000Y5842000D02*
X28575000Y5842000D01*
X28575000Y5842000D02*
X28575000Y4318000D01*
X28575000Y4318000D02*
X26035000Y4318000D01*
X26035000Y4318000D02*
X26035000Y5842000D01*
X30988000Y5080000D02*
X30988000Y7620000D01*
X30988000Y7620000D02*
X32512000Y7620000D01*
X32512000Y7620000D02*
X32512000Y5080000D01*
X32512000Y5080000D02*
X30988000Y5080000D01*
X13335000Y4953000D02*
X10795000Y4953000D01*
X10795000Y4953000D02*
X10795000Y6477000D01*
X10795000Y6477000D02*
X13335000Y6477000D01*
X13335000Y6477000D02*
X13335000Y4953000D01*
D10*
X32469000Y9948000D02*
X30569000Y9948000D01*
X32469000Y8848000D02*
X30569000Y8848000D01*
X31569000Y9398000D02*
X31119000Y9398000D01*
X31619000Y9148000D02*
X31619000Y9648000D01*
X31619000Y9398000D02*
X31369000Y9148000D01*
X31369000Y9148000D02*
X31369000Y9648000D01*
X31369000Y9648000D02*
X31619000Y9398000D01*
D13*
X-180340Y12776200D02*
X-180340Y6273800D01*
X2519680Y5775960D02*
X4320540Y5775960D01*
X4320540Y5775960D02*
X4320540Y6474460D01*
X4320540Y10975340D02*
X4320540Y8125460D01*
X2570480Y13274040D02*
X4320540Y13274040D01*
X4320540Y13274040D02*
X4320540Y12674600D01*
X-878840Y5775960D02*
X-30480Y5775960D01*
X-878840Y5775960D02*
X-878840Y13274040D01*
X-878840Y13274040D02*
X-30480Y13274040D01*
D10*
X12700000Y15875000D02*
X10160000Y15875000D01*
X10160000Y15875000D02*
X10160000Y13335000D01*
X10160000Y13335000D02*
X12700000Y13335000D01*
X12700000Y13335000D02*
X12700000Y15875000D01*
D14*
X45275500Y5461000D02*
G75*
G03X45275500Y5461000I-317500J0D01*
G01*
D11*
X6350000Y10287000D02*
X8890000Y10287000D01*
X8890000Y10287000D02*
X8890000Y8763000D01*
X8890000Y8763000D02*
X6350000Y8763000D01*
X6350000Y8763000D02*
X6350000Y10287000D01*
X6350000Y12192000D02*
X8890000Y12192000D01*
X8890000Y12192000D02*
X8890000Y10668000D01*
X8890000Y10668000D02*
X6350000Y10668000D01*
X6350000Y10668000D02*
X6350000Y12192000D01*
X33655000Y10160000D02*
X36195000Y10160000D01*
X36195000Y10160000D02*
X36195000Y8636000D01*
X36195000Y8636000D02*
X33655000Y8636000D01*
X33655000Y8636000D02*
X33655000Y10160000D01*
X32512000Y13970000D02*
X32512000Y11430000D01*
X32512000Y11430000D02*
X30988000Y11430000D01*
X30988000Y11430000D02*
X30988000Y13970000D01*
X30988000Y13970000D02*
X32512000Y13970000D01*
X26035000Y7493000D02*
X28575000Y7493000D01*
X28575000Y7493000D02*
X28575000Y5969000D01*
X28575000Y5969000D02*
X26035000Y5969000D01*
X26035000Y5969000D02*
X26035000Y7493000D01*
D10*
X37660000Y4950000D02*
X37660000Y7750000D01*
X37660000Y7750000D02*
X33460000Y7750000D01*
X33460000Y7750000D02*
X33460000Y4950000D01*
X37660000Y4950000D02*
X33460000Y4950000D01*
X33460000Y14100000D02*
X33460000Y11300000D01*
X33460000Y11300000D02*
X37660000Y11300000D01*
X37660000Y11300000D02*
X37660000Y14100000D01*
X33460000Y14100000D02*
X37660000Y14100000D01*
D11*
X16586200Y6225540D02*
X16385540Y6426200D01*
X16385540Y6426200D02*
X16385540Y12623800D01*
X16385540Y12623800D02*
X16586200Y12824460D01*
X16586200Y12824460D02*
X22783800Y12824460D01*
X22783800Y12824460D02*
X22984460Y12623800D01*
X22783800Y6225540D02*
X16586200Y6225540D01*
X22984460Y12623800D02*
X22984460Y6426200D01*
X16586200Y6123940D02*
X16283940Y6426200D01*
X23086060Y6426200D02*
X22783800Y6123940D01*
X22783800Y12926060D02*
X23086060Y12623800D01*
X16586200Y12926060D02*
X16283940Y12623800D01*
D13*
X15491491Y13228320D02*
G75*
G03X15491491Y13228320I-104171J0D01*
G01*
D15*
X17427332Y11874500D02*
G75*
G03X17427332Y11874500I-140092J0D01*
G01*
D11*
X9973129Y7470140D02*
X10015946Y7427323D01*
X10058763Y7298872D01*
X10058763Y7213238D01*
X10015946Y7084786D01*
X9930311Y6999152D01*
X9844677Y6956335D01*
X9673409Y6913518D01*
X9544957Y6913518D01*
X9373689Y6956335D01*
X9288054Y6999152D01*
X9202420Y7084786D01*
X9159603Y7213238D01*
X9159603Y7298872D01*
X9202420Y7427323D01*
X9245237Y7470140D01*
X10058763Y8326483D02*
X10058763Y7812678D01*
X10058763Y8069580D02*
X9159603Y8069580D01*
X9288054Y7983946D01*
X9373689Y7898312D01*
X9416506Y7812678D01*
X9973129Y13185140D02*
X10015946Y13142323D01*
X10058763Y13013872D01*
X10058763Y12928238D01*
X10015946Y12799786D01*
X9930311Y12714152D01*
X9844677Y12671335D01*
X9673409Y12628518D01*
X9544957Y12628518D01*
X9373689Y12671335D01*
X9288054Y12714152D01*
X9202420Y12799786D01*
X9159603Y12928238D01*
X9159603Y13013872D01*
X9202420Y13142323D01*
X9245237Y13185140D01*
X9159603Y13484860D02*
X9159603Y14041483D01*
X9502140Y13741763D01*
X9502140Y13870215D01*
X9544957Y13955849D01*
X9587774Y13998666D01*
X9673409Y14041483D01*
X9887494Y14041483D01*
X9973129Y13998666D01*
X10015946Y13955849D01*
X10058763Y13870215D01*
X10058763Y13613312D01*
X10015946Y13527678D01*
X9973129Y13484860D01*
X14291129Y7470140D02*
X14333946Y7427323D01*
X14376763Y7298872D01*
X14376763Y7213238D01*
X14333946Y7084786D01*
X14248311Y6999152D01*
X14162677Y6956335D01*
X13991409Y6913518D01*
X13862957Y6913518D01*
X13691689Y6956335D01*
X13606054Y6999152D01*
X13520420Y7084786D01*
X13477603Y7213238D01*
X13477603Y7298872D01*
X13520420Y7427323D01*
X13563237Y7470140D01*
X13777323Y8240849D02*
X14376763Y8240849D01*
X13434786Y8026763D02*
X14077043Y7812678D01*
X14077043Y8369300D01*
X29441140Y4758871D02*
X29398323Y4716054D01*
X29269872Y4673237D01*
X29184238Y4673237D01*
X29055786Y4716054D01*
X28970152Y4801689D01*
X28927335Y4887323D01*
X28884518Y5058591D01*
X28884518Y5187043D01*
X28927335Y5358311D01*
X28970152Y5443946D01*
X29055786Y5529580D01*
X29184238Y5572397D01*
X29269872Y5572397D01*
X29398323Y5529580D01*
X29441140Y5486763D01*
X30254666Y5572397D02*
X29826495Y5572397D01*
X29783678Y5144226D01*
X29826495Y5187043D01*
X29912129Y5229860D01*
X30126215Y5229860D01*
X30211849Y5187043D01*
X30254666Y5144226D01*
X30297483Y5058591D01*
X30297483Y4844506D01*
X30254666Y4758871D01*
X30211849Y4716054D01*
X30126215Y4673237D01*
X29912129Y4673237D01*
X29826495Y4716054D01*
X29783678Y4758871D01*
X31600140Y7806871D02*
X31557323Y7764054D01*
X31428872Y7721237D01*
X31343238Y7721237D01*
X31214786Y7764054D01*
X31129152Y7849689D01*
X31086335Y7935323D01*
X31043518Y8106591D01*
X31043518Y8235043D01*
X31086335Y8406311D01*
X31129152Y8491946D01*
X31214786Y8577580D01*
X31343238Y8620397D01*
X31428872Y8620397D01*
X31557323Y8577580D01*
X31600140Y8534763D01*
X32370849Y8620397D02*
X32199580Y8620397D01*
X32113946Y8577580D01*
X32071129Y8534763D01*
X31985495Y8406311D01*
X31942678Y8235043D01*
X31942678Y7892506D01*
X31985495Y7806871D01*
X32028312Y7764054D01*
X32113946Y7721237D01*
X32285215Y7721237D01*
X32370849Y7764054D01*
X32413666Y7806871D01*
X32456483Y7892506D01*
X32456483Y8106591D01*
X32413666Y8192226D01*
X32370849Y8235043D01*
X32285215Y8277860D01*
X32113946Y8277860D01*
X32028312Y8235043D01*
X31985495Y8192226D01*
X31942678Y8106591D01*
X14291129Y5565140D02*
X14333946Y5522323D01*
X14376763Y5393872D01*
X14376763Y5308238D01*
X14333946Y5179786D01*
X14248311Y5094152D01*
X14162677Y5051335D01*
X13991409Y5008518D01*
X13862957Y5008518D01*
X13691689Y5051335D01*
X13606054Y5094152D01*
X13520420Y5179786D01*
X13477603Y5308238D01*
X13477603Y5393872D01*
X13520420Y5522323D01*
X13563237Y5565140D01*
X13862957Y6078946D02*
X13820140Y5993312D01*
X13777323Y5950495D01*
X13691689Y5907678D01*
X13648871Y5907678D01*
X13563237Y5950495D01*
X13520420Y5993312D01*
X13477603Y6078946D01*
X13477603Y6250215D01*
X13520420Y6335849D01*
X13563237Y6378666D01*
X13648871Y6421483D01*
X13691689Y6421483D01*
X13777323Y6378666D01*
X13820140Y6335849D01*
X13862957Y6250215D01*
X13862957Y6078946D01*
X13905774Y5993312D01*
X13948591Y5950495D01*
X14034226Y5907678D01*
X14205494Y5907678D01*
X14291129Y5950495D01*
X14333946Y5993312D01*
X14376763Y6078946D01*
X14376763Y6250215D01*
X14333946Y6335849D01*
X14291129Y6378666D01*
X14205494Y6421483D01*
X14034226Y6421483D01*
X13948591Y6378666D01*
X13905774Y6335849D01*
X13862957Y6250215D01*
D10*
X30757905Y10215619D02*
X30757905Y11215619D01*
X30996000Y11215619D01*
X31138858Y11168000D01*
X31234096Y11072762D01*
X31281715Y10977524D01*
X31329334Y10787048D01*
X31329334Y10644190D01*
X31281715Y10453714D01*
X31234096Y10358476D01*
X31138858Y10263238D01*
X30996000Y10215619D01*
X30757905Y10215619D01*
X32281715Y10215619D02*
X31710286Y10215619D01*
X31996000Y10215619D02*
X31996000Y11215619D01*
X31900762Y11072762D01*
X31805524Y10977524D01*
X31710286Y10929905D01*
D16*
X-5418667Y10081381D02*
X-5418667Y9355667D01*
X-5467047Y9210524D01*
X-5563809Y9113762D01*
X-5708952Y9065381D01*
X-5805714Y9065381D01*
X-5031619Y10081381D02*
X-4402667Y10081381D01*
X-4741333Y9694333D01*
X-4596191Y9694333D01*
X-4499429Y9645952D01*
X-4451048Y9597571D01*
X-4402667Y9500810D01*
X-4402667Y9258905D01*
X-4451048Y9162143D01*
X-4499429Y9113762D01*
X-4596191Y9065381D01*
X-4886476Y9065381D01*
X-4983238Y9113762D01*
X-5031619Y9162143D01*
X-11024809Y7160381D02*
X-11024809Y8176381D01*
X-10686143Y7450667D01*
X-10347476Y8176381D01*
X-10347476Y7160381D01*
X-9863666Y7160381D02*
X-9863666Y8176381D01*
X-8799285Y7257143D02*
X-8847666Y7208762D01*
X-8992809Y7160381D01*
X-9089571Y7160381D01*
X-9234713Y7208762D01*
X-9331475Y7305524D01*
X-9379856Y7402286D01*
X-9428237Y7595810D01*
X-9428237Y7740952D01*
X-9379856Y7934476D01*
X-9331475Y8031238D01*
X-9234713Y8128000D01*
X-9089571Y8176381D01*
X-8992809Y8176381D01*
X-8847666Y8128000D01*
X-8799285Y8079619D01*
X-7783285Y7160381D02*
X-8121951Y7644190D01*
X-8363856Y7160381D02*
X-8363856Y8176381D01*
X-7976809Y8176381D01*
X-7880047Y8128000D01*
X-7831666Y8079619D01*
X-7783285Y7982857D01*
X-7783285Y7837714D01*
X-7831666Y7740952D01*
X-7880047Y7692571D01*
X-7976809Y7644190D01*
X-8363856Y7644190D01*
X-7154332Y8176381D02*
X-6960809Y8176381D01*
X-6864047Y8128000D01*
X-6767285Y8031238D01*
X-6718904Y7837714D01*
X-6718904Y7499048D01*
X-6767285Y7305524D01*
X-6864047Y7208762D01*
X-6960809Y7160381D01*
X-7154332Y7160381D01*
X-7251094Y7208762D01*
X-7347856Y7305524D01*
X-7396237Y7499048D01*
X-7396237Y7837714D01*
X-7347856Y8031238D01*
X-7251094Y8128000D01*
X-7154332Y8176381D01*
X-6525380Y7063619D02*
X-5751285Y7063619D01*
X-5509380Y8176381D02*
X-5509380Y7353905D01*
X-5460999Y7257143D01*
X-5412618Y7208762D01*
X-5315856Y7160381D01*
X-5122333Y7160381D01*
X-5025571Y7208762D01*
X-4977190Y7257143D01*
X-4928809Y7353905D01*
X-4928809Y8176381D01*
X-4493380Y7208762D02*
X-4348237Y7160381D01*
X-4106333Y7160381D01*
X-4009571Y7208762D01*
X-3961190Y7257143D01*
X-3912809Y7353905D01*
X-3912809Y7450667D01*
X-3961190Y7547429D01*
X-4009571Y7595810D01*
X-4106333Y7644190D01*
X-4299856Y7692571D01*
X-4396618Y7740952D01*
X-4444999Y7789333D01*
X-4493380Y7886095D01*
X-4493380Y7982857D01*
X-4444999Y8079619D01*
X-4396618Y8128000D01*
X-4299856Y8176381D01*
X-4057952Y8176381D01*
X-3912809Y8128000D01*
X-3138714Y7692571D02*
X-2993571Y7644190D01*
X-2945190Y7595810D01*
X-2896809Y7499048D01*
X-2896809Y7353905D01*
X-2945190Y7257143D01*
X-2993571Y7208762D01*
X-3090333Y7160381D01*
X-3477380Y7160381D01*
X-3477380Y8176381D01*
X-3138714Y8176381D01*
X-3041952Y8128000D01*
X-2993571Y8079619D01*
X-2945190Y7982857D01*
X-2945190Y7886095D01*
X-2993571Y7789333D01*
X-3041952Y7740952D01*
X-3138714Y7692571D01*
X-3477380Y7692571D01*
D10*
X10056905Y23042619D02*
X10056905Y24042619D01*
X10437858Y24042619D01*
X10533096Y23995000D01*
X10580715Y23947381D01*
X10628334Y23852143D01*
X10628334Y23709286D01*
X10580715Y23614048D01*
X10533096Y23566429D01*
X10437858Y23518810D01*
X10056905Y23518810D01*
X11009286Y23947381D02*
X11056905Y23995000D01*
X11152143Y24042619D01*
X11390239Y24042619D01*
X11485477Y23995000D01*
X11533096Y23947381D01*
X11580715Y23852143D01*
X11580715Y23756905D01*
X11533096Y23614048D01*
X10961667Y23042619D01*
X11580715Y23042619D01*
X9310953Y21232857D02*
X9263334Y21185238D01*
X9120477Y21137619D01*
X9025239Y21137619D01*
X8882381Y21185238D01*
X8787143Y21280476D01*
X8739524Y21375714D01*
X8691905Y21566190D01*
X8691905Y21709048D01*
X8739524Y21899524D01*
X8787143Y21994762D01*
X8882381Y22090000D01*
X9025239Y22137619D01*
X9120477Y22137619D01*
X9263334Y22090000D01*
X9310953Y22042381D01*
X9930000Y22137619D02*
X10120477Y22137619D01*
X10215715Y22090000D01*
X10310953Y21994762D01*
X10358572Y21804286D01*
X10358572Y21470952D01*
X10310953Y21280476D01*
X10215715Y21185238D01*
X10120477Y21137619D01*
X9930000Y21137619D01*
X9834762Y21185238D01*
X9739524Y21280476D01*
X9691905Y21470952D01*
X9691905Y21804286D01*
X9739524Y21994762D01*
X9834762Y22090000D01*
X9930000Y22137619D01*
X10787143Y21137619D02*
X10787143Y22137619D01*
X11358572Y21137619D01*
X11358572Y22137619D01*
X11834762Y21137619D02*
X11834762Y22137619D01*
X12406191Y21137619D01*
X12406191Y22137619D01*
X12644286Y21042381D02*
X13406191Y21042381D01*
X14168096Y21137619D02*
X13596667Y21137619D01*
X13882381Y21137619D02*
X13882381Y22137619D01*
X13787143Y21994762D01*
X13691905Y21899524D01*
X13596667Y21851905D01*
D17*
X41198800Y13668829D02*
X41198800Y13233400D01*
X41169772Y13146314D01*
X41111715Y13088257D01*
X41024629Y13059229D01*
X40966572Y13059229D01*
X41402000Y13668829D02*
X41750343Y13668829D01*
X41576172Y13059229D02*
X41576172Y13668829D01*
X41924514Y13233400D02*
X42214800Y13233400D01*
X41866457Y13059229D02*
X42069657Y13668829D01*
X42272857Y13059229D01*
X42795371Y13639800D02*
X42737314Y13668829D01*
X42650228Y13668829D01*
X42563143Y13639800D01*
X42505085Y13581743D01*
X42476057Y13523686D01*
X42447028Y13407571D01*
X42447028Y13320486D01*
X42476057Y13204371D01*
X42505085Y13146314D01*
X42563143Y13088257D01*
X42650228Y13059229D01*
X42708285Y13059229D01*
X42795371Y13088257D01*
X42824400Y13117286D01*
X42824400Y13320486D01*
X42708285Y13320486D01*
X40285851Y13508446D02*
X40285851Y13160103D01*
X40285851Y13334275D02*
X39676251Y13334275D01*
X39763337Y13276218D01*
X39821394Y13218160D01*
X39850423Y13160103D01*
X39676251Y13885817D02*
X39676251Y13943874D01*
X39705280Y14001931D01*
X39734309Y14030960D01*
X39792366Y14059989D01*
X39908480Y14089017D01*
X40053623Y14089017D01*
X40169737Y14059989D01*
X40227794Y14030960D01*
X40256823Y14001931D01*
X40285851Y13943874D01*
X40285851Y13885817D01*
X40256823Y13827760D01*
X40227794Y13798731D01*
X40169737Y13769703D01*
X40053623Y13740674D01*
X39908480Y13740674D01*
X39792366Y13769703D01*
X39734309Y13798731D01*
X39705280Y13827760D01*
X39676251Y13885817D01*
X43885031Y13109666D02*
X43885031Y13225781D01*
X43856003Y13283838D01*
X43826974Y13312866D01*
X43739889Y13370924D01*
X43623774Y13399952D01*
X43391546Y13399952D01*
X43333489Y13370924D01*
X43304460Y13341895D01*
X43275431Y13283838D01*
X43275431Y13167724D01*
X43304460Y13109666D01*
X43333489Y13080638D01*
X43391546Y13051609D01*
X43536689Y13051609D01*
X43594746Y13080638D01*
X43623774Y13109666D01*
X43652803Y13167724D01*
X43652803Y13283838D01*
X43623774Y13341895D01*
X43594746Y13370924D01*
X43536689Y13399952D01*
X39833369Y5451929D02*
X39804340Y5480958D01*
X39775311Y5539015D01*
X39775311Y5684158D01*
X39804340Y5742215D01*
X39833369Y5771244D01*
X39891426Y5800272D01*
X39949483Y5800272D01*
X40036569Y5771244D01*
X40384911Y5422901D01*
X40384911Y5800272D01*
X43885031Y5899332D02*
X43885031Y5550989D01*
X43885031Y5725161D02*
X43275431Y5725161D01*
X43362517Y5667104D01*
X43420574Y5609046D01*
X43449603Y5550989D01*
D11*
X10058763Y9375140D02*
X9630591Y9075420D01*
X10058763Y8861335D02*
X9159603Y8861335D01*
X9159603Y9203872D01*
X9202420Y9289506D01*
X9245237Y9332323D01*
X9330871Y9375140D01*
X9459323Y9375140D01*
X9544957Y9332323D01*
X9587774Y9289506D01*
X9630591Y9203872D01*
X9630591Y8861335D01*
X10058763Y10231483D02*
X10058763Y9717678D01*
X10058763Y9974580D02*
X9159603Y9974580D01*
X9288054Y9888946D01*
X9373689Y9803312D01*
X9416506Y9717678D01*
X10058763Y11280140D02*
X9630591Y10980420D01*
X10058763Y10766335D02*
X9159603Y10766335D01*
X9159603Y11108872D01*
X9202420Y11194506D01*
X9245237Y11237323D01*
X9330871Y11280140D01*
X9459323Y11280140D01*
X9544957Y11237323D01*
X9587774Y11194506D01*
X9630591Y11108872D01*
X9630591Y10766335D01*
X9245237Y11622678D02*
X9202420Y11665495D01*
X9159603Y11751129D01*
X9159603Y11965215D01*
X9202420Y12050849D01*
X9245237Y12093666D01*
X9330871Y12136483D01*
X9416506Y12136483D01*
X9544957Y12093666D01*
X10058763Y11579860D01*
X10058763Y12136483D01*
X37363763Y9248140D02*
X36935591Y8948420D01*
X37363763Y8734335D02*
X36464603Y8734335D01*
X36464603Y9076872D01*
X36507420Y9162506D01*
X36550237Y9205323D01*
X36635871Y9248140D01*
X36764323Y9248140D01*
X36849957Y9205323D01*
X36892774Y9162506D01*
X36935591Y9076872D01*
X36935591Y8734335D01*
X36464603Y9547860D02*
X36464603Y10104483D01*
X36807140Y9804763D01*
X36807140Y9933215D01*
X36849957Y10018849D01*
X36892774Y10061666D01*
X36978409Y10104483D01*
X37192494Y10104483D01*
X37278129Y10061666D01*
X37320946Y10018849D01*
X37363763Y9933215D01*
X37363763Y9676312D01*
X37320946Y9590678D01*
X37278129Y9547860D01*
X30759763Y12550140D02*
X30331591Y12250420D01*
X30759763Y12036335D02*
X29860603Y12036335D01*
X29860603Y12378872D01*
X29903420Y12464506D01*
X29946237Y12507323D01*
X30031871Y12550140D01*
X30160323Y12550140D01*
X30245957Y12507323D01*
X30288774Y12464506D01*
X30331591Y12378872D01*
X30331591Y12036335D01*
X30160323Y13320849D02*
X30759763Y13320849D01*
X29817786Y13106763D02*
X30460043Y12892678D01*
X30460043Y13449300D01*
X29441140Y6324237D02*
X29141420Y6752409D01*
X28927335Y6324237D02*
X28927335Y7223397D01*
X29269872Y7223397D01*
X29355506Y7180580D01*
X29398323Y7137763D01*
X29441140Y7052129D01*
X29441140Y6923677D01*
X29398323Y6838043D01*
X29355506Y6795226D01*
X29269872Y6752409D01*
X28927335Y6752409D01*
X30254666Y7223397D02*
X29826495Y7223397D01*
X29783678Y6795226D01*
X29826495Y6838043D01*
X29912129Y6880860D01*
X30126215Y6880860D01*
X30211849Y6838043D01*
X30254666Y6795226D01*
X30297483Y6709591D01*
X30297483Y6495506D01*
X30254666Y6409871D01*
X30211849Y6367054D01*
X30126215Y6324237D01*
X29912129Y6324237D01*
X29826495Y6367054D01*
X29783678Y6409871D01*
D13*
X47951571Y5660571D02*
X47443571Y6386286D01*
X47080714Y5660571D02*
X47080714Y7184571D01*
X47661286Y7184571D01*
X47806428Y7112000D01*
X47879000Y7039429D01*
X47951571Y6894286D01*
X47951571Y6676571D01*
X47879000Y6531429D01*
X47806428Y6458857D01*
X47661286Y6386286D01*
X47080714Y6386286D01*
X48604714Y6458857D02*
X49112714Y6458857D01*
X49330428Y5660571D02*
X48604714Y5660571D01*
X48604714Y7184571D01*
X49330428Y7184571D01*
X49911000Y5733143D02*
X50128714Y5660571D01*
X50491571Y5660571D01*
X50636714Y5733143D01*
X50709285Y5805714D01*
X50781857Y5950857D01*
X50781857Y6096000D01*
X50709285Y6241143D01*
X50636714Y6313714D01*
X50491571Y6386286D01*
X50201285Y6458857D01*
X50056143Y6531429D01*
X49983571Y6604000D01*
X49911000Y6749143D01*
X49911000Y6894286D01*
X49983571Y7039429D01*
X50056143Y7112000D01*
X50201285Y7184571D01*
X50564143Y7184571D01*
X50781857Y7112000D01*
X51435000Y6458857D02*
X51943000Y6458857D01*
X52160714Y5660571D02*
X51435000Y5660571D01*
X51435000Y7184571D01*
X52160714Y7184571D01*
X52596143Y7184571D02*
X53467000Y7184571D01*
X53031571Y5660571D02*
X53031571Y7184571D01*
X46917429Y13534571D02*
X46917429Y12300857D01*
X46990001Y12155714D01*
X47062572Y12083143D01*
X47207715Y12010571D01*
X47498001Y12010571D01*
X47643143Y12083143D01*
X47715715Y12155714D01*
X47788286Y12300857D01*
X47788286Y13534571D01*
X48441429Y12083143D02*
X48659143Y12010571D01*
X49022000Y12010571D01*
X49167143Y12083143D01*
X49239714Y12155714D01*
X49312286Y12300857D01*
X49312286Y12446000D01*
X49239714Y12591143D01*
X49167143Y12663714D01*
X49022000Y12736286D01*
X48731714Y12808857D01*
X48586572Y12881429D01*
X48514000Y12954000D01*
X48441429Y13099143D01*
X48441429Y13244286D01*
X48514000Y13389429D01*
X48586572Y13462000D01*
X48731714Y13534571D01*
X49094572Y13534571D01*
X49312286Y13462000D01*
X49965429Y12808857D02*
X50473429Y12808857D01*
X50691143Y12010571D02*
X49965429Y12010571D01*
X49965429Y13534571D01*
X50691143Y13534571D01*
X52215143Y12010571D02*
X51707143Y12736286D01*
X51344286Y12010571D02*
X51344286Y13534571D01*
X51924858Y13534571D01*
X52070000Y13462000D01*
X52142572Y13389429D01*
X52215143Y13244286D01*
X52215143Y13026571D01*
X52142572Y12881429D01*
X52070000Y12808857D01*
X51924858Y12736286D01*
X51344286Y12736286D01*
D11*
X18999926Y10017397D02*
X18999926Y9289506D01*
X19042743Y9203871D01*
X19085560Y9161054D01*
X19171194Y9118237D01*
X19342463Y9118237D01*
X19428097Y9161054D01*
X19470914Y9203871D01*
X19513731Y9289506D01*
X19513731Y10017397D01*
X20412891Y9118237D02*
X19899086Y9118237D01*
X20155988Y9118237D02*
X20155988Y10017397D01*
X20070354Y9888946D01*
X19984720Y9803311D01*
X19899086Y9760494D01*
M02*
